SplineFontDB: 3.2
FontName: Domitian-Bold
FullName: Domitian Bold
FamilyName: Domitian
Weight: Bold
Copyright: Copyright (c) 2014, 2015 by (URW)++ Design & Development\nCopyright (c) 2019, 2020 by Daniel Benjamin Miller
Version: 1.0.1
ItalicAngle: 0
UnderlinePosition: -100
UnderlineWidth: 50
Ascent: 726
Descent: 274
InvalidEm: 0
sfntRevision: 0x00010000
LayerCount: 2
Layer: 0 0 "Back" 1
Layer: 1 0 "Fore" 0
XUID: [1021 165 2128061049 199118]
UniqueID: 4227890
StyleMap: 0x0020
FSType: 0
OS2Version: 3
OS2_WeightWidthSlopeOnly: 0
OS2_UseTypoMetrics: 0
CreationTime: 1464719619
ModificationTime: 1590398032
PfmFamily: 17
TTFWeight: 700
TTFWidth: 5
LineGap: 200
VLineGap: 0
Panose: 2 4 7 2 5 5 5 3 3 4
OS2TypoAscent: 726
OS2TypoAOffset: 0
OS2TypoDescent: -274
OS2TypoDOffset: 0
OS2TypoLinegap: 200
OS2WinAscent: 924
OS2WinAOffset: 0
OS2WinDescent: 266
OS2WinDOffset: 0
HheadAscent: 726
HheadAOffset: 0
HheadDescent: -274
HheadDOffset: 0
OS2SubXSize: 650
OS2SubYSize: 600
OS2SubXOff: 0
OS2SubYOff: 75
OS2SupXSize: 650
OS2SupYSize: 600
OS2SupXOff: 0
OS2SupYOff: 350
OS2StrikeYSize: 69
OS2StrikeYPos: 269
OS2CapHeight: 689
OS2XHeight: 449
OS2Vendor: 'XDBM'
OS2CodePages: 6000009f.00000000
OS2UnicodeRanges: 00000287.00000800.00000000.00000000
Lookup: 1 0 0 "'aalt' Access All Alternates lookup 0" { "'aalt' Access All Alternates lookup 0 subtable"  } ['aalt' ('DFLT' <'dflt' > 'cyrl' <'dflt' > 'grek' <'dflt' > 'latn' <'AZE ' 'CRT ' 'DEU ' 'MOL ' 'ROM ' 'SRB ' 'TRK ' 'dflt' > ) ]
Lookup: 3 0 0 "'aalt' Access All Alternates lookup 1" { "'aalt' Access All Alternates lookup 1 subtable"  } ['aalt' ('DFLT' <'dflt' > 'cyrl' <'dflt' > 'grek' <'dflt' > 'latn' <'AZE ' 'CRT ' 'DEU ' 'MOL ' 'ROM ' 'SRB ' 'TRK ' 'dflt' > ) ]
Lookup: 1 0 0 "'locl' Localized Forms in Latin lookup 2" { "'locl' Localized Forms in Latin lookup 2 subtable"  } ['locl' ('latn' <'MOL ' 'ROM ' > ) ]

StartChar: exclam
Encoding: 33 33 1
Width: 278
Flags: MW
LayerCount: 2
Fore
SplineSet
142 144 m 0
 182 144 219 106 219 65 c 0
 219 24 182 -12 141 -12 c 0
 99 -12 63 23 63 65 c 0
 63 107 100 144 142 144 c 0
168 688 m 1
 219 688 l 1
 219 654 217 631 212 592 c 2
 162 220 l 1
 124 199 l 1
 119 207 l 1
 72 565 l 2
 70 582 69 592 68 644 c 1
 168 688 l 1
EndSplineSet
EndChar

StartChar: quotedbl
Encoding: 34 34 2
Width: 402
Flags: MW
LayerCount: 2
Fore
SplineSet
113 376 m 1
 67 376 l 1
 23 615 l 2
 22 618 22 621 22 624 c 0
 22 660 55 695 90 695 c 0
 125 695 158 660 158 624 c 0
 158 621 158 618 157 615 c 2
 113 376 l 1
335 376 m 1
 289 376 l 1
 245 615 l 2
 244 618 244 621 244 624 c 0
 244 660 277 695 312 695 c 0
 347 695 380 661 380 623 c 0
 380 621 380 618 379 615 c 2
 335 376 l 1
EndSplineSet
EndChar

StartChar: numbersign
Encoding: 35 35 3
Width: 500
Flags: MW
LayerCount: 2
Fore
SplineSet
470 290 m 1
 470 215 l 1
 365 215 l 1
 333 0 l 1
 258 0 l 1
 290 215 l 1
 182 215 l 1
 150 0 l 1
 75 0 l 1
 107 215 l 1
 4 215 l 1
 4 290 l 1
 119 290 l 1
 135 397 l 1
 32 397 l 1
 32 472 l 1
 146 472 l 1
 176 673 l 1
 251 673 l 1
 221 472 l 1
 328 472 l 1
 357 673 l 1
 432 673 l 1
 403 472 l 1
 496 472 l 1
 496 397 l 1
 392 397 l 1
 376 290 l 1
 470 290 l 1
317 397 m 1
 210 397 l 1
 194 290 l 1
 301 290 l 1
 317 397 l 1
EndSplineSet
EndChar

StartChar: dollar
Encoding: 36 36 4
Width: 500
Flags: MW
LayerCount: 2
Fore
SplineSet
221 37 m 1
 221 277 l 1
 140 288 102 302 72 332 c 0
 42 361 28 403 28 462 c 0
 28 525 48 574 88 609 c 0
 122 639 152 653 221 668 c 1
 219 721 l 1
 269 721 l 1
 267 668 l 1
 332 667 381 657 432 635 c 1
 434 628 l 1
 424 593 420 551 420 488 c 1
 381 488 l 1
 381 548 377 571 366 579 c 0
 341 599 304 613 267 614 c 1
 267 402 l 1
 357 385 399 369 429 337 c 0
 458 306 472 267 472 214 c 0
 472 131 434 60 368 19 c 0
 338 1 315 -6 267 -13 c 1
 269 -114 l 1
 218 -114 l 1
 221 -17 l 1
 141 -14 85 -2 33 23 c 1
 30 32 l 1
 35 77 37 109 39 181 c 1
 79 181 l 1
 80 141 l 2
 81 106 87 92 109 75 c 0
 144 51 181 38 221 37 c 1
267 267 m 1
 267 40 l 1
 331 59 365 101 365 161 c 0
 365 221 332 256 267 267 c 1
221 408 m 1
 221 614 l 1
 169 610 130 564 130 505 c 0
 130 451 161 418 221 408 c 1
EndSplineSet
EndChar

StartChar: percent
Encoding: 37 37 5
Width: 889
Flags: MW
LayerCount: 2
Fore
SplineSet
226 700 m 0
 319 700 387 630 387 536 c 0
 387 443 317 372 224 372 c 0
 131 372 61 443 61 535 c 0
 61 632 129 700 226 700 c 0
225 668 m 0
 182 668 161 625 161 539 c 0
 161 445 180 404 224 404 c 0
 267 404 287 445 287 536 c 0
 287 624 266 668 225 668 c 0
667 328 m 0
 760 328 828 258 828 164 c 0
 828 71 758 0 665 0 c 0
 572 0 502 71 502 163 c 0
 502 260 570 328 667 328 c 0
666 296 m 0
 623 296 602 253 602 167 c 0
 602 73 621 32 665 32 c 0
 708 32 728 73 728 164 c 0
 728 252 707 296 666 296 c 0
283 -9 m 1
 234 -9 l 1
 600 714 l 1
 649 714 l 1
 283 -9 l 1
EndSplineSet
Ligature2: "'frac' Diagonal Fractions lookup 6 subtable" zerosuperior fraction zerosuperior
Ligature2: "'frac' Diagonal Fractions lookup 6 subtable" zerosuperior slash zerosuperior
Ligature2: "'frac' Diagonal Fractions lookup 6 subtable" zero fraction zero
Ligature2: "'frac' Diagonal Fractions lookup 6 subtable" zero slash zero
EndChar

StartChar: ampersand
Encoding: 38 38 6
Width: 833
Flags: MW
LayerCount: 2
Fore
SplineSet
537 328 m 1
 447 328 l 1
 467 365 472 377 476 394 c 1
 594 390 l 2
 612 389 631 389 641 389 c 0
 684 389 713 390 788 395 c 1
 791 386 l 1
 780 358 775 341 771 316 c 1
 721 321 685 323 630 323 c 1
 632 307 633 295 633 286 c 0
 633 238 615 195 568 133 c 1
 621 99 668 84 719 84 c 0
 740 84 740 84 782 111 c 2
 799 122 l 1
 813 90 l 1
 772 55 741 23 720 -9 c 1
 654 -12 l 1
 590 -12 540 7 483 53 c 1
 415 3 358 -17 282 -17 c 0
 147 -17 52 62 52 176 c 0
 52 262 93 314 207 373 c 1
 182 433 174 466 174 503 c 0
 174 541 186 566 225 608 c 2
 260 646 l 2
 282 670 321 684 362 684 c 0
 432 684 477 643 477 580 c 0
 477 510 439 462 319 385 c 1
 380 294 441 227 525 158 c 1
 548 195 557 219 557 250 c 0
 557 275 551 299 537 328 c 1
222 336 m 1
 183 299 171 275 171 233 c 0
 171 137 254 53 350 53 c 0
 384 53 411 62 441 83 c 1
 344 167 285 235 222 336 c 1
299 426 m 1
 363 470 390 509 390 557 c 0
 390 596 366 622 331 622 c 0
 289 622 265 594 265 544 c 0
 265 511 273 485 299 426 c 1
EndSplineSet
EndChar

StartChar: quoteright
Encoding: 8217 8217 7
Width: 278
Flags: MW
LayerCount: 2
Fore
SplineSet
109 432 m 1
 43 405 l 1
 29 421 l 1
 64 500 92 590 103 662 c 1
 151 668 197 679 235 695 c 1
 249 682 l 1
 220 616 166 521 109 432 c 1
EndSplineSet
EndChar

StartChar: parenleft
Encoding: 40 40 8
Width: 333
Flags: MW
LayerCount: 2
Fore
SplineSet
279 723 m 1
 305 701 l 1
 261 647 244 617 226 562 c 0
 208 504 198 418 198 308 c 0
 198 103 218 30 305 -80 c 1
 281 -104 l 1
 181 -28 141 19 105 103 c 0
 78 163 65 231 65 307 c 0
 65 382 78 450 104 511 c 0
 139 595 179 643 279 723 c 1
EndSplineSet
EndChar

StartChar: parenright
Encoding: 41 41 9
Width: 333
Flags: MW
LayerCount: 2
Fore
SplineSet
28 701 m 1
 54 723 l 1
 154 643 194 594 229 511 c 0
 255 450 268 382 268 307 c 0
 268 231 255 163 228 103 c 0
 192 19 152 -27 52 -104 c 1
 28 -80 l 1
 115 31 135 103 135 308 c 0
 135 424 125 509 104 570 c 0
 86 622 70 649 28 701 c 1
EndSplineSet
EndChar

StartChar: asterisk
Encoding: 42 42 10
Width: 444
Flags: MW
LayerCount: 2
Fore
SplineSet
319 673 m 1
 324 659 l 1
 300 635 269 587 242 532 c 1
 264 537 273 538 287 541 c 0
 344 551 364 556 383 563 c 1
 389 560 l 1
 388 551 388 545 388 540 c 0
 388 520 391 500 399 473 c 1
 390 462 l 1
 346 480 298 490 236 496 c 1
 243 484 l 1
 282 420 290 407 316 378 c 1
 314 366 l 1
 293 362 260 349 229 332 c 1
 214 339 l 1
 214 398 211 434 203 484 c 1
 171 461 131 420 102 379 c 1
 83 387 l 1
 74 413 59 440 44 457 c 1
 48 464 l 1
 91 475 136 492 185 517 c 1
 151 540 103 560 47 576 c 1
 44 583 l 1
 67 620 77 638 88 660 c 1
 104 660 l 1
 134 625 150 606 206 546 c 1
 216 597 219 633 219 688 c 1
 227 695 l 1
 259 683 281 678 319 673 c 1
EndSplineSet
EndChar

StartChar: plus
Encoding: 43 43 11
Width: 606
Flags: MW
LayerCount: 2
Fore
SplineSet
260 298 m 1
 260 505 l 1
 346 505 l 1
 346 298 l 1
 555 298 l 1
 555 212 l 1
 346 212 l 1
 346 0 l 1
 260 0 l 1
 260 212 l 1
 51 212 l 1
 51 298 l 1
 260 298 l 1
EndSplineSet
EndChar

StartChar: comma
Encoding: 44 44 12
Width: 250
Flags: MW
LayerCount: 2
Fore
SplineSet
80 -136 m 1
 9 -166 l 1
 -6 -153 l 1
 38 -64 68 32 76 103 c 1
 130 117 163 126 210 141 c 1
 227 125 l 1
 191 48 159 -10 80 -136 c 1
EndSplineSet
EndChar

StartChar: hyphen
Encoding: 45 45 13
Width: 333
Flags: MW
LayerCount: 2
Fore
SplineSet
16 203 m 1
 24.2373492971 227.712047891 45.256578096 287.923681146 50 305 c 1
 308 305 l 1
 317 295 l 1
 301 259 290 223 285 195 c 1
 24 195 l 1
 16 203 l 1
EndSplineSet
AlternateSubs2: "'aalt' Access All Alternates lookup 1 subtable" endash emdash minus
EndChar

StartChar: period
Encoding: 46 46 14
Width: 250
Flags: MW
LayerCount: 2
Fore
SplineSet
126 144 m 0
 166 144 203 106 203 65 c 0
 203 24 166 -12 125 -12 c 0
 83 -12 47 23 47 65 c 0
 47 107 84 144 126 144 c 0
EndSplineSet
Substitution2: "'aalt' Access All Alternates lookup 0 subtable" ellipsis
EndChar

StartChar: slash
Encoding: 47 47 15
Width: 296
Flags: MW
LayerCount: 2
Fore
SplineSet
215 720 m 1
 305 720 l 1
 81 -17 l 1
 -9 -17 l 1
 215 720 l 1
EndSplineSet
Substitution2: "'dnom' Denominators lookup 5 subtable" fraction
Substitution2: "'numr' Numerators lookup 4 subtable" fraction
Substitution2: "'aalt' Access All Alternates lookup 0 subtable" fraction
EndChar

StartChar: zero
Encoding: 48 48 16
Width: 500
Flags: MW
LayerCount: 2
Fore
SplineSet
266 660 m 0
 340 660 395 630 427 574 c 0
 456 522 468 455 468 348 c 0
 468 96 398 -17 242 -17 c 0
 96 -17 33 79 33 302 c 0
 33 424 47 503 81 561 c 0
 119 628 178 660 266 660 c 0
245 610 m 0
 216 610 195 597 180 570 c 0
 160 533 153 483 153 371 c 0
 153 237 165 128 185 85 c 0
 201 51 225 33 255 33 c 0
 315 33 348 110 348 251 c 0
 348 386 334 515 314 558 c 0
 298 592 274 610 245 610 c 0
EndSplineSet
Substitution2: "'sinf' Scientific Inferiors lookup 23-1" zero.infs
Substitution2: "'onum' Oldstyle Figures lookup 22-1" zero.onum
Substitution2: "'sups' Superscript lookup 3 subtable" zerosuperior
Substitution2: "'aalt' Access All Alternates lookup 0 subtable" zerosuperior
EndChar

StartChar: one
Encoding: 49 49 17
Width: 500
Flags: MW
LayerCount: 2
Fore
SplineSet
75 34 m 1
 147 37 l 1
 186 40 204 54 204 84 c 2
 204 527 l 2
 204 557 202 564 194 565 c 0
 193 565 191 565 189 564 c 2
 49 499 l 1
 39 525 35 544 35 569 c 1
 97 583 212 622 334 670 c 1
 346 660 l 1
 339 558 336 485 336 406 c 2
 336 84 l 2
 336 54 354 40 393 37 c 1
 455 34 l 1
 455 -3 l 1
 406 -2 362 -1 347 -1 c 0
 314 0 291 0 278 0 c 0
 266 0 244 0 215 -1 c 0
 185 -1 133 -2 75 -3 c 1
 75 34 l 1
EndSplineSet
Substitution2: "'sinf' Scientific Inferiors lookup 23-1" one.infs
Substitution2: "'onum' Oldstyle Figures lookup 22-1" one.onum
Substitution2: "'sups' Superscript lookup 3 subtable" onesuperior
Substitution2: "'aalt' Access All Alternates lookup 0 subtable" onesuperior
EndChar

StartChar: two
Encoding: 50 50 18
Width: 500
Flags: MW
LayerCount: 2
Fore
SplineSet
25 -3 m 1
 25 48 l 1
 192 214 l 2
 270 292 309 368 309 443 c 0
 309 511 267 555 201 555 c 0
 156 555 112 530 104 500 c 2
 86 432 l 1
 49 435 l 1
 67 600 l 1
 124 643 169 660 228 660 c 0
 352 660 441 588 441 488 c 0
 441 423 404 350 338 285 c 2
 164 114 l 1
 166 106 l 1
 468 117 l 1
 472 112 l 1
 470 85 469 72 469 50 c 0
 469 31 469 21 471 -3 c 1
 348 -1 269 0 241 0 c 2
 197 0 l 1
 25 -3 l 1
EndSplineSet
Substitution2: "'sinf' Scientific Inferiors lookup 23-1" two.infs
Substitution2: "'onum' Oldstyle Figures lookup 22-1" two.onum
Substitution2: "'sups' Superscript lookup 3 subtable" twosuperior
Substitution2: "'aalt' Access All Alternates lookup 0 subtable" twosuperior
EndChar

StartChar: three
Encoding: 51 51 19
Width: 500
Flags: MW
LayerCount: 2
Fore
SplineSet
22 156 m 1
 56 165 l 1
 78 116 91 95 115 74 c 0
 141 52 175 39 210 39 c 0
 283 39 334 94 334 172 c 0
 334 247 285 296 208 296 c 0
 185 296 168 294 147 288 c 1
 140 293 l 1
 159 367 l 1
 194 367 l 2
 262 367 307 408 307 472 c 0
 307 528 268 562 206 562 c 0
 144 562 107 530 88 461 c 1
 53 461 l 1
 84 615 l 1
 142 648 182 660 237 660 c 0
 342 660 418 601 418 519 c 0
 418 458 384 413 306 373 c 1
 351 368 372 362 397 346 c 0
 437 319 458 278 458 225 c 0
 458 91 330 -17 172 -17 c 0
 122 -17 88 -10 47 7 c 1
 34 87 31 111 22 156 c 1
EndSplineSet
Substitution2: "'sinf' Scientific Inferiors lookup 23-1" three.infs
Substitution2: "'onum' Oldstyle Figures lookup 22-1" three.onum
Substitution2: "'sups' Superscript lookup 3 subtable" threesuperior
Substitution2: "'aalt' Access All Alternates lookup 0 subtable" threesuperior
EndChar

StartChar: four
Encoding: 52 52 20
Width: 500
Flags: MW
LayerCount: 2
Fore
SplineSet
319 0 m 0
 264.393972595 0 216.191813804 -1.42145077014 142 -3 c 1
 142 34 l 1
 206 37 l 2
 243 39 262 64 263 111 c 1
 263 165 l 1
 19 165 l 1
 12 204 l 1
 69 346 141 475 257 645 c 1
 379 672 l 1
 386 660 l 1
 381 518 380 453 380 372 c 2
 380 247 l 1
 468 247 l 1
 469 244 l 1
 469 165 l 1
 380 165 l 1
 380 111 l 1
 381 64 399 40 437 37 c 2
 473 34 l 1
 473 -3 l 1
 388 -1 341 0 319 0 c 0
82 247 m 1
 263 247 l 1
 263 579 l 1
 226 519 201 478 188 456 c 1
 126 340 l 2
 119.46539159 328.237704862 91.3512875967 265.702575193 82 247 c 1
EndSplineSet
Substitution2: "'sinf' Scientific Inferiors lookup 23-1" four.infs
Substitution2: "'onum' Oldstyle Figures lookup 22-1" four.onum
Substitution2: "'sups' Superscript lookup 3 subtable" foursuperior
Substitution2: "'aalt' Access All Alternates lookup 0 subtable" foursuperior
EndChar

StartChar: five
Encoding: 53 53 21
Width: 500
Flags: MW
LayerCount: 2
Fore
SplineSet
149 539 m 1
 145 384 l 1
 202 410 231 418 275 418 c 0
 396 418 472 348 472 237 c 0
 472 95 346 -17 186 -17 c 0
 141 -17 109 -11 73 5 c 1
 67 37 61 62 42 139 c 1
 72 157 l 1
 106 80 158 41 227 41 c 0
 304 41 354 94 354 177 c 0
 354 261 302 315 221 315 c 0
 176 315 143 303 109 275 c 1
 90 286 l 1
 95 367 96 387 96 410 c 2
 96 512 l 2
 96 547 94 580 90 648 c 1
 97 656 l 1
 155 653 176 652 267 650 c 1
 444 656 l 1
 448 648 l 1
 443 626 441 614 441 592 c 0
 441 581 441 566 442 550 c 1
 436 539 l 1
 351 541 303 542 293 542 c 2
 149 539 l 1
EndSplineSet
Substitution2: "'sinf' Scientific Inferiors lookup 23-1" five.infs
Substitution2: "'onum' Oldstyle Figures lookup 22-1" five.onum
Substitution2: "'sups' Superscript lookup 3 subtable" fivesuperior
Substitution2: "'aalt' Access All Alternates lookup 0 subtable" fivesuperior
EndChar

StartChar: six
Encoding: 54 54 22
Width: 500
Flags: MW
LayerCount: 2
Fore
SplineSet
252 -17 m 0
 100.020232903 -17 37 101.949986849 37 264 c 0
 37 405 86 512 186 590 c 0
 251 640 303 658 396 660 c 1
 435 633 l 1
 420 617 l 1
 411 618 403 618 400 618 c 0
 326 618 262 584 221 524 c 0
 190 479 176 426 168 326 c 1
 216 387 255 409 314 409 c 0
 409 409 469 336 469 221 c 0
 469 79 382 -17 252 -17 c 0
254 323 m 0
 194 323 165 282 165 198 c 0
 165 97 203 33 263 33 c 0
 319 33 351 84 351 171 c 0
 351 262 312 323 254 323 c 0
EndSplineSet
Substitution2: "'sinf' Scientific Inferiors lookup 23-1" six.infs
Substitution2: "'onum' Oldstyle Figures lookup 22-1" six.onum
Substitution2: "'sups' Superscript lookup 3 subtable" sixsuperior
Substitution2: "'aalt' Access All Alternates lookup 0 subtable" sixsuperior
EndChar

StartChar: seven
Encoding: 55 55 23
Width: 500
Flags: MW
LayerCount: 2
Fore
SplineSet
493 653 m 1
 493 608 l 1
 459 553 440 519 400 436 c 2
 290 212 l 2
 264 157 219 46 204 -3 c 1
 195 -2 189 -2 185 -2 c 0
 168 -1 155 0 149 0 c 0
 139 0 129 -1 94 -3 c 1
 88 8 l 1
 388 526 l 1
 384 532 l 1
 159 532 l 1
 110 531 102 524 96 480 c 2
 88 416 l 1
 49 416 l 1
 50 456 50 479 50 499 c 0
 50 559 49 588 46 648 c 1
 56 656 l 1
 99 655 145 654 155 654 c 0
 242 651 299 650 323 650 c 2
 352 650 l 1
 493 653 l 1
EndSplineSet
Substitution2: "'sinf' Scientific Inferiors lookup 23-1" seven.infs
Substitution2: "'onum' Oldstyle Figures lookup 22-1" seven.onum
Substitution2: "'sups' Superscript lookup 3 subtable" sevensuperior
Substitution2: "'aalt' Access All Alternates lookup 0 subtable" sevensuperior
EndChar

StartChar: eight
Encoding: 56 56 24
Width: 500
Flags: MW
LayerCount: 2
Fore
SplineSet
151 320 m 1
 79 362 51 405 51 476 c 0
 51 588 133 660 260 660 c 0
 368 660 437 604 437 517 c 0
 437 461 412 423 343 376 c 1
 384 359 402 347 424 322 c 0
 453 289 467 250 467 203 c 0
 467 77 368 -17 234 -17 c 0
 116 -17 34 54 34 155 c 0
 34 227 72 280 151 320 c 1
253 275 m 2
 192 302 l 1
 140 256 123 224 123 171 c 0
 123 93 176 35 248 35 c 0
 311 35 357 84 357 150 c 0
 357 207 327 242 253 275 c 2
250 412 m 2
 294 393 l 1
 337 430 353 459 353 502 c 0
 353 565 311 608 249 608 c 0
 192 608 154 573 154 519 c 0
 154 471 180 442 250 412 c 2
EndSplineSet
Substitution2: "'sinf' Scientific Inferiors lookup 23-1" eight.infs
Substitution2: "'onum' Oldstyle Figures lookup 22-1" eight.onum
Substitution2: "'sups' Superscript lookup 3 subtable" eightsuperior
Substitution2: "'aalt' Access All Alternates lookup 0 subtable" eightsuperior
EndChar

StartChar: nine
Encoding: 57 57 25
Width: 500
Flags: MW
LayerCount: 2
Fore
SplineSet
105 -17 m 1
 67 12 l 1
 76 30 l 1
 90 28 101 27 107 27 c 0
 135 27 180 39 209 55 c 0
 255 80 291 129 310 193 c 0
 321 228 325 255 331 315 c 1
 268 260 l 2
 248 243 228 236 195 236 c 0
 90 236 31 304 31 426 c 0
 31 571 114 660 248 660 c 0
 388 660 463 566 463 390 c 0
 463 214 381 71 243 11 c 0
 199 -9 171 -14 105 -17 c 1
241 608 m 0
 183 608 149 559 149 476 c 0
 149 380 187 323 250 323 c 0
 309 323 336 361 336 444 c 0
 336 549 302 608 241 608 c 0
EndSplineSet
Substitution2: "'sinf' Scientific Inferiors lookup 23-1" nine.infs
Substitution2: "'onum' Oldstyle Figures lookup 22-1" nine.onum
Substitution2: "'sups' Superscript lookup 3 subtable" ninesuperior
Substitution2: "'aalt' Access All Alternates lookup 0 subtable" ninesuperior
EndChar

StartChar: colon
Encoding: 58 58 26
Width: 250
Flags: MW
LayerCount: 2
Fore
SplineSet
126 144 m 0
 166 144 203 106 203 65 c 0
 203 24 166 -12 125 -12 c 0
 83 -12 47 23 47 65 c 0
 47 107 84 144 126 144 c 0
126 454 m 0
 166 454 203 416 203 375 c 0
 203 334 166 298 125 298 c 0
 82 298 47 333 47 375 c 0
 47 417 84 454 126 454 c 0
EndSplineSet
EndChar

StartChar: semicolon
Encoding: 59 59 27
Width: 250
Flags: MW
LayerCount: 2
Fore
SplineSet
80 -136 m 1
 9 -166 l 1
 -6 -153 l 1
 38 -64 68 32 76 103 c 1
 130 117 163 126 210 141 c 1
 227 125 l 1
 191 48 159 -10 80 -136 c 1
149 454 m 0
 189 454 226 416 226 375 c 0
 226 334 189 298 148 298 c 0
 105 298 70 333 70 375 c 0
 70 417 107 454 149 454 c 0
EndSplineSet
EndChar

StartChar: less
Encoding: 60 60 28
Width: 606
Flags: HMW
LayerCount: 2
Fore
SplineSet
170 305 m 1
 558 127 l 1
 558 34 l 1
 49 264 l 1
 49 346 l 1
 558 576 l 1
 558 484 l 1
 170 305 l 1
EndSplineSet
EndChar

StartChar: equal
Encoding: 61 61 29
Width: 606
Flags: MW
LayerCount: 2
Fore
SplineSet
555 396 m 1
 555 310 l 1
 51 310 l 1
 51 396 l 1
 555 396 l 1
555 200 m 1
 555 114 l 1
 51 114 l 1
 51 200 l 1
 555 200 l 1
EndSplineSet
EndChar

StartChar: greater
Encoding: 62 62 30
Width: 606
Flags: HMW
LayerCount: 2
Fore
SplineSet
445 305 m 1
 57 484 l 1
 57 576 l 1
 566 346 l 1
 566 264 l 1
 57 34 l 1
 57 127 l 1
 445 305 l 1
EndSplineSet
EndChar

StartChar: question
Encoding: 63 63 31
Width: 444
Flags: MW
LayerCount: 2
Fore
SplineSet
200 241 m 0
 200 229.620105332 204.657228222 214.685543557 211 202 c 1
 177 188 l 1
 159 211 151 234 151 262 c 0
 151 298 167 329 214 386 c 0
 261 442 277 473 277 508 c 0
 277 556 236 591 181 591 c 0
 146 591 115 581 109 568 c 2
 78 497 l 1
 43 506 l 1
 65 573 72 604 75 639 c 1
 128 675 166 687 225 687 c 0
 338 687 411 626 411 530 c 0
 411 474 393 441 340 396 c 2
 263 332 l 2
 220 297 200 267 200 241 c 0
195 144 m 0
 235 144 272 106 272 65 c 0
 272 24 235 -12 194 -12 c 0
 152 -12 116 23 116 64 c 0
 116 107 153 144 195 144 c 0
EndSplineSet
EndChar

StartChar: at
Encoding: 64 64 32
Width: 747
Flags: MW
LayerCount: 2
Fore
SplineSet
635 173 m 1
 699 173 l 1
 670 123 654 102 623 75 c 0
 558 18 479 -12 392 -12 c 0
 194 -12 42 136 42 329 c 0
 42 527 194 681 391 681 c 0
 567 681 704 558 704 399 c 0
 704 329 677 261 631 213 c 0
 586 168 526 137 480 137 c 0
 442 137 418 166 412 219 c 1
 368 159 342 143 294 143 c 0
 220 143 170 198 170 278 c 0
 170 396 267 501 376 501 c 0
 421 501 447 478 457 429 c 1
 473 493 l 1
 567 493 l 1
 493 219 l 2
 491 210 489 200 489 194 c 0
 489 179 497 170 508 170 c 0
 530 170 559 190 588 224 c 0
 629 274 653 340 653 404 c 0
 653 529 541 625 396 625 c 0
 225 625 98 502 98 335 c 0
 98 167 227 44 403 44 c 0
 443 44 477 51 510 66 c 0
 562 89 590 113 635 173 c 1
438 403 m 0
 438 443.383300862 419.625526382 471.093574638 389.270464522 471.093574638 c 0
 331.85824021 471.093574638 265 348.310627293 265 242 c 0
 265 201 285 172 314 172 c 0
 387.760261136 172 438 323.652900303 438 403 c 0
EndSplineSet
EndChar

StartChar: A
Encoding: 65 65 33
Width: 778
Flags: MW
LayerCount: 2
Fore
SplineSet
250 -3 m 1
 200.842253392 -1.36140844639 170.246670593 0 137 0 c 0
 135 0 98 -1 24 -3 c 1
 24 34 l 1
 54 37 l 2
 76 39 93 58 110 97 c 2
 291 535 l 1
 307.440954889 571.170100757 325.057295452 625.36570941 348 686 c 1
 419 686 l 1
 678 81 l 2
 691 52 705 41 733 37 c 2
 757 34 l 1
 757 -3 l 1
 667 -1 618 0 599 0 c 0
 579 0 533 -1 447 -3 c 1
 447 34 l 1
 500 37 l 2
 511 38 520 49 520 64 c 0
 520 72 518 82 514 92 c 2
 469 206 l 1
 218 206 l 1
 176 94 l 2
 173 85 171 76 171 69 c 0
 171 52 183 38 200 37 c 2
 250 34 l 1
 250 -3 l 1
342 516 m 1
 242 262 l 1
 446 262 l 1
 342 516 l 1
EndSplineSet
EndChar

StartChar: B
Encoding: 66 66 34
Width: 667
Flags: MW
LayerCount: 2
Fore
SplineSet
340 -3 m 0
 306.542876124 -3 218.224596234 0 198 0 c 0
 167 0 139 -1 72 -3 c 1
 72 20 l 1
 104 38 l 2
 119 47 124 61 124 95 c 2
 124 543 l 1
 123 633 122 637 76 641 c 2
 39 644 l 1
 39 681 l 1
 118 679 l 1
 206 678 l 2
 222 678 291 679 316 680 c 2
 399 681 l 1
 527 681 588 637 588 546 c 0
 588 508 574 472 551 450 c 0
 519 421 491 407 406 377 c 1
 486 372 519 363 556 338 c 0
 591 313 611 269 611 216 c 0
 611 87 500 -3 340 -3 c 0
265 348 m 1
 265 56 l 1
 282 53 291 52 308 52 c 0
 414 52 461 98 461 202 c 0
 461 304 411 348 295 348 c 2
 265 348 l 1
265 627 m 1
 265 400 l 1
 295 400 l 2
 396 400 440 437 440 524 c 0
 440 598 404 631 322 631 c 0
 302 631 288 630 265 627 c 1
EndSplineSet
EndChar

StartChar: C
Encoding: 67 67 35
Width: 722
Flags: MW
LayerCount: 2
Fore
SplineSet
692 87 m 1
 670 38 l 1
 596 -3 537 -17 445 -17 c 0
 198 -17 44 123 44 347 c 0
 44 561 202 695 455 695 c 0
 542 695 598 684 689 648 c 1
 695 637 l 1
 686 599 683 584 672 484 c 1
 633 484 l 1
 628 570 l 1
 574 620 526 639 450 639 c 0
 291 639 194 533 194 361 c 0
 194 172 309 48 485 48 c 0
 551 48 615 65 680 99 c 1
 692 87 l 1
EndSplineSet
EndChar

StartChar: D
Encoding: 68 68 36
Width: 833
Flags: MW
LayerCount: 2
Fore
SplineSet
379 -3 m 0
 336.650099561 -3 265.3531035 0 224 0 c 0
 195 0 155 -1 68 -3 c 1
 68 20 l 1
 100 38 l 2
 115 47 119 59 120 95 c 1
 120 543 l 1
 119 633 118 637 72 641 c 2
 35 644 l 1
 35 681 l 1
 183 678 183 678 196 678 c 0
 203 678 203 678 301 679 c 2
 437 681 l 1
 567 681 651 655 709 598 c 0
 759 549 786 471 786 376 c 0
 786 268 751 180 683 113 c 0
 608 39 498 -3 379 -3 c 0
261 627 m 1
 261 57 l 1
 286 53 302 52 329 52 c 0
 442 52 513 74 563 123 c 0
 612 171 636 246 636 348 c 0
 636 481.540807319 597.687861821 557.15606909 514 599 c 0
 472 618 393 631 323 631 c 0
 299 631 284 630 261 627 c 1
EndSplineSet
EndChar

StartChar: E
Encoding: 69 69 37
Width: 611
Flags: MW
LayerCount: 2
Fore
SplineSet
227 678 m 0
 267.089287062 678 417.900661128 682 465 682 c 0
 506 682 524 681 560 678 c 1
 566 671 l 1
 552 529 l 1
 516 529 l 1
 508 604 l 2
 507 615 465 624 411 624 c 0
 350 624 319 623 265 620 c 1
 265 380 l 1
 284 378 295 378 332 378 c 2
 398 378 l 2
 441 378 452 382 455 399 c 1
 461 456 l 1
 501 456 l 1
 499 392 498 357 498 349 c 2
 501 241 l 1
 461 241 l 1
 455 291 l 2
 451 318 437 327 398 328 c 1
 332 328 l 2
 309 328 290 327 265 325 c 1
 265 58 l 1
 316 56 355 55 396 55 c 0
 453 55 479 58 512 69 c 0
 514 70 515 71 515 72 c 2
 538 166 l 1
 577 166 l 1
 566 8 l 1
 561 0 l 1
 504 -3 475 -4 420 -4 c 0
 365.702542781 -4 258.957926563 0 195 0 c 0
 169 0 141 -1 72 -3 c 1
 72 20 l 1
 104 38 l 2
 119 47 124 61 124 95 c 2
 124 543 l 1
 123 633 122 637 76 641 c 2
 39 644 l 1
 39 681 l 1
 139 679 185 678 227 678 c 0
EndSplineSet
EndChar

StartChar: F
Encoding: 70 70 38
Width: 556
Flags: MW
LayerCount: 2
Fore
SplineSet
202 678 m 0
 242.198813056 678 416.63676492 682 438 682 c 0
 478 682 497 681 533 678 c 1
 539 671 l 1
 525 529 l 1
 489 529 l 1
 481 604 l 2
 480 616 438 623 367 623 c 0
 333 623 320 623 254 620 c 1
 254 377 l 1
 273 375 284 375 321 375 c 2
 372 375 l 2
 416 375 426 379 429 396 c 1
 435 449 l 1
 475 449 l 1
 472 372 472 357 472 346 c 2
 475 238 l 1
 435 238 l 1
 429 288 l 2
 425 315 411 324 372 325 c 1
 321 325 l 2
 298 325 279 324 254 322 c 1
 254 135 l 1
 255 79 256 62 261 53 c 0
 264 46 278 42 302 40 c 2
 349 37 l 1
 349 -3 l 1
 256 -1 217 0 183 0 c 0
 148 0 112 -1 28 -3 c 1
 28 37 l 1
 65 40 l 2
 89 42 98 45 104 51 c 0
 111 58 112 74 113 135 c 1
 113 543 l 1
 112 633 111 637 65 641 c 2
 28 644 l 1
 28 681 l 1
 176 678 176 678 202 678 c 0
EndSplineSet
EndChar

StartChar: G
Encoding: 71 71 39
Width: 833
Flags: MW
LayerCount: 2
Fore
SplineSet
776 276 m 1
 776 242 l 1
 740 234 736 231 735 206 c 1
 735 43 l 1
 615 -2 539 -17 438 -17 c 0
 201 -17 47 126 47 346 c 0
 47 562 205 695 461 695 c 0
 559 695 631 682 722 648 c 1
 728 637 l 1
 719 599 716 580 705 484 c 1
 666 484 l 1
 661 570 l 1
 637 593 628 600 603 610 c 0
 560 629 507 639 456 639 c 0
 293 639 197 535 197 358 c 0
 197 167 305 39 466 39 c 0
 509 39 542 45 593 64 c 1
 593 196 l 1
 592 222 578 232 536 233 c 2
 483 235 l 1
 483 276 l 1
 568 274 598 273 626 273 c 0
 655 273 689 274 776 276 c 1
EndSplineSet
EndChar

StartChar: H
Encoding: 72 72 40
Width: 833
Flags: MW
LayerCount: 2
Fore
SplineSet
347 641 m 1
 310 638 l 2
 286 636 277 633 271 627 c 0
 264 619 263 603 262 543 c 1
 262 385 l 1
 284 384 301 383 343 383 c 2
 489 383 l 2
 531 383 548 384 570 385 c 1
 570 543 l 1
 569 633 569 634 522 638 c 2
 485 641 l 1
 485 681 l 1
 604 678 605 678 640 678 c 0
 676 678 676 678 796 681 c 1
 796 641 l 1
 759 638 l 2
 735 636 726 633 720 627 c 0
 713 619 712 604 711 543 c 1
 711 135 l 1
 712 72 713 57 721 50 c 0
 727 44 736 42 759 40 c 2
 796 37 l 1
 796 -3 l 1
 711 -1 675 0 640 0 c 0
 605 0 569 -1 485 -3 c 1
 485 37 l 1
 522 40 l 2
 546 42 555 45 561 51 c 0
 568 58 569 74 570 135 c 1
 570 325 l 1
 546 326 525 327 489 327 c 2
 343 327 l 2
 306 327 286 326 262 325 c 1
 262 135 l 1
 263 72 264 58 272 50 c 0
 278 44 287 42 310 40 c 2
 347 37 l 1
 347 -3 l 1
 262 -1 227 0 191 0 c 0
 156 0 120 -1 36 -3 c 1
 36 37 l 1
 73 40 l 2
 97 42 106 45 112 51 c 0
 119 58 120 74 121 135 c 1
 121 543 l 1
 120 634 120 634 73 638 c 2
 36 641 l 1
 36 681 l 1
 155 678 156 678 191 678 c 0
 227 678 227 678 347 681 c 1
 347 641 l 1
EndSplineSet
EndChar

StartChar: I
Encoding: 73 73 41
Width: 389
Flags: MW
LayerCount: 2
Fore
SplineSet
350 641 m 1
 313 638 l 2
 289 636 280 633 274 627 c 0
 267 619 266 603 265 543 c 1
 265 135 l 1
 266 72 267 58 275 50 c 0
 281 44 290 42 313 40 c 2
 350 37 l 1
 350 -3 l 1
 265 -1 230 0 194 0 c 0
 159 0 123 -1 39 -3 c 1
 39 37 l 1
 76 40 l 2
 100 42 109 45 115 51 c 0
 122 58 123 74 124 135 c 1
 124 543 l 1
 123 634 123 634 76 638 c 2
 39 641 l 1
 39 681 l 1
 158 678 159 678 194 678 c 0
 230 678 230 678 350 681 c 1
 350 641 l 1
EndSplineSet
EndChar

StartChar: J
Encoding: 74 74 42
Width: 389
Flags: MW
LayerCount: 2
Fore
SplineSet
350 641 m 1
 313 638 l 2
 289 636 280 633 274 627 c 0
 267 619 266 603 265 543 c 1
 265 137 l 2
 265 32 259 -7 237 -55 c 0
 195 -145 100 -213 19 -213 c 0
 10 -213 2 -212 -11 -208 c 1
 -11 -119 l 1
 0 -113 l 1
 4 -116 5 -117 11 -121 c 0
 37 -142 51 -148 69 -148 c 0
 110 -148 124 -114 124 -18 c 2
 124 543 l 1
 123 634 123 634 76 638 c 2
 39 641 l 1
 39 681 l 1
 158 678 159 678 194 678 c 0
 230 678 230 678 350 681 c 1
 350 641 l 1
EndSplineSet
EndChar

StartChar: K
Encoding: 75 75 43
Width: 778
Flags: MW
LayerCount: 2
Fore
SplineSet
39 37 m 1
 76 40 l 2
 100 42 109 45 115 51 c 0
 122 58 123 75 124 135 c 1
 124 543 l 1
 123 634 123 634 76 638 c 2
 39 641 l 1
 39 681 l 1
 158 678 159 678 194 678 c 0
 230 678 230 678 350 681 c 1
 350 641 l 1
 313 638 l 2
 289 636 280 633 274 627 c 0
 267 619 266 604 265 543 c 1
 265 343 l 1
 462 536 l 2
 473 546 495 570 520 598 c 0
 525 603 529 608 530 610 c 0
 551 631 555 639 556 656 c 1
 556 681 l 1
 607 679 628 678 647 678 c 0
 665 678 687 679 738 681 c 1
 738 642 l 1
 675 637 652 630 628 608 c 2
 406 401 l 1
 672 88 l 1
 704 52 726 39 763 38 c 1
 763 -3 l 1
 674 0 673 0 662 0 c 2
 560 -3 l 1
 352 246 l 2
 295 313 291 317 265 332 c 1
 265 135 l 1
 266 72 267 58 275 50 c 0
 281 44 290 42 313 40 c 2
 350 37 l 1
 350 -3 l 1
 265 -1 230 0 194 0 c 0
 159 0 123 -1 39 -3 c 1
 39 37 l 1
EndSplineSet
EndChar

StartChar: L
Encoding: 76 76 44
Width: 611
Flags: MW
LayerCount: 2
Fore
SplineSet
420 -4 m 0
 365.702542781 -4 258.957926563 0 195 0 c 0
 169 0 141 -1 72 -3 c 1
 72 20 l 1
 104 38 l 2
 119 47 124 61 124 95 c 2
 124 543 l 1
 123 634 123 634 76 638 c 2
 39 641 l 1
 39 681 l 1
 158 678 159 678 194 678 c 0
 230 678 230 678 350 681 c 1
 350 641 l 1
 313 638 l 2
 289 636 280 633 274 627 c 0
 267 619 266 603 265 543 c 1
 265 58 l 1
 316 56 355 55 396 55 c 0
 453 55 480 58 512 69 c 0
 514 70 515 71 515 72 c 2
 538 174 l 1
 577 174 l 1
 566 8 l 1
 561 0 l 1
 504 -3 475 -4 420 -4 c 0
EndSplineSet
EndChar

StartChar: M
Encoding: 77 77 45
Width: 1000
Flags: MW
LayerCount: 2
Fore
SplineSet
968 644 m 1
 931 641 l 2
 885 637 884 633 883 543 c 1
 883 135 l 1
 884 72 885 58 893 50 c 0
 899 44 908 42 931 40 c 2
 968 37 l 1
 968 -3 l 1
 883 -1 848 0 812 0 c 0
 777 0 741 -1 657 -3 c 1
 657 37 l 1
 694 40 l 2
 718 42 727 45 733 51 c 0
 740 58 741 74 742 135 c 1
 742 551 l 1
 536 122 l 2
 499 46 495 36 476 -10 c 1
 442 -10 l 1
 424 34 413 58 406 73 c 2
 176 552 l 1
 176 135 l 2
 176 45 178 41 224 37 c 2
 261 34 l 1
 261 -3 l 1
 196 -1 171 0 148 0 c 0
 125 0 98 -1 32 -3 c 1
 32 34 l 1
 69 37 l 2
 115 41 116 45 117 135 c 1
 117 543 l 1
 116 633 115 637 69 641 c 2
 32 644 l 1
 32 681 l 1
 83 679 l 1
 117 678 l 1
 152 678 l 1
 272 681 l 1
 319 579 336 543 347 520 c 2
 505 190 l 1
 688 568 l 2
 699 591 708 612 737 681 c 1
 841 678 841 678 852 678 c 0
 863 678 863 678 968 681 c 1
 968 644 l 1
EndSplineSet
EndChar

StartChar: N
Encoding: 78 78 46
Width: 833
Flags: MW
LayerCount: 2
Fore
SplineSet
35 34 m 1
 72 37 l 2
 118 41 119 45 120 135 c 1
 120 543 l 1
 119 633 118 637 72 641 c 2
 35 644 l 1
 35 681 l 1
 86 679 l 1
 120 678 l 1
 155 678 l 1
 239 681 l 1
 305 594 322 572 342 548 c 2
 654 184 l 1
 654 543 l 1
 653 633 652 637 606 641 c 2
 569 644 l 1
 569 681 l 1
 647 678 672 678 684 678 c 2
 798 681 l 1
 798 644 l 1
 761 641 l 2
 715 637 714 633 713 543 c 1
 713 89 l 2
 713 66 714 46 716 -12 c 1
 709 -16 l 1
 627 -3 l 1
 557 75 532 104 505 136 c 2
 179 528 l 1
 179 135 l 2
 179 45 181 41 227 37 c 2
 264 34 l 1
 264 -3 l 1
 199 -1 174 0 151 0 c 0
 128 0 101 -1 35 -3 c 1
 35 34 l 1
EndSplineSet
EndChar

StartChar: O
Encoding: 79 79 47
Width: 833
Flags: MW
LayerCount: 2
Fore
SplineSet
431 695 m 0
 656 695 787 567 787 346 c 0
 787 118 646 -17 407 -17 c 0
 178 -17 47 110 47 332 c 0
 47 562 188 695 431 695 c 0
421 639 m 0
 358 639 306 620 267 582 c 0
 221 537 197 458 197 355 c 0
 197 240 227 145 282 91 c 0
 318 55 359 39 415 39 c 0
 561 39 637 137 637 325 c 0
 637 439 606 533 551 588 c 0
 516 623 474 639 421 639 c 0
EndSplineSet
EndChar

StartChar: P
Encoding: 80 80 48
Width: 611
Flags: MW
LayerCount: 2
Fore
SplineSet
209 678 m 0
 233.202393582 678 354.935245588 681 406 681 c 0
 531 681 594 631 594 531 c 0
 594 409 498 319 368 319 c 0
 352.603714057 319 330.392885669 323.229587762 311 326 c 1
 294 361 l 1
 304 371 l 1
 308 370 311 370 312 370 c 0
 338 365 338 365 347 365 c 0
 410 365 450 417 450 497 c 0
 450 587 408 631 325 631 c 0
 297 631 279 628 265 622 c 1
 265 135 l 1
 266 79 267 62 272 53 c 0
 275 46 289 42 313 40 c 2
 360 37 l 1
 360 -3 l 1
 267 -1 228 0 195 0 c 0
 159 0 124 -1 39 -3 c 1
 39 37 l 1
 76 40 l 2
 100 42 109 45 115 51 c 0
 122 58 123 75 124 135 c 1
 124 543 l 1
 123 633 122 637 76 641 c 2
 39 644 l 1
 39 681 l 1
 190 678 190 678 209 678 c 0
EndSplineSet
EndChar

StartChar: Q
Encoding: 81 81 49
Width: 833
Flags: MW
LayerCount: 2
Fore
SplineSet
781 -120 m 1
 678 -184 l 1
 652 -184 632 -181 606 -174 c 2
 407 -120 l 2
 355 -106 334 -102 309 -102 c 0
 284 -102 259 -113 211 -146 c 1
 200 -115 l 1
 273 -56 307 -35 361 -14 c 1
 273 -4 231 9 182 41 c 0
 94 99 47 199 47 331 c 0
 47 560 188 695 427 695 c 0
 656 695 787 568 787 346 c 0
 787 217 742 118 655 54 c 0
 595 9 505 -15 395 -15 c 0
 387 -15 385 -15 374 -16 c 1
 421 -26 447 -32 474 -42 c 2
 594 -84 l 2
 632 -97 674 -106 701 -106 c 0
 719 -106 738 -101 770 -87 c 1
 781 -83 l 1
 781 -120 l 1
421 639 m 0
 358 639 306 620 267 582 c 0
 221 537 197 458 197 355 c 0
 197 240 227 145 282 91 c 0
 318 55 359 39 415 39 c 0
 561 39 637 137 637 325 c 0
 637 439 606 533 551 588 c 0
 516 623 474 639 421 639 c 0
EndSplineSet
EndChar

StartChar: R
Encoding: 82 82 50
Width: 722
Flags: MW
LayerCount: 2
Fore
SplineSet
216 678 m 0
 265.468782954 678 371.760703548 681 416 681 c 0
 542 681 606 632 606 534 c 0
 606 492 592 456 564 424 c 0
 537 394 513 379 457 356 c 1
 638 82 l 1
 662 50 672 44 708 37 c 1
 708 -3 l 1
 671 -1 662 -1 611 0 c 1
 521 -3 l 1
 297 344 l 1
 304 362 l 1
 322 362 l 2
 406 362 464 419 464 503 c 0
 464 585 413 631 323 631 c 0
 297 631 279 628 265 622 c 1
 265 135 l 1
 266 72 267 58 275 50 c 0
 281 44 290 42 313 40 c 2
 350 37 l 1
 350 -3 l 1
 265 -1 230 0 194 0 c 0
 159 0 123 -1 39 -3 c 1
 39 37 l 1
 76 40 l 2
 100 42 109 45 115 51 c 0
 122 58 123 75 124 135 c 1
 124 543 l 1
 123 633 122 637 76 641 c 2
 39 644 l 1
 39 681 l 1
 188 678 188 678 216 678 c 0
EndSplineSet
EndChar

StartChar: S
Encoding: 83 83 51
Width: 611
Flags: MW
LayerCount: 2
Fore
SplineSet
72 202 m 1
 112 202 l 1
 119 114 l 1
 151 67 215 37 283 37 c 0
 369 37 433 92 433 166 c 0
 433 214 406 245 350 262 c 2
 210 304 l 2
 115 332 64 395 64 480 c 0
 64 615 162 695 329 695 c 0
 395 695 447 685 514 661 c 1
 519 649 l 1
 510 620 505 572 505 507 c 1
 464 507 l 1
 458 589 l 1
 420 626 375 644 322 644 c 0
 242 644 188 597 188 527 c 0
 188 476 220 446 294 426 c 2
 408 396 l 2
 507 370 559 309 559 220 c 0
 559 76 444 -17 265 -17 c 0
 189 -17 131 -4 57 29 c 1
 68 86 72 127 72 202 c 1
EndSplineSet
EndChar

StartChar: T
Encoding: 84 84 52
Width: 667
Flags: MW
LayerCount: 2
Fore
SplineSet
404 619 m 1
 404 135 l 1
 405 72 406 58 414 50 c 0
 420 44 429 42 452 40 c 2
 489 37 l 1
 489 -3 l 1
 404 -1 369 0 333 0 c 0
 298 0 262 -1 178 -3 c 1
 178 37 l 1
 215 40 l 2
 240 42 248 45 254 51 c 0
 261 59 262 74 263 135 c 1
 263 619 l 1
 146 619 l 1
 84 618 82 617 75 586 c 1
 70 517 l 1
 30 517 l 1
 27 593 25 628 17 676 c 1
 23 681 l 1
 298 678 298 678 334 678 c 0
 369 678 369 678 644 681 c 1
 650 676 l 1
 642 628 639 593 637 517 c 1
 597 517 l 1
 592 586 l 1
 583 610 l 1
 576 617 566 618 521 619 c 1
 404 619 l 1
EndSplineSet
EndChar

StartChar: U
Encoding: 85 85 53
Width: 778
Flags: MW
LayerCount: 2
Fore
SplineSet
760 644 m 1
 723 641 l 2
 677 637 675 633 675 543 c 2
 675 251 l 2
 675 70 583 -17 391 -17 c 0
 219 -17 111 58 111 177 c 2
 111 543 l 1
 110 633 109 637 63 641 c 2
 26 644 l 1
 26 681 l 1
 145 678 146 678 181 678 c 0
 217 678 217 678 337 681 c 1
 337 644 l 1
 300 641 l 2
 254 637 252 633 252 543 c 2
 252 295 l 2
 252 192 261 145 287 114 c 0
 314 81 359 65 428 65 c 0
 495 65 541 79 569 108 c 0
 603 143 616 196 616 302 c 2
 616 543 l 1
 615 633 614 637 568 641 c 2
 531 644 l 1
 531 681 l 1
 610 678 634 678 646 678 c 2
 760 681 l 1
 760 644 l 1
EndSplineSet
EndChar

StartChar: V
Encoding: 86 86 54
Width: 778
Flags: MW
LayerCount: 2
Fore
SplineSet
179 678 m 0
 223.385159463 678 278.012615487 679.450315387 340 681 c 1
 340 644 l 1
 290 641 l 2
 276 640 264 632 264 622 c 0
 264 605 267 595 285 550 c 2
 442 163 l 1
 584 516 l 2
 605 569 615 600 615 615 c 0
 615 630 601 640 578 641 c 2
 532 644 l 1
 532 681 l 1
 578.028318961 679.295247446 614.456020826 678 646 678 c 0
 659 678 690 679 763 681 c 1
 763 644 l 1
 731 641 l 2
 710 639 697 626 684 594 c 2
 476 96 l 2
 458.282391128 51.7059778198 456.739287879 45.7221484844 438 -3 c 1
 362 -3 l 1
 123 569 l 2
 101 620 86 638 61 641 c 1
 20 644 l 1
 20 681 l 1
 164 678 164 678 179 678 c 0
EndSplineSet
EndChar

StartChar: W
Encoding: 87 87 55
Width: 1000
Flags: MW
LayerCount: 2
Fore
SplineSet
772 681 m 1
 813.144469526 679.211110021 849.463526378 678 877 678 c 0
 889 678 918 679 988 681 c 1
 988 644 l 1
 955 641 l 2
 938 639 925 618 912 572 c 2
 790 140 l 2
 783 114 777 88 757 -3 c 1
 684 -3 l 1
 672.595492008 26.9368334801 656.768575697 72.7710088238 646 102 c 2
 497 477 l 1
 342 122 l 2
 333 100 325 80 295 -3 c 1
 225 -3 l 1
 86 599 l 2
 79 627 68 639 49 641 c 2
 17 644 l 1
 17 681 l 1
 161 678 161 678 174 678 c 0
 189 678 189 678 307 681 c 1
 307 644 l 1
 265 641 l 2
 249 640 235 628 235 616 c 0
 235 608 236 599 238 590 c 2
 320 207 l 1
 470 562 l 2
 483 595 514 669 521 686 c 1
 566 686 l 1
 587 626 599 592 615 553 c 2
 752 210 l 1
 849 588 l 2
 852 599 853 609 853 618 c 0
 853 632 841 640 818 641 c 2
 772 644 l 1
 772 681 l 1
EndSplineSet
EndChar

StartChar: X
Encoding: 88 88 56
Width: 667
Flags: MW
LayerCount: 2
Fore
SplineSet
22 658 m 1
 205 695 l 1
 234 673 250 653 278 604 c 2
 373 435 l 1
 538 678 l 1
 649 678 l 1
 649 644 l 1
 621 641 l 2
 601 638 594 633 573 605 c 2
 403 381 l 1
 562 106 l 1
 563 103 l 1
 591 54 603 41 625 37 c 1
 650 34 l 1
 650 -3 l 1
 614 -1 604 -1 555 0 c 1
 459 -3 l 1
 310 263 l 1
 170 62 l 2
 165 56 148 26 134 0 c 1
 17 0 l 1
 17 34 l 1
 48 37 l 2
 60 38 74 46 81 55 c 2
 280 316 l 1
 186 482 l 2
 160 528 122 581 100 605 c 0
 87 618 75 623 59 623 c 0
 50 623 43 622 27 617 c 1
 22 658 l 1
EndSplineSet
EndChar

StartChar: Y
Encoding: 89 89 57
Width: 667
Flags: MW
LayerCount: 2
Fore
SplineSet
395 356 m 1
 583 678 l 1
 660 678 l 1
 660 659 l 1
 484 398 l 2
 465 370 449 340 431 298 c 1
 431 135 l 1
 432 72 433 58 441 50 c 0
 447 44 456 42 479 40 c 2
 516 37 l 1
 516 -3 l 1
 431 -1 396 0 360 0 c 0
 325 0 289 -1 205 -3 c 1
 205 37 l 1
 242 40 l 2
 266 42 275 45 281 51 c 0
 288 58 289 74 290 135 c 1
 290 274 l 1
 274 310 262 333 246 359 c 2
 145 522 l 1
 86 607 66 622 15 622 c 1
 15 659 l 1
 174 695 l 1
 220 668 247 635 288 559 c 2
 395 356 l 1
EndSplineSet
EndChar

StartChar: Z
Encoding: 90 90 58
Width: 667
Flags: MW
LayerCount: 2
Fore
SplineSet
623 681 m 1
 623 646 l 1
 591 607 568 577 540 536 c 2
 215 57 l 1
 491 57 l 2
 543 57 566 69 572 96 c 2
 587 174 l 1
 627 174 l 1
 618 124 612 60 611 -3 c 1
 485 -1 428 0 327 0 c 0
 224 0 161 -1 24 -3 c 1
 24 35 l 1
 73 97 100 133 128 174 c 2
 434 620 l 1
 212 620 l 1
 140 619 131 615 125 574 c 2
 117 519 l 1
 80 519 l 1
 80 681 l 1
 325 678 325 678 352 678 c 0
 379 678 379 678 623 681 c 1
EndSplineSet
EndChar

StartChar: bracketleft
Encoding: 91 91 59
Width: 333
Flags: MW
LayerCount: 2
Fore
SplineSet
73 720 m 1
 125.561989045 718.357437842 155.577198028 717 192 717 c 0
 204 717 218 717 237 718 c 2
 291 720 l 1
 291 682 l 1
 242 682 l 2
 219 682 197 673 186 660 c 0
 180 653 179 643 179 561 c 2
 179 48 l 2
 179 -14 179 -28 180 -32 c 0
 183 -50 211 -66 242 -66 c 2
 291 -66 l 1
 291 -104 l 1
 234 -102 208 -101 192 -101 c 0
 155.939523932 -101 120.943647045 -102.401878432 73 -104 c 1
 74.6801867764 6.89232724483 79 122.389952184 79 188 c 2
 79 407 l 1
 76 548 75 616 73 720 c 1
EndSplineSet
EndChar

StartChar: backslash
Encoding: 92 92 60
Width: 606
Flags: MW
LayerCount: 2
Fore
SplineSet
72 720 m 1
 162 720 l 1
 534 0 l 1
 444 0 l 1
 72 720 l 1
EndSplineSet
EndChar

StartChar: bracketright
Encoding: 93 93 61
Width: 333
Flags: MW
LayerCount: 2
Fore
SplineSet
91 -66 m 2
 120.810498892 -66 153 -52.9530085738 153 -26 c 0
 154 -17 154 9 154 48 c 2
 154 561 l 2
 154 647 153 654 146 661 c 0
 134 674 113 682 91 682 c 2
 42 682 l 1
 42 720 l 1
 96 718 l 2
 115 717 129 717 140 717 c 0
 174.945653102 717 212.611022494 718.420367416 260 720 c 1
 258 616 257 548 254 407 c 1
 254 188 l 2
 254 123.501065412 258.335855238 5.83355432377 260 -104 c 1
 229 -103 201 -102 191 -102 c 0
 167 -101 151 -101 141 -101 c 0
 125 -101 99 -102 42 -104 c 1
 42 -66 l 1
 91 -66 l 2
EndSplineSet
EndChar

StartChar: asciicircum
Encoding: 94 94 62
Width: 606
Flags: MW
LayerCount: 2
Fore
SplineSet
147 275 m 1
 52 275 l 1
 258 678 l 1
 348 678 l 1
 554 275 l 1
 459 275 l 1
 303 569 l 1
 147 275 l 1
EndSplineSet
EndChar

StartChar: underscore
Encoding: 95 95 63
Width: 500
Flags: MW
LayerCount: 2
Fore
SplineSet
0 -56 m 1
 500 -56 l 1
 500 -125 l 1
 0 -125 l 1
 0 -56 l 1
EndSplineSet
EndChar

StartChar: quoteleft
Encoding: 8216 8216 64
Width: 278
Flags: MW
LayerCount: 2
Fore
SplineSet
169 668 m 1
 235 695 l 1
 249 679 l 1
 214 599 186 510 175 438 c 1
 128 432 81 421 43 405 c 1
 29 418 l 1
 59 485 113 581 169 668 c 1
EndSplineSet
EndChar

StartChar: a
Encoding: 97 97 65
Width: 500
Flags: MW
LayerCount: 2
Fore
SplineSet
421 330 m 0
 421 292.31836665 418 232.834383008 418 204 c 0
 418 181 419 153 420 119 c 1
 420 98 l 1
 421 51 426 40 448 37 c 2
 478 34 l 1
 478 -3 l 1
 426 -1 404 0 390 0 c 0
 375 0 352 -1 299 -3 c 1
 294 5 l 1
 299 67 l 1
 206 -5 l 2
 196 -13 180 -17 157 -17 c 0
 81 -17 40 26 40 107 c 0
 40 192 85 231 211 257 c 2
 299 275 l 1
 296 356 264 393 197 393 c 0
 170 393 142 386 139 379 c 2
 117 329 l 1
 87 336 l 1
 87 405 l 1
 140 437 l 2
 178 460 217 471 260 471 c 0
 361 471 421 418 421 330 c 0
299 115 m 1
 299 233 l 1
 254 221 l 2
 183 202 162 182 162 133 c 0
 162 94 181 70 213 70 c 0
 243 70 280 89 299 115 c 1
EndSplineSet
Substitution2: "Single Substitution lookup 21 subtable" ordfeminine
Substitution2: "'aalt' Access All Alternates lookup 0 subtable" ordfeminine
EndChar

StartChar: b
Encoding: 98 98 66
Width: 611
Flags: MW
LayerCount: 2
Fore
SplineSet
211 714 m 1
 211 383 l 1
 272 432 l 2
 307 460 335 471 375 471 c 0
 481 471 556 393 556 282 c 0
 556 204 524 127 473 86 c 0
 446 64 399 32 359 8 c 0
 330 -9 303 -17 272 -17 c 0
 228 -17 187 -5 141 20 c 1
 102 -12 l 1
 80 -4 l 1
 85 41 88 98 89 162 c 1
 89 568 l 2
 89 629 86 636 63 638 c 2
 10 641 l 1
 10 677 l 1
 68 683 102 689 131 698 c 2
 203 720 l 1
 211 714 l 1
211 331 m 1
 211 106 l 1
 238 68 270 51 312 51 c 0
 385 51 430 116 430 221 c 0
 430 321 384 381 307 381 c 0
 266 381 232 364 211 331 c 1
EndSplineSet
EndChar

StartChar: c
Encoding: 99 99 67
Width: 444
Flags: MW
LayerCount: 2
Fore
SplineSet
390 297 m 1
 354 297 l 1
 347 357 l 2
 344 380 304 400 259 400 c 0
 195 400 161 352 161 261 c 0
 161 133 221 54 320 54 c 0
 349 54 371 59 405 73 c 1
 414 63 l 1
 393 17 l 1
 346 -8 309 -17 259 -17 c 0
 115 -17 37 70 37 229 c 0
 37 316 69 366 158 419 c 2
 210 450 l 2
 234 465 262 471 300 471 c 0
 336 471 357 467 403 451 c 1
 410 438 l 1
 401 394 396 361 390 297 c 1
EndSplineSet
EndChar

StartChar: d
Encoding: 100 100 68
Width: 611
Flags: MW
LayerCount: 2
Fore
SplineSet
508 714 m 1
 508 100 l 2
 508 45 511 39 544 36 c 2
 577 34 l 1
 577 -3 l 1
 556 -2 536 -2 530 -2 c 0
 503 -1 485 0 476 0 c 0
 462 0 438 -1 386 -3 c 1
 381 5 l 1
 386 80 l 1
 282 -5 l 2
 272 -13 256 -17 233 -17 c 0
 116 -17 42 73 42 217 c 0
 42 303 68 361 126 398 c 2
 198 445 l 2
 225 462 254 471 285 471 c 0
 311 471 338 465 366 454 c 2
 386 446 l 1
 386 568 l 2
 386 629 383 636 360 638 c 2
 307 641 l 1
 307 677 l 1
 365 683 399 689 428 698 c 2
 500 720 l 1
 508 714 l 1
386 160 m 2
 386 344 l 1
 352 387 317 407 273 407 c 0
 203 407 168 357 168 255 c 0
 168 146 212 78 284 78 c 0
 340 78 386 115 386 160 c 2
EndSplineSet
EndChar

StartChar: e
Encoding: 101 101 69
Width: 500
Flags: MW
LayerCount: 2
Fore
SplineSet
461 295 m 2
 461 243 l 1
 412 230 361 223 303 223 c 2
 172 223 l 1
 174 176 180 153 196 125 c 0
 221 82 270 54 322 54 c 0
 362 54 392 63 439 89 c 1
 451 74 l 1
 429 26 l 1
 364 -7 329 -17 271 -17 c 0
 121 -17 42 67 42 226 c 0
 42 322 71 380 137 420 c 2
 184 448 l 2
 211 464 237 471 271 471 c 0
 386 471 461 402 461 295 c 2
250 273 m 1
 334 276 l 1
 332 375 308 415 251 415 c 0
 193 415 169 375 166 276 c 1
 184 275 193 275 198 275 c 0
 220 274 237 273 246 273 c 2
 250 273 l 1
EndSplineSet
EndChar

StartChar: f
Encoding: 102 102 70
Width: 389
Flags: MW
LayerCount: 2
Fore
SplineSet
381 714 m 1
 381 617 l 1
 365 610 l 1
 335 628 319 634 298 634 c 0
 252 634 239 613 239 542 c 2
 239 434 l 1
 280 434 305 435 370 438 c 1
 374 430 l 1
 363 372 l 1
 239 372 l 1
 239 100 l 2
 239 43 240 41 289 36 c 1
 334 34 l 1
 334 -3 l 1
 248 -1 197 0 175 0 c 0
 152 0 120 -1 34 -3 c 1
 34 34 l 1
 75 36 l 1
 114 40 117 44 117 100 c 2
 117 372 l 1
 38 367 l 1
 38 391 l 1
 71 406 90 417 117 436 c 1
 117 479 l 1
 119 566 123 573 172 616 c 1
 246 678 l 2
 284 710 307 720 339 720 c 0
 354 720 364 718 381 714 c 1
EndSplineSet
EndChar

StartChar: g
Encoding: 103 103 71
Width: 556
Flags: MW
LayerCount: 2
Fore
SplineSet
217 78 m 0
 230.837731075 78 376.915052347 82 387 82 c 0
 488 82 535 43 535 -42 c 0
 535 -176 417 -266 242 -266 c 0
 110 -266 26 -211 26 -124 c 0
 26 -97 37 -71 52 -62 c 2
 133 -14 l 1
 83 -1 65 16 65 53 c 0
 65 73 72 93 82 101 c 2
 153 155 l 1
 118 167 103 176 84 196 c 0
 60 222 47 255 47 292 c 0
 47 398 136 471 264 471 c 0
 328 471 375 458 416 428 c 1
 432 427 445 427 452 427 c 0
 475 427 493 428 534 432 c 1
 529 368 l 1
 452 372 l 1
 456 354 457 342 457 325 c 0
 457 274 444 240 413 209 c 0
 372 168 309 145 239 145 c 0
 227 145 217 146 199 147 c 1
 178 135 170 124 170 108 c 0
 170 88 186 78 217 78 c 0
252 421 m 0
 198 421 170 384 170 311 c 0
 170 235 201 191 254 191 c 0
 307 191 334 228 334 300 c 0
 334 378 305 421 252 421 c 0
272 -15 m 0
 223 -15 187 -19 171 -26 c 0
 140 -40 120 -75 120 -112 c 0
 120 -175 179 -216 268 -216 c 0
 358 -216 424 -164 424 -95 c 0
 424 -30 395 -15 272 -15 c 0
EndSplineSet
EndChar

StartChar: h
Encoding: 104 104 72
Width: 611
Flags: MW
LayerCount: 2
Fore
SplineSet
24 34 m 1
 59 36 l 1
 92 39 95 45 95 100 c 2
 95 568 l 2
 95 629 92 636 69 638 c 2
 24 641 l 1
 24 677 l 1
 78 684 111 690 137 698 c 2
 209 720 l 1
 217 714 l 1
 217 390 l 1
 297 452 l 2
 314 465 336 471 367 471 c 0
 417 471 457 456 483 429 c 0
 509 401 518 363 518 286 c 2
 518 100 l 2
 518 45 521 39 554 36 c 2
 587 34 l 1
 587 -3 l 1
 523 -1 502 0 486 0 c 0
 468 0 448 -1 396 -3 c 1
 396 269 l 2
 396 350 368 385 303 385 c 0
 258 385 217 352 217 317 c 2
 217 100 l 2
 217 45 220 39 253 36 c 1
 288 34 l 1
 288 -3 l 1
 221 -1 173 0 153 0 c 2
 24 -3 l 1
 24 34 l 1
EndSplineSet
EndChar

StartChar: i
Encoding: 105 105 73
Width: 333
Flags: MW
LayerCount: 2
Fore
SplineSet
34 34 m 1
 69 36 l 1
 102 39 105 45 105 100 c 2
 105 319 l 2
 105 380 102 387 79 389 c 2
 34 392 l 1
 34 428 l 1
 41 429 47 430 49 430 c 0
 89 435 113 439 147 449 c 2
 217 471 l 1
 227 465 l 1
 227 100 l 2
 227 45 230 39 263 36 c 1
 298 34 l 1
 298 -3 l 1
 231 -1 183 0 163 0 c 2
 34 -3 l 1
 34 34 l 1
163 706 m 0
 204 706 237 673 237 631 c 0
 237 590 203 556 162 556 c 0
 120 556 87 589 87 632 c 0
 87 674 120 706 163 706 c 0
EndSplineSet
EndChar

StartChar: j
Encoding: 106 106 74
Width: 333
Flags: MW
LayerCount: 2
Fore
SplineSet
7 -223 m 1
 30 -223 l 2
 30.5081165029 -223.009587104 31.0132918038 -223.014394755 31.515536477 -223.014394755 c 0
 83.4008201096 -223.014394755 104.009587104 -171.705740983 105 -38 c 2
 105 319 l 2
 105 380 102 387 79 389 c 2
 34 392 l 1
 34 428 l 1
 52 430 l 2
 90 435 121 441 147 449 c 2
 217 471 l 1
 227 465 l 1
 227 98 l 2
 227 -55 214 -123 175 -181 c 0
 139 -235 91 -266 45 -266 c 0
 40 -266 39 -266 27 -265 c 1
 22 -265 l 1
 13 -264 l 1
 3 -229 l 1
 7 -223 l 1
167 706 m 0
 208 706 241 673 241 631 c 0
 241 590 208 556 166 556 c 0
 124 556 91 589 91 632 c 0
 91 674 124 706 167 706 c 0
EndSplineSet
EndChar

StartChar: k
Encoding: 107 107 75
Width: 611
Flags: MW
LayerCount: 2
Fore
SplineSet
29 34 m 1
 64 36 l 1
 97 39 100 45 100 100 c 2
 100 568 l 2
 100 629 97 636 74 638 c 2
 21 641 l 1
 21 677 l 1
 79 683 113 689 142 698 c 2
 214 720 l 1
 222 714 l 1
 222 249 l 1
 278 297 305 322 328 346 c 2
 435 459 l 1
 565 459 l 1
 565 421 l 1
 534 421 l 2
 519 421 502 415 486 403 c 2
 424 358 l 2
 412 350 384 324 354 294 c 2
 346 286 l 1
 542 66 l 2
 560 46 576 36 597 34 c 1
 597 0 l 1
 425 0 l 1
 410 19 353 89 338 106 c 2
 232 226 l 1
 222 226 l 1
 222 100 l 2
 222 45 225 39 258 36 c 1
 293 34 l 1
 293 -3 l 1
 226 -1 178 0 158 0 c 2
 29 -3 l 1
 29 34 l 1
EndSplineSet
EndChar

StartChar: l
Encoding: 108 108 76
Width: 333
Flags: MW
LayerCount: 2
Fore
SplineSet
24 641 m 1
 24 677 l 1
 82 683 116 689 145 698 c 2
 217 720 l 1
 225 714 l 1
 225 100 l 2
 225 45 228 39 261 36 c 1
 296 34 l 1
 296 -3 l 1
 229 -1 181 0 161 0 c 2
 32 -3 l 1
 32 34 l 1
 67 36 l 1
 100 39 103 45 103 100 c 2
 103 568 l 2
 103 629 100 636 77 638 c 2
 24 641 l 1
EndSplineSet
EndChar

StartChar: m
Encoding: 109 109 77
Width: 889
Flags: MW
LayerCount: 2
Fore
SplineSet
24 34 m 1
 59 36 l 1
 92 39 95 45 95 100 c 2
 95 319 l 2
 95 380 92 387 69 389 c 2
 24 392 l 1
 24 428 l 1
 79 431 107 437 211 471 c 1
 217 465 l 1
 217 390 l 1
 297 452 l 2
 314 465 336 471 368 471 c 0
 437 471 477 447 500 390 c 1
 580 452 l 2
 597 465 619 471 651 471 c 0
 759 471 795 424 795 286 c 2
 795 100 l 2
 795 45 798 39 831 36 c 2
 864 34 l 1
 864 -3 l 1
 823 -1 816 -1 766 0 c 1
 673 -3 l 1
 673 269 l 2
 673 348 645 385 587 385 c 0
 547 385 506 351 506 317 c 2
 506 100 l 2
 506 45 509 39 542 36 c 1
 577 34 l 1
 577 -3 l 1
 504 -1 473 0 446 0 c 0
 419 0 389 -1 317 -3 c 1
 317 34 l 1
 348 36 l 2
 380 38 384 45 384 100 c 2
 384 269 l 2
 384 348 356 385 298 385 c 0
 258 385 217 351 217 317 c 2
 217 100 l 2
 217 45 220 40 253 36 c 1
 280 34 l 1
 280 -3 l 1
 219 -1 176 0 153 0 c 2
 24 -3 l 1
 24 34 l 1
EndSplineSet
EndChar

StartChar: n
Encoding: 110 110 78
Width: 611
Flags: MW
LayerCount: 2
Fore
SplineSet
24 34 m 1
 59 36 l 1
 92 39 95 45 95 100 c 2
 95 319 l 2
 95 380 92 387 69 389 c 2
 24 392 l 1
 24 428 l 1
 79 431 107 437 211 471 c 1
 217 465 l 1
 217 390 l 1
 297 452 l 2
 314 465 336 471 367 471 c 0
 417 471 457 456 483 429 c 0
 509 401 518 363 518 286 c 2
 518 100 l 2
 518 45 521 39 554 36 c 2
 587 34 l 1
 587 -3 l 1
 523 -1 502 0 486 0 c 0
 468 0 448 -1 396 -3 c 1
 396 270 l 2
 396 351 368 385 303 385 c 0
 258 385 217 352 217 317 c 2
 217 100 l 2
 217 45 220 39 253 36 c 1
 288 34 l 1
 288 -3 l 1
 221 -1 173 0 153 0 c 2
 24 -3 l 1
 24 34 l 1
EndSplineSet
Substitution2: "'sups' Superscript lookup 3 subtable" nsuperior
Substitution2: "'aalt' Access All Alternates lookup 0 subtable" nsuperior
EndChar

StartChar: o
Encoding: 111 111 79
Width: 556
Flags: MW
LayerCount: 2
Fore
SplineSet
287 471 m 0
 436 471 517 388 517 236 c 0
 517 74 427 -17 267 -17 c 0
 122 -17 40 70 40 224 c 0
 40 384 127 471 287 471 c 0
275 423 m 0
 206 423 176 370 176 248 c 0
 176 104 213 31 285 31 c 0
 353 31 381 82 381 204 c 0
 381 353 347 423 275 423 c 0
EndSplineSet
Substitution2: "Single Substitution lookup 21 subtable" ordmasculine
Substitution2: "'aalt' Access All Alternates lookup 0 subtable" ordmasculine
EndChar

StartChar: p
Encoding: 112 112 80
Width: 611
Flags: MW
LayerCount: 2
Fore
SplineSet
29 -221 m 1
 64 -219 l 1
 97 -216 100 -210 100 -155 c 2
 100 319 l 2
 100 380 97 387 74 389 c 2
 29 392 l 1
 29 428 l 1
 40 429 l 1
 89 435 106 439 142 449 c 1
 212 471 l 1
 222 465 l 1
 222 383 l 1
 283 432 l 2
 318 460 346 471 386 471 c 0
 490 471 567 393 567 286 c 0
 567 196 531 118 465 68 c 0
 462 65 455 60 448 55 c 0
 380 1 345 -17 311 -17 c 0
 287 -17 271 -14 222 0 c 1
 222 -155 l 2
 222 -210 226 -217 258 -219 c 2
 303 -221 l 1
 303 -258 l 1
 182 -255 182 -255 171 -255 c 2
 158 -255 l 1
 29 -258 l 1
 29 -221 l 1
222 331 m 1
 222 106 l 1
 249 68 281 51 323 51 c 0
 396 51 441 116 441 221 c 0
 441 321 395 381 318 381 c 0
 277 381 243 364 222 331 c 1
EndSplineSet
EndChar

StartChar: q
Encoding: 113 113 81
Width: 611
Flags: MW
LayerCount: 2
Fore
SplineSet
325 -221 m 1
 360 -219 l 1
 393 -216 396 -210 396 -155 c 2
 396 75 l 1
 300 -2 l 2
 288 -12 268 -17 241 -17 c 0
 124 -17 52 70 52 212 c 0
 52 311 82 362 169 411 c 0
 249 456 288 471 323 471 c 0
 354 471 396 458 439 437 c 2
 461 426 l 1
 513 468 l 1
 534 454 l 1
 523 399 518 361 518 324 c 2
 518 -155 l 2
 518 -210 521 -216 554 -219 c 1
 589 -221 l 1
 589 -258 l 1
 524 -256 483 -255 467 -255 c 2
 454 -255 l 1
 325 -258 l 1
 325 -221 l 1
396 160 m 2
 396 344 l 1
 362 387 327 407 284 407 c 0
 213 407 178 357 178 256 c 0
 178 146 222 78 294 78 c 0
 350 78 396 115 396 160 c 2
EndSplineSet
EndChar

StartChar: r
Encoding: 114 114 82
Width: 389
Flags: MW
LayerCount: 2
Fore
SplineSet
30 34 m 1
 65 36 l 1
 98 39 101 45 101 100 c 2
 101 319 l 2
 101 380 98 387 75 389 c 2
 30 392 l 1
 30 428 l 1
 93 436 112 439 143 449 c 2
 213 471 l 1
 223 465 l 1
 223 370 l 1
 267 418 l 2
 305 459 323 471 352 471 c 0
 366 471 378 469 389 465 c 1
 384 336 l 1
 360 326 l 1
 346 351 328 362 303 362 c 0
 264 362 223 329 223 298 c 2
 223 100 l 2
 223 44 225 41 271 36 c 1
 310 34 l 1
 310 -3 l 1
 174 0 172 0 159 0 c 2
 30 -3 l 1
 30 34 l 1
EndSplineSet
EndChar

StartChar: s
Encoding: 115 115 83
Width: 444
Flags: MW
LayerCount: 2
Fore
SplineSet
362 326 m 1
 326 326 l 1
 316 384 l 2
 313 404 270 423 229 423 c 0
 174 423 141 398 141 358 c 0
 141 326 157 311 196 302 c 2
 278 284 l 2
 368 264 405 227 405 155 c 0
 405 52 320 -17 194 -17 c 0
 141 -17 97 -9 39 11 c 1
 46 152 l 1
 85 152 l 1
 90 83 l 1
 121 46 155 31 202 31 c 0
 259 31 294 61 294 108 c 0
 294 143 277 160 231 171 c 2
 145 192 l 2
 75 209 39 251 39 317 c 0
 39 417 112 471 247 471 c 0
 300 471 331 465 370 448 c 1
 362 326 l 1
EndSplineSet
Substitution2: "'hist' Historical Forms lookup 18 subtable" longs
Substitution2: "'aalt' Access All Alternates lookup 0 subtable" longs
EndChar

StartChar: t
Encoding: 116 116 84
Width: 333
Flags: MW
LayerCount: 2
Fore
SplineSet
324 60 m 1
 275 1 l 2
 266 -10 241 -17 210 -17 c 0
 123 -17 86 21 86 110 c 2
 86 369 l 1
 22 365 l 1
 22 387 l 1
 88 430 l 1
 88 490 l 2
 88 512 87 532 84 582 c 1
 135 601 166 613 206 632 c 1
 220 622 l 1
 211 576 208 541 208 486 c 2
 208 428 l 1
 322 434 l 1
 314 369 l 1
 208 369 l 1
 208 131 l 2
 208 82 223 66 270 66 c 0
 286 66 295 69 316 79 c 1
 324 60 l 1
EndSplineSet
EndChar

StartChar: u
Encoding: 117 117 85
Width: 611
Flags: MW
LayerCount: 2
Fore
SplineSet
392 80 m 1
 316 6 l 2
 301 -9 276 -17 247 -17 c 0
 150 -17 96 39 96 140 c 2
 96 319 l 2
 96 380 93 387 70 389 c 2
 25 392 l 1
 25 428 l 1
 88 436 106 439 138 449 c 2
 208 471 l 1
 218 465 l 1
 218 204 l 2
 218 108 239 73 296 73 c 0
 349 73 392 113 392 163 c 2
 392 319 l 2
 392 380 389 387 366 389 c 2
 321 392 l 1
 321 428 l 1
 382 436 402 439 434 449 c 2
 504 471 l 1
 514 465 l 1
 514 100 l 2
 514 45 517 39 550 36 c 2
 583 34 l 1
 583 -3 l 1
 562 -2 542 -2 536 -2 c 0
 509 -1 490 0 481 0 c 0
 468 0 445 -1 387 -3 c 1
 392 80 l 1
EndSplineSet
EndChar

StartChar: v
Encoding: 118 118 86
Width: 556
Flags: MW
LayerCount: 2
Fore
SplineSet
227 -3 m 1
 84 357 l 2
 66 401 53 417 36 419 c 2
 11 421 l 1
 11 459 l 1
 107 456 116 456 128 456 c 2
 141 456 l 1
 270 459 l 1
 270 421 l 1
 229 419 l 2
 214 418 206 412 206 402 c 0
 206 390 210 377 220 351 c 2
 308 130 l 1
 328 174 333 186 343 210 c 2
 404 361 l 2
 410 375 413 390 413 402 c 0
 413 411 404 418 390 419 c 2
 352 421 l 1
 352 459 l 1
 389 458 398 457 449 456 c 1
 545 459 l 1
 545 421 l 1
 515 416 l 2
 498 413 488 404 479 382 c 2
 351 94 l 2
 339 67 329 42 313 -3 c 1
 227 -3 l 1
EndSplineSet
EndChar

StartChar: w
Encoding: 119 119 87
Width: 833
Flags: MW
LayerCount: 2
Fore
SplineSet
194 -3 m 1
 87 381 l 2
 79 408 69 417 46 419 c 2
 13 421 l 1
 13 459 l 1
 119 456 135 456 149 456 c 2
 284 459 l 1
 284 421 l 1
 237 419 l 2
 226 419 218 410 218 397 c 0
 218 391 219 382 220 378 c 2
 279 151 l 1
 297 192 316 233 336 276 c 2
 423 471 l 1
 473 471 l 1
 611 154 l 1
 629 203 639 231 650 266 c 2
 686 379 l 2
 687 384 689 393 689 397 c 0
 689 410 678 418 660 419 c 2
 618 421 l 1
 618 459 l 1
 677 457 700 456 719 456 c 0
 738 456 761 457 820 459 c 1
 820 421 l 1
 786 419 l 2
 772 418 762 405 750 372 c 2
 658 112 l 2
 650 87 639 49 623 -3 c 1
 542 -3 l 1
 410 304 l 1
 334 154 324 130 273 -3 c 1
 194 -3 l 1
EndSplineSet
EndChar

StartChar: x
Encoding: 120 120 88
Width: 500
Flags: MW
LayerCount: 2
Fore
SplineSet
200 210 m 1
 120 346 l 1
 90.5754371458 393.458972345 76.4668818731 403.078396549 34.9165706378 403.078396549 c 0
 32.6919019463 403.078396549 30.3885659953 403.050820553 28 403 c 1
 20 439 l 1
 58 446 127 461 166 471 c 1
 186 455 205 431 228 394 c 2
 280 309 l 1
 388 459 l 1
 483 459 l 1
 483 422 l 1
 446 421 436 415 405 379 c 2
 308 265 l 1
 397 113 l 1
 432 56 452 37 483 34 c 1
 483 -3 l 1
 454 -1 446 -1 406 0 c 1
 328 -3 l 1
 228 166 l 1
 164 78 l 2
 152 61 141 45 112 0 c 1
 21 0 l 1
 21 34 l 1
 52 36 70 46 90 70 c 2
 200 210 l 1
EndSplineSet
EndChar

StartChar: y
Encoding: 121 121 89
Width: 556
Flags: MW
LayerCount: 2
Fore
SplineSet
275 421 m 1
 240 419 l 2
 224 418 214 409 214 396 c 0
 214 380.520967123 225.4482359 359.655292299 231 343 c 2
 315 125 l 1
 416 377 l 2
 418 383 420 392 420 399 c 0
 420 410 410 418 393 419 c 2
 360 421 l 1
 360 459 l 1
 377 458 394 458 399 458 c 0
 430 456 443 456 449 456 c 2
 453 456 l 1
 546 459 l 1
 546 421 l 1
 520 416 l 2
 506 413 491 396 479 369 c 2
 280 -94 l 2
 229 -212 174 -266 104 -266 c 0
 81 -266 58 -261 31 -249 c 1
 49 -154 l 1
 60 -150 l 1
 83 -176 104 -187 130 -187 c 0
 165 -187 199 -153 222 -96 c 2
 245 -40 l 1
 87 364 l 2
 72 402 60 418 45 419 c 2
 10 421 l 1
 10 459 l 1
 109 456 117 456 130 456 c 2
 143 456 l 1
 275 459 l 1
 275 421 l 1
EndSplineSet
EndChar

StartChar: z
Encoding: 122 122 90
Width: 500
Flags: MW
LayerCount: 2
Fore
SplineSet
454 424 m 1
 186 55 l 1
 349 55 l 1
 399 56 409 66 419 124 c 2
 424 155 l 1
 464 155 l 1
 457 107 452 48 452 2 c 1
 447 -3 l 1
 307 -1 209 0 174 0 c 0
 134 0 99 -1 16 -3 c 1
 16 30 l 1
 81 113 99 137 120 166 c 2
 290 404 l 1
 172 404 l 1
 114 403 103 394 96 345 c 1
 93 320 l 1
 55 320 l 1
 58 454 l 1
 65 459 l 1
 204 455 268 454 301 454 c 0
 347 454 382 455 454 459 c 1
 454 424 l 1
EndSplineSet
EndChar

StartChar: braceleft
Encoding: 123 123 91
Width: 310
Flags: MW
LayerCount: 2
Fore
SplineSet
5 301 m 1
 5 303 l 1
 79 322 96 341 96 414 c 2
 96 592 l 1
 98.9107018504 692.904330814 140.416914339 725.089825615 275.318649285 725.089825615 c 0
 279.45733333 725.089825615 283.68392277 725.0595321 288 725 c 1
 288 723 l 1
 214 703 195 680 193 606 c 1
 193 429 l 2
 193 348 170 319 91 302 c 1
 171 285 192 257 193 169 c 1
 193 2 l 1
 195 -72 214 -95 288 -115 c 1
 288 -117 l 1
 283.529471519 -117.061240116 279.155514597 -117.092477418 274.876320568 -117.092477418 c 0
 139.404178522 -117.092477418 98.9081398257 -85.7848939004 96 16 c 1
 96 190 l 1
 94 264 80 282 5 301 c 1
EndSplineSet
EndChar

StartChar: bar
Encoding: 124 124 92
Width: 606
Flags: MW
LayerCount: 2
Fore
SplineSet
260 -244 m 1
 260 750 l 1
 346 750 l 1
 346 -244 l 1
 260 -244 l 1
EndSplineSet
EndChar

StartChar: braceright
Encoding: 125 125 93
Width: 310
Flags: MW
LayerCount: 2
Fore
SplineSet
22 723 m 1
 22 725 l 1
 26.3160772303 725.0595321 30.5435526881 725.089825615 34.6839296486 725.089825615 c 0
 169.640845726 725.089825615 212.0595321 692.904330814 214 592 c 1
 214 414 l 1
 216 340 230 322 305 303 c 1
 305 301 l 1
 230 282 216 264 214 190 c 1
 214 16 l 1
 211.091860174 -85.7848939004 170.595821478 -117.092477418 35.1236794319 -117.092477418 c 0
 30.844485403 -117.092477418 26.4705284813 -117.061240116 22 -117 c 1
 22 -115 l 1
 96 -95 115 -72 117 2 c 1
 117 169 l 1
 118 257 139 285 219 302 c 1
 140 319 117 348 117 429 c 2
 117 606 l 1
 115 680 96 703 22 723 c 1
EndSplineSet
EndChar

StartChar: asciitilde
Encoding: 126 126 94
Width: 606
Flags: MW
LayerCount: 2
Fore
SplineSet
494 333 m 1
 555 294 l 1
 508 214 467 181 413 181 c 0
 385 181 365 187 304 214 c 0
 235 244 216 250 195 250 c 0
 163 250 142 234 112 184 c 1
 51 223 l 1
 98 304 139 336 193 336 c 0
 221 336 240 330 302 303 c 0
 370 274 390 267 410 267 c 0
 443 267 464 284 494 333 c 1
EndSplineSet
EndChar

StartChar: exclamdown
Encoding: 161 161 95
Width: 278
Flags: MW
LayerCount: 2
Fore
SplineSet
115 -227 m 1
 64 -227 l 1
 64 -193 66 -171 71 -131 c 2
 121 241 l 1
 159 262 l 1
 164 254 l 1
 211 -104 l 2
 213 -121 213 -128 215 -183 c 1
 115 -227 l 1
138 471 m 0
 178 471 215 433 215 392 c 0
 215 351 178 315 137 315 c 0
 94 315 59 350 59 392 c 0
 59 434 96 471 138 471 c 0
EndSplineSet
EndChar

StartChar: cent
Encoding: 162 162 96
Width: 500
Flags: MW
LayerCount: 2
Fore
SplineSet
403 554 m 1
 378 473 l 1
 411 465 426 460 441 453 c 1
 446 444 l 1
 437 404 431 351 428 296 c 1
 390 296 l 1
 384 356 l 2
 383 369 368 385 353 389 c 1
 262 87 l 1
 290 64 317 55 358 55 c 0
 391 55 411 60 441 75 c 1
 450 64 l 1
 429 17 l 1
 425 13 l 1
 379 -8 342 -17 299 -17 c 0
 284 -17 275 -16 240 -12 c 2
 230 -11 l 1
 198 -106 l 1
 156 -106 l 1
 192 0 l 1
 108 42 73 106 73 213 c 0
 73 265 82 307 102 343 c 0
 113 363 128 377 166 401 c 2
 218 434 l 2
 260 460 303 475 336 476 c 1
 362 554 l 1
 403 554 l 1
230 124 m 1
 313 400 l 1
 305 401 297 401 292 401 c 0
 228 401 196 355 196 263 c 0
 196 209 204 174 230 124 c 1
EndSplineSet
EndChar

StartChar: sterling
Encoding: 163 163 97
Width: 500
Flags: MW
LayerCount: 2
Fore
SplineSet
16 363 m 1
 106 363 l 1
 106 406 l 2
 106 461 124 508 161 550 c 0
 221 619 331 676 404 676 c 0
 431 676 458 666 480 649 c 1
 470 513 l 1
 439 513 l 1
 436 548 l 2
 433 586 401 610 355 610 c 0
 282 610 252 570 244 463 c 2
 236 363 l 1
 404 363 l 1
 404 320 l 1
 231 320 l 1
 212 223 179 157 117 93 c 1
 167 107 191 112 221 112 c 0
 241 112 243 112 318 101 c 0
 367 94 384 92 406 92 c 0
 433 92 452 104 456 122 c 2
 467 178 l 1
 501 178 l 1
 491 -1 l 1
 462 -12 437 -16 408 -16 c 0
 361 -16 308 -8 246 10 c 0
 195 24 149 32 113 32 c 0
 98 32 85 26 62 7 c 0
 44 -8 31 -15 18 -19 c 1
 -2 40 l 1
 62 92 l 1
 98 124 103 149 106 320 c 1
 16 320 l 1
 16 363 l 1
EndSplineSet
EndChar

StartChar: fraction
Encoding: 8260 8260 98
Width: 167
Flags: MW
LayerCount: 2
Fore
SplineSet
-83 0 m 1
 -152 0 l 1
 251 660 l 1
 320 660 l 1
 -83 0 l 1
EndSplineSet
EndChar

StartChar: yen
Encoding: 165 165 99
Width: 500
Flags: MW
LayerCount: 2
Fore
SplineSet
154 37 m 1
 180 40 l 2
 214 43 214 44 215 135 c 1
 215 206 l 1
 66 206 l 1
 66 246 l 1
 215 246 l 1
 215 286 l 2
 215 298 209 311 196 334 c 0
 193 338 192 339 191 342 c 1
 66 342 l 1
 66 382 l 1
 174 382 l 1
 111 522 l 1
 70.9550050044 601.113282796 52.8510197391 622.03519196 19.4185797355 622.03519196 c 0
 18.6212729181 622.03519196 17.8152481745 622.023292805 17 622 c 1
 17 659 l 1
 132 695 l 1
 164 669 183 636 214 559 c 2
 294 356 l 1
 427 678 l 1
 483 678 l 1
 483 659 l 1
 348 382 l 1
 466 382 l 1
 466 342 l 1
 332 342 l 1
 321 320 317 304 317 284 c 2
 317 246 l 1
 466 246 l 1
 466 206 l 1
 317 206 l 1
 317 135 l 2
 317 81 319 59 323 51 c 0
 327 44 333 42 352 40 c 2
 378 37 l 1
 378 -3 l 1
 320 -1 296 0 269 0 c 0
 242 0 216 -1 154 -3 c 1
 154 37 l 1
EndSplineSet
EndChar

StartChar: florin
Encoding: 402 402 100
Width: 500
Flags: MW
LayerCount: 2
Fore
SplineSet
95 368 m 1
 108 412 l 1
 213 412 l 1
 229 482 258 550 289 592 c 0
 344 662 415 701 490 703 c 1
 483 620 l 1
 473 620 l 1
 452 635 440 640 424 640 c 0
 391 640 370 616 363 570 c 2
 338 412 l 1
 452 412 l 1
 439 368 l 1
 329 368 l 1
 277 58 l 1
 246 -116 140 -236 11 -242 c 1
 16 -214 18 -194 19 -154 c 1
 33 -146 l 1
 42 -161 62 -171 82 -171 c 0
 106 -171 129 -146 134 -114 c 2
 207 368 l 1
 95 368 l 1
EndSplineSet
EndChar

StartChar: section
Encoding: 167 167 101
Width: 500
Flags: MW
LayerCount: 2
Fore
SplineSet
407 515 m 1
 369 515 l 1
 369 551 367 575 362 595 c 1
 344 614 305 626 261 626 c 0
 186 626 131 586 131 532 c 0
 131 484 160 461 257 432 c 0
 280.631950397 424.956856753 303.728578875 417.067855281 328 411 c 0
 430 385 471 342 471 261 c 0
 471 203 456 171 400 115 c 1
 440 85 455 57 455 11 c 0
 455 -110 339 -217 208 -217 c 0
 142 -217 103 -206 49 -172 c 1
 57 -92 58 -79 63 -17 c 1
 102 -17 l 1
 101 -26 101 -33 101 -37 c 0
 101 -59 104 -79 110 -101 c 1
 144 -138 186 -156 241 -156 c 0
 311 -156 375 -105 375 -49 c 0
 375 -27 365 -6 347 10 c 0
 328 27 302 39 240 59 c 2
 179 79 l 2
 70 115 30 156 30 233 c 0
 30 282 45 312 89 354 c 2
 108 372 l 1
 76 400 61 431 61 470 c 0
 61 525 93 596 136 636 c 0
 175 672 237 695 294 695 c 0
 337 695 375 685 424 662 c 1
 416 623 412 589 407 515 c 1
235 180 m 2
 368 131 l 1
 389 159 397 178 397 200 c 0
 397 249 364 279 282 307 c 2
 139 355 l 1
 115 326 104 303 104 280 c 0
 104 244 143 214 235 180 c 2
EndSplineSet
EndChar

StartChar: currency
Encoding: 164 164 102
Width: 500
Flags: MW
LayerCount: 2
Fore
SplineSet
32 141 m 1
 81 190 l 1
 51 228 39 262 39 313 c 0
 39 365 51 401 81 435 c 1
 32 484 l 1
 79 531 l 1
 127 483 l 1
 164 511 204 524 251 524 c 0
 297 524 334 512 371 484 c 1
 419 533 l 1
 468 484 l 1
 422 436 l 1
 449 401 461 364 461 314 c 0
 461 265 449 228 421 189 c 1
 467 141 l 1
 422 96 l 1
 375 145 l 1
 338 115 302 102 250 102 c 0
 199 102 162 114 125 144 c 1
 77 96 l 1
 32 141 l 1
251 447 m 0
 177 447 116 386 116 312 c 0
 116 240 177 178 249 178 c 0
 324 178 384 238 384 314 c 0
 384 386 324 447 251 447 c 0
EndSplineSet
EndChar

StartChar: quotesingle
Encoding: 39 39 103
Width: 227
Flags: MW
LayerCount: 2
Fore
SplineSet
136 376 m 1
 90 376 l 1
 46 615 l 2
 45 618 45 621 45 624 c 0
 45 660 78 695 113 695 c 0
 148 695 181 660 181 624 c 0
 181 621 181 618 180 615 c 2
 136 376 l 1
EndSplineSet
EndChar

StartChar: quotedblleft
Encoding: 8220 8220 104
Width: 500
Flags: MW
LayerCount: 2
Fore
SplineSet
174 668 m 1
 240 695 l 1
 254 679 l 1
 219 599 191 510 180 438 c 1
 133 432 86 421 48 405 c 1
 34 418 l 1
 64 485 118 581 174 668 c 1
386 668 m 1
 452 695 l 1
 466 679 l 1
 431 600 403 511 392 438 c 1
 345 432 298 421 260 405 c 1
 246 418 l 1
 277 487 330 581 386 668 c 1
EndSplineSet
EndChar

StartChar: guillemotleft
Encoding: 171 171 105
Width: 500
Flags: HMW
LayerCount: 2
Fore
SplineSet
234 438 m 1
 261 416 l 1
 151 243 l 1
 261 64 l 1
 234 44 l 1
 140 139 91 186 36 231 c 1
 36 256 l 1
 142 349 183 386 234 438 c 1
436 438 m 1
 463 416 l 1
 353 243 l 1
 463 64 l 1
 436 44 l 1
 342 139 293 186 238 231 c 1
 238 256 l 1
 344 349 385 386 436 438 c 1
EndSplineSet
EndChar

StartChar: guilsinglleft
Encoding: 8249 8249 106
Width: 389
Flags: MW
LayerCount: 2
Fore
SplineSet
280 438 m 1
 307 416 l 1
 197 243 l 1
 307 64 l 1
 280 44 l 1
 186 139 137 186 82 231 c 1
 82 256 l 1
 188 349 229 386 280 438 c 1
EndSplineSet
EndChar

StartChar: guilsinglright
Encoding: 8250 8250 107
Width: 389
Flags: MW
LayerCount: 2
Fore
SplineSet
82 416 m 1
 109 438 l 1
 150 396 216 335 307 256 c 1
 307 231 l 1
 255 188 199 136 109 44 c 1
 82 64 l 1
 192 243 l 1
 82 416 l 1
EndSplineSet
EndChar

StartChar: fi
Encoding: 64257 64257 108
Width: 611
Flags: MW
LayerCount: 2
Fore
SplineSet
524 470 m 1
 524 100 l 2
 524 45 528 39 560 36 c 1
 595 34 l 1
 595 -3 l 1
 528 -1 480 0 460 0 c 2
 331 -3 l 1
 331 34 l 1
 366 36 l 1
 398 39 402 45 402 100 c 2
 402 326 l 2
 402 373 391 391 364 391 c 2
 333 391 l 1
 326 372 l 1
 215 372 l 1
 215 100 l 2
 215 44 218 40 255 36 c 1
 290 34 l 1
 290 -3 l 1
 209 -1 178 0 153 0 c 0
 128 0 94 -1 10 -3 c 1
 10 34 l 1
 51 36 l 1
 90 40 93 44 93 100 c 2
 93 372 l 1
 14 367 l 1
 14 391 l 1
 47 406 66 417 93 436 c 1
 93 479 l 1
 95 566 99 573 148 616 c 1
 222 678 l 2
 260 710 283 720 315 720 c 0
 330 720 340 718 357 714 c 1
 357 617 l 1
 341 610 l 1
 311 628 295 634 274 634 c 0
 228 634 215 613 215 542 c 2
 215 434 l 1
 326 434 l 2
 373 434 411 439 444 449 c 2
 516 471 l 1
 524 470 l 1
473 706 m 0
 514 706 547 673 547 631 c 0
 547 590 514 556 472 556 c 0
 430 556 397 589 397 632 c 0
 397 674 430 706 473 706 c 0
EndSplineSet
Ligature2: "'liga' Standard Ligatures in Latin lookup 15 subtable" f i
EndChar

StartChar: fl
Encoding: 64258 64258 109
Width: 611
Flags: MW
LayerCount: 2
Fore
SplineSet
317 720 m 0
 325.083654585 720 337.092648904 718.976837774 345 717 c 1
 347 717 l 1
 347 680 l 1
 404 687 427 692 453 700 c 2
 514 720 l 1
 522 714 l 1
 522 100 l 2
 522 45 525 39 558 36 c 1
 593 34 l 1
 593 -3 l 1
 526 -1 478 0 458 0 c 2
 329 -3 l 1
 329 34 l 1
 364 36 l 1
 397 39 400 45 400 100 c 2
 400 568 l 2
 400 628 397 635 374 638 c 2
 347 641 l 1
 347 608 l 1
 332 604 l 1
 314 625 296 634 274 634 c 0
 238 634 222 606 222 542 c 2
 222 434 l 1
 256 434 282 435 343 438 c 1
 347 430 l 1
 336 372 l 1
 222 372 l 1
 222 100 l 2
 222 43 223 42 272 36 c 1
 297 34 l 1
 297 -3 l 1
 216 -1 185 0 160 0 c 0
 135 0 101 -1 17 -3 c 1
 17 34 l 1
 58 36 l 1
 97 40 100 44 100 100 c 2
 100 372 l 1
 21 367 l 1
 21 391 l 1
 54 406 73 417 100 436 c 1
 100 479 l 1
 102 566 106 573 155 616 c 1
 229 678 l 2
 266 709 289 720 317 720 c 0
EndSplineSet
LCarets2: 1 0
Ligature2: "'liga' Standard Ligatures in Latin lookup 16 subtable" f l
EndChar

StartChar: endash
Encoding: 8211 8211 110
Width: 500
Flags: MW
LayerCount: 2
Fore
SplineSet
500 208 m 1
 0 208 l 1
 0 291 l 1
 500 291 l 1
 500 208 l 1
EndSplineSet
EndChar

StartChar: dagger
Encoding: 8224 8224 111
Width: 500
Flags: MW
LayerCount: 2
Fore
SplineSet
196 462 m 1
 180 675 l 1
 186 682 l 1
 223 680 239 679 251 679 c 0
 263 679 279 680 316 682 c 1
 321 675 l 1
 305 462 l 1
 469 470 l 1
 472 464 l 1
 470 436 469 426 469 417 c 0
 469 409 470 400 472 371 c 1
 469 365 l 1
 305 373 l 1
 323 -1 l 1
 318 -6 l 1
 276 -4 262 -3 251 -3 c 0
 240 -3 226 -4 184 -6 c 1
 178 -1 l 1
 196 373 l 1
 32 365 l 1
 29 371 l 1
 30 378 30 385 30 387 c 0
 31 402 32 413 32 418 c 0
 32 422 31 437 29 464 c 1
 32 470 l 1
 196 462 l 1
EndSplineSet
EndChar

StartChar: daggerdbl
Encoding: 8225 8225 112
Width: 500
Flags: MW
LayerCount: 2
Fore
SplineSet
468 36 m 1
 466.408723496 20.0872349631 465 -0.0669068637847 465 -9 c 2
 468 -54 l 1
 461 -59 l 1
 297 -50 l 1
 313 -240 l 1
 305 -245 l 1
 272 -243 260 -242 250 -242 c 0
 240 -242 228 -243 195 -245 c 1
 187 -240 l 1
 203 -50 l 1
 39 -59 l 1
 32 -54 l 1
 33 -42 l 2
 35 -23 35 -16 35 -10 c 2
 35 -8 l 1
 32 36 l 1
 39 41 l 1
 203 31 l 1
 189 220 l 1
 203 403 l 1
 39 394 l 1
 32 399 l 1
 33 407 33 408 34 418 c 2
 35 442 l 1
 35 447 l 1
 32 489 l 1
 39 494 l 1
 203 484 l 1
 187 677 l 1
 195 682 l 1
 206 681 l 2
 228 680 243 679 249 679 c 0
 259 679 270 680 305 682 c 1
 313 677 l 1
 297 484 l 1
 461 494 l 1
 468 489 l 1
 467 477 l 1
 466 462 l 2
 465 457 465 448 465 444 c 2
 468 399 l 1
 461 394 l 1
 297 403 l 1
 311 220 l 1
 297 31 l 1
 461 41 l 1
 468 36 l 1
EndSplineSet
EndChar

StartChar: periodcentered
Encoding: 183 183 113
Width: 250
Flags: MW
LayerCount: 2
Fore
SplineSet
126 335 m 0
 166 335 203 297 203 256 c 0
 203 215 166 179 125 179 c 0
 82 179 47 214 47 256 c 0
 47 298 84 335 126 335 c 0
EndSplineSet
EndChar

StartChar: paragraph
Encoding: 182 182 114
Width: 641
Flags: MW
LayerCount: 2
Fore
SplineSet
195 -120 m 1
 244 -118 l 2
 276 -116 280 -109 280 -54 c 2
 280 324 l 1
 199 330 151 347 96 387 c 0
 46 425 19 474 19 529 c 0
 19 621 104 683 230 683 c 0
 243 683 255 683 284 681 c 0
 318 679 381 678 437 678 c 0
 442 678 457 678 475 679 c 2
 599 681 l 1
 599 640 l 1
 552 640 l 2
 523 640 514 621 514 563 c 2
 514 -54 l 2
 514 -109 518 -116 550 -118 c 2
 599 -120 l 1
 599 -161 l 1
 489 -159 437 -158 397 -158 c 0
 357 -158 305 -159 195 -161 c 1
 195 -120 l 1
426 634 m 1
 368 634 l 1
 368 -111 l 1
 426 -111 l 1
 426 634 l 1
280 371 m 1
 280 634 l 1
 274 635 268 635 265 635 c 0
 199 635 150 583 150 513 c 0
 150 441 197 390 280 371 c 1
EndSplineSet
EndChar

StartChar: bullet
Encoding: 8226 8226 115
Width: 606
Flags: MW
LayerCount: 2
Fore
SplineSet
305 491 m 0
 384 491 447 428 447 349 c 0
 447 270 383 206 306 206 c 0
 226 206 162 270 162 349 c 0
 162 427 226 491 305 491 c 0
EndSplineSet
EndChar

StartChar: quotesinglbase
Encoding: 8218 8218 116
Width: 333
Flags: MW
LayerCount: 2
Fore
SplineSet
136 -133 m 1
 70 -160 l 1
 56 -144 l 1
 91 -64 119 25 130 97 c 1
 178 103 224 114 262 130 c 1
 276 117 l 1
 247 51 193 -44 136 -133 c 1
EndSplineSet
EndChar

StartChar: quotedblbase
Encoding: 8222 8222 117
Width: 500
Flags: MW
LayerCount: 2
Fore
SplineSet
114 -133 m 1
 48 -160 l 1
 34 -144 l 1
 69 -64 97 25 108 97 c 1
 156 103 202 114 240 130 c 1
 254 117 l 1
 225 51 171 -44 114 -133 c 1
326 -133 m 1
 260 -160 l 1
 246 -144 l 1
 281 -64 309 25 320 97 c 1
 368 103 414 114 452 130 c 1
 466 117 l 1
 436 50 383 -44 326 -133 c 1
EndSplineSet
EndChar

StartChar: quotedblright
Encoding: 8221 8221 118
Width: 500
Flags: MW
LayerCount: 2
Fore
SplineSet
114 432 m 1
 48 405 l 1
 34 421 l 1
 69 500 97 590 108 662 c 1
 156 668 202 679 240 695 c 1
 254 682 l 1
 225 616 171 521 114 432 c 1
326 432 m 1
 260 405 l 1
 246 421 l 1
 281 500 309 590 320 662 c 1
 368 668 414 679 452 695 c 1
 466 682 l 1
 436 615 383 521 326 432 c 1
EndSplineSet
EndChar

StartChar: guillemotright
Encoding: 187 187 119
Width: 500
Flags: HMW
LayerCount: 2
Fore
SplineSet
37 416 m 1
 64 438 l 1
 105 396 171 335 262 256 c 1
 262 231 l 1
 210 188 154 136 64 44 c 1
 37 64 l 1
 147 243 l 1
 37 416 l 1
239 416 m 1
 266 438 l 1
 309 394 369 339 464 256 c 1
 464 231 l 1
 412 188 356 136 266 44 c 1
 239 64 l 1
 349 243 l 1
 239 416 l 1
EndSplineSet
EndChar

StartChar: ellipsis
Encoding: 8230 8230 120
Width: 1000
Flags: MW
LayerCount: 2
Fore
SplineSet
168 144 m 0
 208 144 245 106 245 65 c 0
 245 24 208 -12 167 -12 c 0
 125 -12 89 23 89 65 c 0
 89 107 126 144 168 144 c 0
501 144 m 0
 541 144 578 106 578 65 c 0
 578 24 541 -12 500 -12 c 0
 458 -12 422 23 422 65 c 0
 422 107 459 144 501 144 c 0
834 144 m 0
 874 144 911 106 911 65 c 0
 911 24 874 -12 832 -12 c 0
 791 -12 755 23 755 65 c 0
 755 107 792 144 834 144 c 0
EndSplineSet
EndChar

StartChar: perthousand
Encoding: 8240 8240 121
Width: 1000
Flags: MW
LayerCount: 2
Fore
SplineSet
181 700 m 0
 270 700 327 635 327 534 c 0
 327 440 268 377 180 377 c 0
 92 377 33 440 33 534 c 0
 33 636 90 700 181 700 c 0
181 671 m 0
 141 671 126 635 126 538 c 0
 126 451 144 406 180 406 c 0
 216 406 234 451 234 539 c 0
 234 633 219 671 181 671 c 0
507 323 m 0
 596 323 653 258 653 157 c 0
 653 63 594 0 506 0 c 0
 418 0 359 63 359 157 c 0
 359 259 416 323 507 323 c 0
507 294 m 0
 467 294 452 258 452 161 c 0
 452 74 470 29 506 29 c 0
 542 29 560 74 560 166 c 0
 560 256 544 294 507 294 c 0
836 323 m 0
 925 323 982 258 982 157 c 0
 982 63 923 0 835 0 c 0
 747 0 688 63 688 157 c 0
 688 259 745 323 836 323 c 0
836 294 m 0
 796 294 781 258 781 162 c 0
 781 74 799 29 835 29 c 0
 871 29 889 74 889 165 c 0
 889 256 873 294 836 294 c 0
170 -9 m 1
 119 -9 l 1
 522 724 l 1
 573 724 l 1
 170 -9 l 1
EndSplineSet
Ligature2: "'frac' Diagonal Fractions lookup 7 subtable" percent zerosuperior
Ligature2: "'frac' Diagonal Fractions lookup 7 subtable" percent zero
EndChar

StartChar: questiondown
Encoding: 191 191 122
Width: 444
Flags: MW
LayerCount: 2
Fore
SplineSet
243 216 m 0
 243 228.79105552 239.105239635 241.789520731 233 254 c 1
 267 268 l 1
 285 245 293 222 293 194 c 0
 293 159 276 126 230 70 c 0
 183 14 167 -16 167 -52 c 0
 167 -100 208 -135 263 -135 c 0
 298 -135 329 -125 335 -112 c 2
 366 -41 l 1
 401 -50 l 1
 379 -117 371 -148 369 -183 c 1
 316 -219 277 -231 219 -231 c 0
 106 -231 33 -170 33 -74 c 0
 33 -18 50 15 104 60 c 2
 181 124 l 2
 222 158 243 189 243 216 c 0
251 471 m 0
 291 471 328 433 328 392 c 0
 328 351 291 315 249 315 c 0
 208 315 172 350 172 391 c 0
 172 434 209 471 251 471 c 0
EndSplineSet
EndChar

StartChar: grave
Encoding: 96 96 123
Width: 333
Flags: MW
LayerCount: 2
Fore
SplineSet
200 506 m 1
 152.70064051 535.367307177 105.097431186 564.430764519 58 594 c 0
 28 612 18 625 18 647 c 0
 18 674 35 691 62 691 c 0
 86 691 104 681 127 654 c 2
 256 506 l 1
 200 506 l 1
EndSplineSet
EndChar

StartChar: acute
Encoding: 180 180 124
Width: 333
Flags: MW
LayerCount: 2
Fore
SplineSet
78 506 m 1
 207 654 l 2
 230 681 248 691 272 691 c 0
 299 691 316 674 316 647 c 0
 316 625.231006927 302.047513288 606.523756644 269 590 c 1
 224.664446659 561.335553341 178.879131972 534.120868028 134 506 c 1
 78 506 l 1
EndSplineSet
EndChar

StartChar: circumflex
Encoding: 710 710 125
Width: 333
Flags: MW
LayerCount: 2
Fore
SplineSet
119 681 m 1
 212 681 l 1
 335 506 l 1
 278 506 l 1
 166 604 l 1
 53 506 l 1
 -2 506 l 1
 119 681 l 1
EndSplineSet
EndChar

StartChar: tilde
Encoding: 732 732 126
Width: 333
Flags: MW
LayerCount: 2
Fore
SplineSet
306 661 m 1
 349 661 l 1
 325 574 289 535 231 535 c 0
 207 535 188 541 147 560 c 0
 108 578 89 584 70 584 c 0
 50 584 34 568 24 536 c 1
 -16 536 l 1
 -8 610 40 661 100 661 c 0
 123 661 142 656 180 637 c 0
 218 619 236 613 255 613 c 0
 279 613 288 622 306 661 c 1
EndSplineSet
EndChar

StartChar: macron
Encoding: 175 175 127
Width: 333
Flags: MW
LayerCount: 2
Fore
SplineSet
332 538 m 1
 1 538 l 1
 1 609 l 1
 332 609 l 1
 332 538 l 1
EndSplineSet
EndChar

StartChar: breve
Encoding: 728 728 128
Width: 333
Flags: MW
LayerCount: 2
Fore
SplineSet
15 669 m 1
 59 669 l 1
 70 610 103 582 163 582 c 0
 201 582 230 594 250 618 c 0
 264 633 274 654 274 667 c 2
 274 669 l 1
 318 669 l 1
 314 621 308 597 292 570 c 0
 265 528 223 506 167 506 c 0
 106 506 59 532 34 580 c 0
 21 606 17 626 15 669 c 1
EndSplineSet
EndChar

StartChar: dotaccent
Encoding: 729 729 129
Width: 333
Flags: MW
LayerCount: 2
Fore
SplineSet
168 671 m 0
 204 671 234 640 234 604 c 0
 234 567 204 537 167 537 c 0
 130 537 100 567 100 605 c 0
 100 641 130 671 168 671 c 0
EndSplineSet
EndChar

StartChar: dieresis
Encoding: 168 168 130
Width: 333
Flags: MW
LayerCount: 2
Fore
SplineSet
275 671 m 0
 311 671 341 640 341 604 c 0
 341 567 311 537 274 537 c 0
 237 537 207 567 207 605 c 0
 207 641 237 671 275 671 c 0
60 671 m 0
 96 671 126 640 126 604 c 0
 126 567 96 537 59 537 c 0
 22 537 -8 567 -8 604 c 0
 -8 641 22 671 60 671 c 0
EndSplineSet
EndChar

StartChar: ring
Encoding: 730 730 131
Width: 333
Flags: MW
LayerCount: 2
Fore
SplineSet
169 700 m 0
 222 700 267 654 267 600 c 0
 267 545 222 500 167 500 c 0
 111 500 67 545 67 601 c 0
 67 656 112 700 169 700 c 0
168 650 m 0
 139 650 117 628 117 600 c 0
 117 572 139 550 167 550 c 0
 195 550 217 572 217 600 c 0
 217 627 195 650 168 650 c 0
EndSplineSet
EndChar

StartChar: cedilla
Encoding: 184 184 132
Width: 333
Flags: MW
LayerCount: 2
Fore
SplineSet
122 -103 m 1
 165 -7 l 1
 206 -7 l 1
 178 -71 l 1
 197 -66 209 -65 223 -65 c 0
 270 -65 300 -93 300 -138 c 0
 300 -191 249 -225 167 -225 c 0
 138 -225 107 -219 73 -207 c 1
 89 -170 l 1
 123 -177 137 -179 156 -179 c 0
 189 -179 206 -166 206 -142 c 0
 206 -120 192 -107 168 -107 c 0
 160 -107 154 -108 132 -111 c 1
 122 -103 l 1
EndSplineSet
EndChar

StartChar: hungarumlaut
Encoding: 733 733 133
Width: 333
Flags: MW
LayerCount: 2
Fore
SplineSet
152 506 m 1
 280 654 l 2
 305 683 318 691 343 691 c 0
 371 691 390 673 390 645 c 0
 390 627 384 615 371 607 c 2
 206 506 l 1
 152 506 l 1
-56 506 m 1
 72 654 l 2
 97 683 111 691 135 691 c 0
 163 691 182 673 182 645 c 0
 182 627 176 615 163 607 c 2
 -2 506 l 1
 -56 506 l 1
EndSplineSet
EndChar

StartChar: ogonek
Encoding: 731 731 134
Width: 333
Flags: MW
LayerCount: 2
Fore
SplineSet
268 -172 m 1
 274 -198 l 1
 244 -219 208 -229 162 -229 c 0
 97 -229 60 -192 60 -127 c 0
 60 -64 89 -25 154 0 c 1
 192 0 l 1
 153 -42 136 -77 136 -115 c 0
 136 -159 161 -187 200 -187 c 0
 222 -187 238 -183 268 -172 c 1
EndSplineSet
EndChar

StartChar: caron
Encoding: 711 711 135
Width: 333
Flags: MW
LayerCount: 2
Fore
SplineSet
212 510 m 1
 119 510 l 1
 -2 685 l 1
 53 685 l 1
 166 587 l 1
 278 685 l 1
 335 685 l 1
 212 510 l 1
EndSplineSet
EndChar

StartChar: emdash
Encoding: 8212 8212 136
Width: 1000
Flags: MW
LayerCount: 2
Fore
SplineSet
1000 208 m 1
 0 208 l 1
 0 291 l 1
 1000 291 l 1
 1000 208 l 1
EndSplineSet
EndChar

StartChar: AE
Encoding: 198 198 137
Width: 1000
Flags: MW
LayerCount: 2
Fore
SplineSet
797 -4 m 0
 742.410634594 -4 635.196002804 0 571 0 c 0
 544 0 517 -1 449 -3 c 1
 449 20 l 1
 481 38 l 2
 496 47 500 59 501 95 c 1
 501 214 l 1
 241 214 l 1
 179 107 l 2
 164 81 160 70 160 52 c 1
 166 43 176 37 184 37 c 2
 238 34 l 1
 238 -3 l 1
 169 -1 141 0 120 0 c 0
 98 0 74 -1 12 -3 c 1
 12 34 l 1
 50 37 l 2
 65 39 79 54 104 94 c 1
 394 584 l 2
 406 605 411 616 411 624 c 0
 411 632 393 640 368 641 c 2
 316 644 l 1
 316 681 l 1
 462 679 532 678 591 678 c 0
 612.163182039 678 800.428772475 682 841 682 c 0
 883 682 900 681 937 678 c 1
 943 671 l 1
 929 529 l 1
 893 529 l 1
 885 604 l 2
 884 615 841 624 786 624 c 0
 727 624 695 623 642 620 c 1
 642 380 l 1
 661 378 672 378 709 378 c 2
 775 378 l 2
 818 378 829 382 832 399 c 1
 838 456 l 1
 878 456 l 1
 875 377 875 354 875 349 c 2
 878 241 l 1
 838 241 l 1
 832 291 l 2
 828 318 814 327 775 328 c 1
 709 328 l 2
 686 328 667 327 642 325 c 1
 642 58 l 1
 693 56 732 55 773 55 c 0
 830 55 856 58 889 69 c 0
 891 70 892 71 892 72 c 2
 915 166 l 1
 954 166 l 1
 943 8 l 1
 938 0 l 1
 881 -3 852 -4 797 -4 c 0
271 267 m 1
 501 267 l 1
 501 606 l 1
 494 623 l 1
 487 623 l 1
 271 267 l 1
EndSplineSet
EndChar

StartChar: ordfeminine
Encoding: 170 170 138
Width: 438
Flags: MW
LayerCount: 2
Fore
SplineSet
245 418 m 1
 185 374 l 2
 179 370 168 367 154 367 c 0
 103 367 77 393 77 442 c 0
 77 479 93 501 131 516 c 0
 146 522 172 529 188 532 c 2
 245 542 l 1
 244 563 242 573 235 585 c 0
 226.30446323 600.458732035 202.673151702 614.050492226 184.849921719 614.050492226 c 0
 184.225863847 614.050492226 183.60892646 614.033829248 183 614 c 0
 182 614 180 614 177 613 c 2
 141 605 l 1
 127 575 l 1
 105 579 l 1
 105 618 l 1
 182 655 l 2
 189 658 200 660 215 660 c 0
 285 660 324 628 324 572 c 2
 324 424 l 2
 324 407 329 402 342 400 c 2
 361 398 l 1
 361 376 l 1
 332 376 l 1
 317 377 307 377 304 377 c 2
 278 377 l 1
 271 376 260 376 245 376 c 1
 242 380 l 1
 245 418 l 1
245 446 m 1
 245 517 l 1
 216 510 l 2
 170 499 156 486 156 457 c 0
 156 434 169 419 189 419 c 0
 209 419 229 429 245 446 c 1
EndSplineSet
EndChar

StartChar: Lslash
Encoding: 321 321 139
Width: 611
Flags: MW
LayerCount: 2
Fore
SplineSet
420 -4 m 0
 365.702542781 -4 258.957926563 0 195 0 c 0
 169 0 141 -1 72 -3 c 1
 72 20 l 1
 104 38 l 2
 119 47 124 61 124 95 c 2
 124 282 l 1
 30 230 l 1
 16 270 l 1
 124 330 l 1
 124 543 l 1
 123 634 123 634 76 638 c 2
 39 641 l 1
 39 681 l 1
 158 678 159 678 194 678 c 0
 230 678 230 678 350 681 c 1
 350 641 l 1
 313 638 l 2
 289 636 280 633 274 627 c 0
 267 619 266 603 265 543 c 1
 265 408 l 1
 380 472 l 1
 394 432 l 1
 265 360 l 1
 265 58 l 1
 316 56 355 55 396 55 c 0
 454 55 481 58 512 69 c 0
 514 70 515 71 515 72 c 2
 538 174 l 1
 577 174 l 1
 566 8 l 1
 561 0 l 1
 504 -3 475 -4 420 -4 c 0
EndSplineSet
EndChar

StartChar: Oslash
Encoding: 216 216 140
Width: 833
Flags: MW
LayerCount: 2
Fore
SplineSet
160 62 m 1
 70 -20 l 1
 32 20 l 1
 123 103 l 1
 67 169 47 228 47 326 c 0
 47 561 186 695 428 695 c 0
 477 695 521 689 564 677 c 0
 614 663 638 651 682 617 c 1
 771 698 l 1
 808 659 l 1
 719 577 l 1
 770 504 787 448 787 354 c 0
 787 236 756 148 692 84 c 0
 625 17 528 -17 405 -17 c 0
 352 -17 305 -10 259 4 c 0
 215 18 195 30 160 62 c 1
222 192 m 1
 592 534 l 1
 548 611 503 639 423 639 c 0
 272 639 197 542 197 348 c 0
 197 281 205 233 222 192 c 1
615 481 m 1
 242 138 l 1
 293 65 337 39 410 39 c 0
 563 39 637 135 637 332 c 0
 637 398 630 444 615 481 c 1
EndSplineSet
EndChar

StartChar: OE
Encoding: 338 338 141
Width: 1000
Flags: MW
LayerCount: 2
Fore
SplineSet
43 344 m 0
 43 577.438579321 174.540833148 695 409 695 c 0
 438 695 460 693 516 686 c 0
 566 679 585 678 632 678 c 0
 670 678 685 678 819 681 c 0
 837 682 858 682 876 682 c 0
 914 682 932 681 968 678 c 1
 974 671 l 1
 960 529 l 1
 924 529 l 1
 916 604 l 2
 915 615 872 624 817 624 c 0
 758 624 726 623 673 620 c 1
 673 380 l 1
 692 378 703 378 740 378 c 2
 806 378 l 2
 849 378 860 382 863 399 c 1
 869 456 l 1
 909 456 l 1
 906 377 906 354 906 349 c 2
 909 241 l 1
 869 241 l 1
 863 291 l 2
 859 318 845 327 806 328 c 1
 740 328 l 2
 717 328 698 327 673 325 c 1
 673 58 l 1
 724 56 763 55 804 55 c 0
 861 55 887 58 920 69 c 0
 922 70 923 71 923 72 c 2
 946 166 l 1
 985 166 l 1
 974 8 l 1
 969 0 l 1
 912 -3 883 -4 828 -4 c 0
 772.135022776 -4 665.760701809 0 601 0 c 0
 550 0 529 -2 481 -9 c 0
 441 -15 421 -17 395 -17 c 0
 175 -17 43 118 43 344 c 0
532 75 m 1
 532 594 l 1
 481 629 451 639 403 639 c 0
 264 639 193 544 193 357 c 0
 193 155 274 39 414 39 c 0
 462 39 491 48 532 75 c 1
EndSplineSet
EndChar

StartChar: ordmasculine
Encoding: 186 186 142
Width: 488
Flags: MW
LayerCount: 2
Fore
SplineSet
250 660 m 0
 347 660 399 610 399 517 c 0
 399 422 339 367 236 367 c 0
 141 367 89 419 89 514 c 0
 89 608 147 660 250 660 c 0
241 631 m 0
 197 631 177 599 177 528 c 0
 177 440 201 396 248 396 c 0
 292 396 311 427 311 500 c 0
 311 589 288 631 241 631 c 0
EndSplineSet
EndChar

StartChar: ae
Encoding: 230 230 143
Width: 778
Flags: MW
LayerCount: 2
Fore
SplineSet
731 295 m 2
 731 243 l 1
 682 230 631 223 573 223 c 2
 442 223 l 1
 444 176 450 153 466 125 c 0
 491 82 540 54 591 54 c 0
 632 54 662 63 709 89 c 1
 721 74 l 1
 699 26 l 1
 634 -7 599 -17 539 -17 c 0
 448 -17 390 11 344 78 c 1
 230 -4 l 2
 221 -10 189 -17 167 -17 c 0
 97 -17 46 35 46 107 c 0
 46 143 57 176 75 197 c 0
 96 219 152 241 231 257 c 2
 319 275 l 1
 317 319 312 339 297 361 c 0
 279 386 249 400 212 400 c 0
 185 400 166 394 140 376 c 1
 124 334 l 1
 92 338 l 1
 92 405 l 1
 145 437 l 2
 183 460 222 471 267 471 c 0
 330 471 362 459 405 419 c 1
 450 456 491 471 547 471 c 0
 658 471 731 401 731 295 c 2
520 273 m 1
 604 276 l 1
 602 375 578 415 521 415 c 0
 463 415 439 375 436 276 c 1
 454 275 463 275 468 275 c 0
 490 274 507 273 516 273 c 2
 520 273 l 1
319 115 m 1
 319 229 l 1
 264 216 l 2
 201 201 172 174 172 128 c 0
 172 91 193 70 230 70 c 0
 263 70 299 88 319 115 c 1
EndSplineSet
EndChar

StartChar: dotlessi
Encoding: 305 305 144
Width: 333
Flags: MW
LayerCount: 2
Fore
SplineSet
34 34 m 1
 69 36 l 1
 102 39 105 45 105 100 c 2
 105 319 l 2
 105 380 102 387 79 389 c 2
 34 392 l 1
 34 428 l 1
 41 429 47 430 49 430 c 0
 89 435 113 439 147 449 c 2
 217 471 l 1
 227 465 l 1
 227 100 l 2
 227 45 230 39 263 36 c 1
 298 34 l 1
 298 -3 l 1
 231 -1 183 0 163 0 c 2
 34 -3 l 1
 34 34 l 1
EndSplineSet
EndChar

StartChar: lslash
Encoding: 322 322 145
Width: 333
Flags: MW
LayerCount: 2
Fore
SplineSet
225 714 m 1
 225 446 l 1
 320 508 l 1
 334 474 l 1
 225 403 l 1
 225 100 l 2
 225 45 228 39 261 36 c 1
 296 34 l 1
 296 -3 l 1
 229 -1 181 0 161 0 c 2
 32 -3 l 1
 32 34 l 1
 67 36 l 1
 100 39 103 45 103 100 c 2
 103 324 l 1
 10 264 l 1
 -4 298 l 1
 103 367 l 1
 103 568 l 2
 103 629 100 636 77 638 c 2
 24 641 l 1
 24 677 l 1
 82 683 116 689 145 698 c 2
 217 720 l 1
 225 714 l 1
EndSplineSet
EndChar

StartChar: oslash
Encoding: 248 248 146
Width: 556
Flags: MW
LayerCount: 2
Fore
SplineSet
510 468 m 1
 534 446 l 1
 474 390 l 1
 507 343 517 307 517 244 c 0
 517 74 430 -17 267 -17 c 0
 202 -17 160 -2 107 40 c 1
 46 -18 l 1
 23 5 l 1
 86 64 l 1
 55 104 40 156 40 224 c 0
 40 383 127 471 286 471 c 0
 360 471 410 454 454 414 c 1
 510 468 l 1
184 158 m 1
 368 333 l 1
 348 398 323 423 276 423 c 0
 208 423 176 370 176 258 c 0
 176 224 178 200 184 158 c 1
374 294 m 1
 190 119 l 1
 214 56 241 31 286 31 c 0
 353 31 381 83 381 207 c 0
 381 249 379 269 374 294 c 1
EndSplineSet
EndChar

StartChar: oe
Encoding: 339 339 147
Width: 833
Flags: MW
LayerCount: 2
Fore
SplineSet
799 295 m 2
 799 243 l 1
 750 230 699 223 641 223 c 2
 510 223 l 1
 512 176 518 153 534 125 c 0
 559 82 608 54 660 54 c 0
 700 54 730 63 777 89 c 1
 789 74 l 1
 767 26 l 1
 703 -7 667 -17 611 -17 c 0
 539 -17 491 2 448 47 c 1
 397 1 347 -17 272 -17 c 0
 130 -17 48 71 48 225 c 0
 48 384 135 471 296 471 c 0
 368 471 412 456 462 414 c 1
 518 455 560 471 616 471 c 0
 726 471 799 400 799 295 c 2
588 273 m 1
 672 276 l 1
 670 375 646 415 589 415 c 0
 531 415 507 375 504 276 c 1
 520 275 531 275 536 275 c 0
 558 274 575 273 584 273 c 2
 588 273 l 1
283 423 m 0
 214 423 184 370 184 248 c 0
 184 104 221 31 293 31 c 0
 361 31 389 82 389 204 c 0
 389 353 355 423 283 423 c 0
EndSplineSet
EndChar

StartChar: germandbls
Encoding: 223 223 148
Width: 611
Flags: MW
LayerCount: 2
Fore
SplineSet
30 34 m 1
 69 36 l 1
 101 39 105 45 105 100 c 2
 105 368 l 1
 34 368 l 1
 34 391 l 1
 103 436 l 1
 103 509 l 2
 103 546 123 579 174 625 c 0
 249 693 305 720 371 720 c 0
 462 720 521 664 521 578 c 0
 521 542 517 517 497 431 c 2
 491 405 l 1
 478 396 l 1
 461 409 445 415 424 415 c 0
 394 415 375 400 375 376 c 0
 375 351.122691279 393.921042142 332.039478929 432 313 c 1
 511 267 l 2
 550 244 565 217 565 166 c 0
 565 124 551 96 513 60 c 2
 468 18 l 2
 453 4 450 2 440 -2 c 0
 418 -11 384 -17 362 -17 c 0
 341 -17 316 -10 289 4 c 1
 289 -3 l 1
 223 -1 196 0 170 0 c 0
 146 0 108 -1 30 -3 c 1
 30 34 l 1
330 118 m 1
 334 64 l 1
 361 46 377 40 398 40 c 0
 436 40 465 66 465 100 c 0
 465 133 449 150 382 191 c 0
 306 237 288 260 288 310 c 0
 288 360 319 406 380 448 c 0
 400 462 415 466 441 466 c 1
 448 515 448 518 448 532 c 0
 448 604 402 653 336 653 c 0
 297 653 260 635 244 606 c 0
 232 587 227 551 227 493 c 2
 227 99 l 2
 227 52 233 40 259 37 c 2
 288 34 l 1
 297 112 l 1
 330 118 l 1
EndSplineSet
EndChar

StartChar: onesuperior
Encoding: 185 185 149
Width: 300
Flags: MW
LayerCount: 2
Fore
SplineSet
18 597 m 0
 18 599 18 601 18 603 c 1
 59 612 126 634 189 659 c 1
 201 664 l 1
 211 655 l 1
 207 592 205 553 205 504 c 2
 205 314 l 2
 205 298 215 291 236 290 c 2
 276 288 l 1
 276 259 l 1
 240 260 229 260 208 260 c 0
 187 261 177 261 168 261 c 2
 129 260 l 1
 70 260 l 1
 42 259 l 1
 42 288 l 1
 88 290 l 2
 110 291 119 298 119 314 c 2
 119 575 l 2
 119 584 119 590 118 593 c 0
 118 594 117 595 116 595 c 2
 115 594 l 1
 28 554 l 1
 20 571 18 580 18 597 c 0
EndSplineSet
EndChar

StartChar: logicalnot
Encoding: 172 172 150
Width: 606
Flags: MW
LayerCount: 2
Fore
SplineSet
51 415 m 1
 555 415 l 1
 555 122 l 1
 475 122 l 1
 475 335 l 1
 51 335 l 1
 51 415 l 1
EndSplineSet
EndChar

StartChar: mu
Encoding: 181 181 151
Width: 611
Flags: MW
LayerCount: 2
Fore
SplineSet
514 465 m 1
 514 100 l 2
 514 45 517 39 550 36 c 2
 583 34 l 1
 583 -3 l 1
 563 -2 542 -2 536 -2 c 0
 508 -1 490 0 481 0 c 0
 467 0 445 -1 387 -3 c 1
 392 80 l 1
 307 -5 l 2
 299 -13 282 -17 255 -17 c 0
 218 -17 196 -11 170 6 c 1
 180 -60 186 -116 186 -145 c 0
 186 -188 149 -221 96 -225 c 1
 96 319 l 2
 96 380 93 387 70 389 c 2
 25 392 l 1
 25 428 l 1
 88 436 106 439 138 449 c 2
 208 471 l 1
 218 465 l 1
 218 204 l 2
 218 108 239 73 296 73 c 0
 349 73 392 113 392 163 c 2
 392 319 l 2
 392 380 389 387 366 389 c 2
 321 392 l 1
 321 428 l 1
 379 435 403 439 434 449 c 2
 504 471 l 1
 514 465 l 1
EndSplineSet
EndChar

StartChar: trademark
Encoding: 8482 8482 152
Width: 998
Flags: MW
LayerCount: 2
Fore
SplineSet
961 654 m 1
 942 654 l 2
 916.777016707 653.099179168 911.840987693 650.575401994 911.840987693 626.691764565 c 0
 911.840987693 624.062208045 911.900820832 621.17373338 912 618 c 2
 912 349 l 1
 913 306 916 303 961 300 c 1
 961 274 l 1
 788 274 l 1
 788 300 l 1
 834 301 838 305 839 348 c 1
 839 631 l 1
 694 274 l 1
 684 274 l 1
 533 631 l 1
 533 332 l 1
 534 305 541 301 583 300 c 1
 583 274 l 1
 452 274 l 1
 452 300 l 1
 495 301 501 305 502 334 c 1
 502 622 l 2
 502.117963123 625.420930556 502.19418035 628.466148058 502.19418035 631.178331299 c 0
 502.19418035 651.457937192 497.932958812 653.117963123 475 654 c 2
 460 654 l 1
 460 678 l 1
 592 678 l 1
 710 399 l 1
 828 678 l 1
 961 678 l 1
 961 654 l 1
318 274 m 1
 121 274 l 1
 121 300 l 1
 165 300 185 314 185 345 c 2
 185 646 l 1
 141 646 l 1
 85 645 70 630 68 576 c 1
 38 576 l 1
 38 678 l 1
 405 678 l 1
 405 576 l 1
 375 576 l 1
 373 631 358 645 302 646 c 1
 258 646 l 1
 258 336 l 2
 258 311 275 301 318 300 c 1
 318 274 l 1
EndSplineSet
EndChar

StartChar: Eth
Encoding: 208 208 153
Width: 833
Flags: MW
LayerCount: 2
Fore
SplineSet
379 -3 m 0
 336.650099561 -3 265.3531035 0 224 0 c 0
 195 0 155 -1 68 -3 c 1
 68 20 l 1
 100 38 l 2
 115 47 119 59 120 95 c 1
 120 338 l 1
 10 338 l 1
 10 380 l 1
 120 380 l 1
 120 543 l 1
 119 633 118 637 72 641 c 2
 35 644 l 1
 35 681 l 1
 183 678 183 678 196 678 c 0
 203 678 203 678 301 679 c 2
 437 681 l 1
 567 681 651 655 709 598 c 0
 759 549 786 471 786 376 c 0
 786 268 751 180 683 113 c 0
 607 39 498 -3 379 -3 c 0
261 380 m 1
 412 380 l 1
 412 338 l 1
 261 338 l 1
 261 57 l 1
 286 53 302 52 329 52 c 0
 442 52 513 74 563 123 c 0
 612 171 636 246 636 348 c 0
 636 481.540807319 597.687861821 557.15606909 514 599 c 0
 472 618 393 631 323 631 c 0
 299 631 284 630 261 627 c 1
 261 380 l 1
EndSplineSet
EndChar

StartChar: onehalf
Encoding: 189 189 154
Width: 750
Flags: MW
LayerCount: 2
Fore
SplineSet
224 0 m 1
 155 0 l 1
 558 660 l 1
 627 660 l 1
 224 0 l 1
215 660 m 1
 211.935419383 626.289613214 208 596.970473911 208 570 c 2
 208 338 l 2
 208 310 221 295 245 293 c 2
 282 291 l 1
 282 261 l 1
 220 262 183 263 166 263 c 0
 157 263 140 263 116 262 c 0
 98 262 70 262 35 261 c 1
 35 291 l 1
 77 293 l 2
 102 295 114 310 115 338 c 1
 115 573 l 2
 115 590 113 596 109 596 c 0
 108 596 106 596 105 595 c 2
 18 556 l 1
 11 580 9 590 9 599 c 2
 9 604 l 1
 62 617 91 626 207 665 c 1
 215 660 l 1
455 -2 m 1
 455 35 l 1
 563 136 l 2
 610 180 633 222 633 264 c 0
 633 304 606 329 564 329 c 0
 532 329 517 318 508 288 c 2
 498 255 l 1
 470 259 l 1
 482 360 l 1
 521 387 549 397 586 397 c 0
 667 397 725 353 725 292 c 0
 725 251 701 205 658 165 c 2
 562 75 l 1
 562 67 l 1
 740 76 l 1
 745 71 l 1
 743 54 743 47 743 32 c 0
 743 19 743 12 745 -2 c 1
 633 0 l 2
 616.333333333 -0 599.666666667 0 583 0 c 2
 494 -1 l 1
 455 -2 l 1
EndSplineSet
Ligature2: "'frac' Diagonal Fractions lookup 8 subtable" onesuperior fraction twosuperior
Ligature2: "'frac' Diagonal Fractions lookup 8 subtable" onesuperior slash twosuperior
Ligature2: "'frac' Diagonal Fractions lookup 8 subtable" one fraction two
Ligature2: "'frac' Diagonal Fractions lookup 8 subtable" one slash two
EndChar

StartChar: plusminus
Encoding: 177 177 155
Width: 606
Flags: MW
LayerCount: 2
Fore
SplineSet
260 358 m 1
 260 568 l 1
 346 568 l 1
 346 358 l 1
 555 358 l 1
 555 272 l 1
 346 272 l 1
 346 125 l 1
 260 125 l 1
 260 272 l 1
 51 272 l 1
 51 358 l 1
 260 358 l 1
51 0 m 1
 51 86 l 1
 555 86 l 1
 555 0 l 1
 51 0 l 1
EndSplineSet
EndChar

StartChar: Thorn
Encoding: 222 222 156
Width: 611
Flags: MW
LayerCount: 2
Fore
SplineSet
265 487 m 1
 265 135 l 2
 264.901394561 126.322721388 264.83195822 118.471900543 264.83195822 111.365085491 c 0
 264.83195822 46.3986443348 270.634455622 43.6055782449 313 40 c 2
 360 37 l 1
 360 -3 l 1
 267 -1 228 0 195 0 c 0
 159 0 124 -1 39 -3 c 1
 39 37 l 1
 76 40 l 2
 100 42 109 45 115 51 c 0
 122 58 123 74 124 135 c 1
 124 543 l 1
 123 633 122 637 76 641 c 2
 39 644 l 1
 39 681 l 1
 158 678 159 678 194 678 c 0
 230 678 230 678 350 681 c 1
 350 644 l 1
 313 641 l 2
 271 637 266 630 265 572 c 0
 265 564.333333333 265 556.666666667 265 549 c 1
 284 547 297 546 314 546 c 0
 321.666666667 546 329.333333333 546 337 546 c 0
 512 546 574 507 574 397 c 0
 574 278 484 184 372 184 c 0
 358 184 344 185 325 189 c 0
 322 189 318 190 311 191 c 1
 294 226 l 1
 304 236 l 1
 319 231 334 229 354 229 c 0
 405 229 430 269 430 352 c 0
 430 404 420 447 402 470 c 0
 387 489 369 496 335 496 c 0
 303 496 280 493 265 487 c 1
EndSplineSet
EndChar

StartChar: onequarter
Encoding: 188 188 157
Width: 750
Flags: MW
LayerCount: 2
Fore
SplineSet
440 99 m 1
 436 122 l 1
 445.887255476 145.070262776 459.884837736 178.437861322 467 190 c 2
 545 319 l 2
 559 342 574 362 595 387 c 1
 671 403 l 1
 679 396 l 1
 679 152 l 1
 733 152 l 1
 733 99 l 1
 679 99 l 1
 679 75 l 2
 679 47 691 33 716 30 c 2
 735 28 l 1
 735 -2 l 1
 680 -1 654 0 637 0 c 0
 622 0 584 -1 520 -2 c 1
 520 28 l 1
 558 30 l 2
 582 32 595 47 595 75 c 2
 595 99 l 1
 440 99 l 1
489 152 m 1
 595 152 l 1
 595 331 l 1
 489 152 l 1
225 660 m 1
 221.935419383 626.289613214 218 596.970473911 218 570 c 2
 218 338 l 1
 219 310 231 295 255 293 c 2
 292 291 l 1
 292 261 l 1
 230 262 193 263 176 263 c 0
 167 263 150 263 126 262 c 2
 45 261 l 1
 45 291 l 1
 87 293 l 2
 112 295 124 310 125 338 c 1
 125 573 l 2
 125 590 123 596 119 596 c 0
 118 596 115 595 113 594 c 2
 28 556 l 1
 21 579 19 591 19 604 c 1
 72 617 101 627 217 665 c 1
 225 660 l 1
257 0 m 1
 188 0 l 1
 591 660 l 1
 660 660 l 1
 257 0 l 1
EndSplineSet
Ligature2: "'frac' Diagonal Fractions lookup 9 subtable" onesuperior fraction foursuperior
Ligature2: "'frac' Diagonal Fractions lookup 9 subtable" onesuperior slash foursuperior
Ligature2: "'frac' Diagonal Fractions lookup 9 subtable" one fraction four
Ligature2: "'frac' Diagonal Fractions lookup 9 subtable" one slash four
EndChar

StartChar: divide
Encoding: 247 247 158
Width: 606
Flags: MW
LayerCount: 2
Fore
SplineSet
51 212 m 1
 51 298 l 1
 555 298 l 1
 555 212 l 1
 51 212 l 1
303 510 m 0
 340 510 370 480 370 442 c 0
 370 405 340 376 302 376 c 0
 266 376 236 406 236 443 c 0
 236 480 266 510 303 510 c 0
303 134 m 0
 340 134 370 104 370 66 c 0
 370 29 340 0 302 0 c 0
 266 0 236 30 236 67 c 0
 236 104 266 134 303 134 c 0
EndSplineSet
EndChar

StartChar: brokenbar
Encoding: 166 166 159
Width: 606
Flags: MW
LayerCount: 2
Fore
SplineSet
260 720 m 1
 346 720 l 1
 346 432 l 1
 260 432 l 1
 260 720 l 1
260 0 m 1
 260 288 l 1
 346 288 l 1
 346 0 l 1
 260 0 l 1
EndSplineSet
EndChar

StartChar: degree
Encoding: 176 176 160
Width: 400
Flags: MW
LayerCount: 2
Fore
SplineSet
202 660 m 0
 282 660 350 591 350 510 c 0
 350 427 283 360 200 360 c 0
 117 360 50 427 50 510 c 0
 50 594 116 660 202 660 c 0
200 599 m 0
 150 599 111 560 111 510 c 0
 111 461 150 421 200 421 c 0
 249 421 289 461 289 510 c 0
 289 558 248 599 200 599 c 0
EndSplineSet
EndChar

StartChar: thorn
Encoding: 254 254 161
Width: 611
Flags: MW
LayerCount: 2
Fore
SplineSet
25 -221 m 1
 60 -219 l 1
 93 -216 96 -210 96 -155 c 2
 96 568 l 2
 96 629 93 636 70 638 c 2
 17 641 l 1
 17 677 l 1
 75 683 109 689 138 698 c 2
 210 720 l 1
 218 714 l 1
 218 383 l 1
 279 432 l 2
 314 460 342 471 382 471 c 0
 486 471 563 393 563 286 c 0
 563 186.934912947 517.769891588 104.179927725 444 55 c 1
 376 1 341 -17 307 -17 c 0
 283 -17 267 -14 218 0 c 1
 218 -155 l 2
 218 -210 222 -217 254 -219 c 2
 299 -221 l 1
 299 -258 l 1
 178 -255 178 -255 167 -255 c 2
 154 -255 l 1
 25 -258 l 1
 25 -221 l 1
218 331 m 1
 218 106 l 1
 245 68 277 51 319 51 c 0
 392 51 437 116 437 221 c 0
 437 321 391 381 314 381 c 0
 273 381 239 364 218 331 c 1
EndSplineSet
EndChar

StartChar: threequarters
Encoding: 190 190 162
Width: 750
Flags: MW
LayerCount: 2
Fore
SplineSet
229 0 m 1
 160 0 l 1
 563 660 l 1
 632 660 l 1
 229 0 l 1
15 365 m 1
 37 370 l 1
 62 319 90 298 133 298 c 0
 181 298 217 332 217 376 c 0
 217 420 184 449 136 449 c 0
 123 449 113 448 96 444 c 1
 91 447 l 1
 104 491 l 1
 126 491 l 2
 171 491 200 516 200 554 c 0
 200 587 176 606 135 606 c 0
 96 606 73 588 61 548 c 1
 35 548 l 1
 55 640 l 1
 93 660 119 667 155 667 c 0
 223 667 272 632 272 582 c 0
 272 546 249 518 198 494 c 1
 266 488 298 459 298 405 c 0
 298 325 216 261 111 261 c 0
 79 261 58 265 31 275 c 1
 23 323 21 334 15 365 c 1
440 99 m 1
 436 122 l 1
 444.742501739 145.313337972 459.661311726 177.419391529 467 190 c 2
 545 319 l 2
 559 342 574 362 595 387 c 1
 671 403 l 1
 679 396 l 1
 679 152 l 1
 733 152 l 1
 733 99 l 1
 679 99 l 1
 679 75 l 2
 679 47 691 33 716 30 c 2
 735 28 l 1
 735 -2 l 1
 680 -1 654 0 637 0 c 0
 622 0 584 -1 520 -2 c 1
 520 28 l 1
 558 30 l 2
 582 32 595 47 595 75 c 2
 595 99 l 1
 440 99 l 1
489 152 m 1
 595 152 l 1
 595 331 l 1
 489 152 l 1
EndSplineSet
Ligature2: "'frac' Diagonal Fractions lookup 11 subtable" threesuperior fraction foursuperior
Ligature2: "'frac' Diagonal Fractions lookup 11 subtable" threesuperior slash foursuperior
Ligature2: "'frac' Diagonal Fractions lookup 11 subtable" three fraction four
Ligature2: "'frac' Diagonal Fractions lookup 11 subtable" three slash four
EndChar

StartChar: twosuperior
Encoding: 178 178 163
Width: 300
Flags: MW
LayerCount: 2
Fore
SplineSet
12 259 m 1
 12 294 l 1
 113 393 l 2
 159 438 182 482 182 526 c 0
 182 564 158 588 120 588 c 0
 96 588 70 574 66 558 c 2
 54 516 l 1
 26 518 l 1
 37 620 l 1
 72 647 100 657 137 657 c 0
 213 657 268 613 268 552 c 0
 268 513 246 469 205 430 c 2
 102 330 l 1
 283 337 l 1
 287 331 l 1
 286 318 285 307 285 294 c 0
 285 283 285 275 287 259 c 1
 248 260 l 1
 159 261 159 261 148 261 c 2
 118 261 l 1
 12 259 l 1
EndSplineSet
EndChar

StartChar: registered
Encoding: 174 174 164
Width: 747
Flags: MW
LayerCount: 2
Fore
SplineSet
324 331 m 1
 324 209 l 2
 324 185 328 181 350 179 c 2
 367 178 l 1
 367 158 l 1
 211 158 l 1
 211 178 l 1
 225 178 l 2
 251 178 254 181 255 205 c 1
 255 490 l 1
 254 517 253 518 227 519 c 1
 212 519 l 1
 212 540 l 1
 364 540 l 2
 420 540 441 538 461 529 c 0
 491 516 513 481 513 445 c 0
 513 392 479 357 412 344 c 1
 448 336 462 321 493 255 c 0
 526 183 531 178 557 178 c 1
 557 158 l 1
 489 158 l 1
 464 160 456 170 430 230 c 0
 426.949627815 237.625930463 415.986527563 260.040417312 414 266 c 0
 388.952029121 323.51756276 382.837965777 331.118460198 347.753167081 331.118460198 c 0
 345.01895164 331.118460198 342.108787118 331.072297375 339 331 c 2
 324 331 l 1
324 356 m 1
 343 355 l 1
 353 355 l 2
 413 355 443 383 443 438 c 0
 443 488.366986985 414.854659269 518.094057433 366.742416327 518.094057433 c 0
 365.182507275 518.094057433 363.601608919 518.062808193 362 518 c 2
 341 517 l 1
 327.685586535 515.224744871 323.825765386 510.297958971 323.825765386 488.232714386 c 0
 323.825765386 485.439284598 323.887627564 482.371173071 324 479 c 2
 324 356 l 1
378 695 m 0
 564 695 720 533 720 339 c 0
 720 142 565 -17 372 -17 c 0
 179 -17 26 142 26 341 c 0
 26 538 182 695 378 695 c 0
377 639 m 0
 289 639 217 607 159 543 c 0
 110 488 82 415 82 342 c 0
 82 173 211 39 372 39 c 0
 533 39 664 174 664 340 c 0
 664 503 534 639 377 639 c 0
EndSplineSet
EndChar

StartChar: minus
Encoding: 8722 8722 165
Width: 606
Flags: MW
LayerCount: 2
Fore
SplineSet
50 217 m 1
 50 291 l 1
 556 291 l 1
 556 217 l 1
 50 217 l 1
EndSplineSet
EndChar

StartChar: eth
Encoding: 240 240 166
Width: 556
Flags: MW
LayerCount: 2
Fore
SplineSet
474 663 m 1
 358 609 l 1
 433 534 464 489 491 415 c 0
 508 367 517 319 517 269 c 0
 517 92 420 -17 263 -17 c 0
 122 -17 40 71 40 223 c 0
 40 378 128 471 275 471 c 0
 296 471 309 469 330 462 c 1
 321 497 303 528 269 568 c 1
 136 506 l 1
 118 544 l 1
 239 600 l 1
 209 630 179 651 144 668 c 1
 184 720 l 1
 254 686 282 670 322 639 c 1
 456 701 l 1
 474 663 l 1
274 423 m 0
 205 423 176 371 176 248 c 0
 176 104 212 31 282 31 c 0
 350 31 381 92 381 225 c 0
 381 360 347 423 274 423 c 0
EndSplineSet
EndChar

StartChar: multiply
Encoding: 215 215 167
Width: 606
Flags: HMW
LayerCount: 2
Fore
SplineSet
241 253 m 1
 73 422 l 1
 134 483 l 1
 302 314 l 1
 471 483 l 1
 532 422 l 1
 363 253 l 1
 534 82 l 1
 473 21 l 1
 302 192 l 1
 133 21 l 1
 72 82 l 1
 241 253 l 1
EndSplineSet
EndChar

StartChar: threesuperior
Encoding: 179 179 168
Width: 300
Flags: MW
LayerCount: 2
Fore
SplineSet
9 359 m 1
 35 366 l 1
 61 311 84 291 125 291 c 0
 168 291 197 322 197 366 c 0
 197 409 169 436 125 436 c 0
 110 436 102 435 87 431 c 1
 80 436 l 1
 92 484 l 1
 116 484 l 2
 156 484 181 507 181 543 c 0
 181 574 159 593 123 593 c 0
 86 593 67 576 55 533 c 1
 27 533 l 1
 47 629 l 1
 85 650 107 657 142 657 c 0
 207 657 254 621 254 571 c 0
 254 536 234 508 194 487 c 1
 248 479 278 447 278 397 c 0
 278 316 200 251 103 251 c 0
 71 251 52 255 25 266 c 1
 16 319 14 331 9 359 c 1
EndSplineSet
EndChar

StartChar: copyright
Encoding: 169 169 169
Width: 747
Flags: MW
LayerCount: 2
Fore
SplineSet
386 535 m 0
 404.979675217 535 424.543132595 530.891373481 449 526 c 1
 451 526 l 1
 480 518 503 512 519 507 c 1
 519 403 l 1
 487 403 l 1
 474 469 443 500 390 500 c 0
 320 500 273 439 273 347 c 0
 273 247 326 176 401 176 c 0
 441 176 480 196 497 226 c 2
 505 240 l 1
 531 229 l 1
 521 208 515 199 503 187 c 0
 471 155 423 137 372 137 c 0
 263 137 188 217 188 333 c 0
 188 453 268 535 386 535 c 0
378 695 m 0
 564 695 720 533 720 339 c 0
 720 142 565 -17 372 -17 c 0
 179 -17 26 142 26 341 c 0
 26 538 182 695 378 695 c 0
377 639 m 0
 289 639 217 607 159 543 c 0
 110 488 82 415 82 342 c 0
 82 173 211 39 372 39 c 0
 533 39 664 174 664 340 c 0
 664 503 534 639 377 639 c 0
EndSplineSet
EndChar

StartChar: Aacute
Encoding: 193 193 170
Width: 778
Flags: MW
LayerCount: 2
Fore
SplineSet
250 -3 m 1
 200.842253392 -1.36140844639 170.246670593 0 137 0 c 0
 135 0 98 -1 24 -3 c 1
 24 34 l 1
 54 37 l 2
 76 39 93 58 110 97 c 2
 291 535 l 1
 307.440954889 571.170100757 325.057295452 625.36570941 348 686 c 1
 419 686 l 1
 678 81 l 2
 691 52 705 41 733 37 c 2
 757 34 l 1
 757 -3 l 1
 667 -1 618 0 599 0 c 0
 579 0 533 -1 447 -3 c 1
 447 34 l 1
 500 37 l 2
 511 38 520 49 520 64 c 0
 520 72 518 82 514 92 c 2
 469 206 l 1
 218 206 l 1
 176 94 l 2
 173 85 171 76 171 69 c 0
 171 52 183 38 200 37 c 2
 250 34 l 1
 250 -3 l 1
342 516 m 1
 242 262 l 1
 446 262 l 1
 342 516 l 1
301 730 m 1
 430 878 l 2
 453 905 471 915 495 915 c 0
 522 915 539 898 539 871 c 0
 539 848.841998505 524.016215646 830.008107823 492 814 c 1
 447.664446659 785.335553341 401.879131972 758.120868028 357 730 c 1
 301 730 l 1
EndSplineSet
EndChar

StartChar: Acircumflex
Encoding: 194 194 171
Width: 778
Flags: MW
LayerCount: 2
Fore
SplineSet
250 -3 m 1
 200.842253392 -1.36140844639 170.246670593 0 137 0 c 0
 135 0 98 -1 24 -3 c 1
 24 34 l 1
 54 37 l 2
 76 39 93 58 110 97 c 2
 291 535 l 1
 307.440954889 571.170100757 325.057295452 625.36570941 348 686 c 1
 419 686 l 1
 678 81 l 2
 691 52 705 41 733 37 c 2
 757 34 l 1
 757 -3 l 1
 667 -1 618 0 599 0 c 0
 579 0 533 -1 447 -3 c 1
 447 34 l 1
 500 37 l 2
 511 38 520 49 520 64 c 0
 520 72 518 82 514 92 c 2
 469 206 l 1
 218 206 l 1
 176 94 l 2
 173 85 171 76 171 69 c 0
 171 52 183 38 200 37 c 2
 250 34 l 1
 250 -3 l 1
342 516 m 1
 242 262 l 1
 446 262 l 1
 342 516 l 1
337 905 m 1
 430 905 l 1
 553 730 l 1
 496 730 l 1
 384 828 l 1
 271 730 l 1
 216 730 l 1
 337 905 l 1
EndSplineSet
EndChar

StartChar: Adieresis
Encoding: 196 196 172
Width: 778
Flags: MW
LayerCount: 2
Fore
SplineSet
250 -3 m 1
 200.842253392 -1.36140844639 170.246670593 0 137 0 c 0
 135 0 98 -1 24 -3 c 1
 24 34 l 1
 54 37 l 2
 76 39 93 58 110 97 c 2
 291 535 l 1
 307.440954889 571.170100757 325.057295452 625.36570941 348 686 c 1
 419 686 l 1
 678 81 l 2
 691 52 705 41 733 37 c 2
 757 34 l 1
 757 -3 l 1
 667 -1 618 0 599 0 c 0
 579 0 533 -1 447 -3 c 1
 447 34 l 1
 500 37 l 2
 511 38 520 49 520 64 c 0
 520 72 518 82 514 92 c 2
 469 206 l 1
 218 206 l 1
 176 94 l 2
 173 85 171 76 171 69 c 0
 171 52 183 38 200 37 c 2
 250 34 l 1
 250 -3 l 1
342 516 m 1
 242 262 l 1
 446 262 l 1
 342 516 l 1
498 895 m 0
 534 895 564 864 564 828 c 0
 564 791 534 761 497 761 c 0
 460 761 430 791 430 828 c 0
 430 865 460 895 498 895 c 0
283 895 m 0
 319 895 349 864 349 828 c 0
 349 791 319 761 282 761 c 0
 245 761 215 791 215 828 c 0
 215 865 245 895 283 895 c 0
EndSplineSet
EndChar

StartChar: Agrave
Encoding: 192 192 173
Width: 778
Flags: MW
LayerCount: 2
Fore
SplineSet
250 -3 m 1
 200.842253392 -1.36140844639 170.246670593 0 137 0 c 0
 135 0 98 -1 24 -3 c 1
 24 34 l 1
 54 37 l 2
 76 39 93 58 110 97 c 2
 291 535 l 1
 307.440954889 571.170100757 325.057295452 625.36570941 348 686 c 1
 419 686 l 1
 678 81 l 2
 691 52 705 41 733 37 c 2
 757 34 l 1
 757 -3 l 1
 667 -1 618 0 599 0 c 0
 579 0 533 -1 447 -3 c 1
 447 34 l 1
 500 37 l 2
 511 38 520 49 520 64 c 0
 520 72 518 82 514 92 c 2
 469 206 l 1
 218 206 l 1
 176 94 l 2
 173 85 171 76 171 69 c 0
 171 52 183 38 200 37 c 2
 250 34 l 1
 250 -3 l 1
342 516 m 1
 242 262 l 1
 446 262 l 1
 342 516 l 1
415 730 m 1
 367.70064051 759.367307177 320.097431186 788.430764519 273 818 c 0
 243 836 233 849 233 871 c 0
 233 898 250 915 277 915 c 0
 301 915 319 905 342 878 c 2
 471 730 l 1
 415 730 l 1
EndSplineSet
EndChar

StartChar: Aring
Encoding: 197 197 174
Width: 778
Flags: MW
LayerCount: 2
Fore
SplineSet
250 -3 m 1
 200.842253392 -1.36140844639 170.246670593 0 137 0 c 0
 135 0 98 -1 24 -3 c 1
 24 34 l 1
 54 37 l 2
 76 39 93 58 110 97 c 2
 291 535 l 1
 307.440954889 571.170100757 325.057295452 625.36570941 348 686 c 1
 419 686 l 1
 678 81 l 2
 691 52 705 41 733 37 c 2
 757 34 l 1
 757 -3 l 1
 667 -1 618 0 599 0 c 0
 579 0 533 -1 447 -3 c 1
 447 34 l 1
 500 37 l 2
 511 38 520 49 520 64 c 0
 520 72 518 82 514 92 c 2
 469 206 l 1
 218 206 l 1
 176 94 l 2
 173 85 171 76 171 69 c 0
 171 52 183 38 200 37 c 2
 250 34 l 1
 250 -3 l 1
342 516 m 1
 242 262 l 1
 446 262 l 1
 342 516 l 1
387 934 m 0
 440 934 485 889 485 835 c 0
 485 780 440 735 385 735 c 0
 330 735 285 780 285 835 c 0
 285 890 330 934 387 934 c 0
386 884 m 0
 357 884 335 863 335 834 c 0
 335 807 357 785 385 785 c 0
 413 785 435 807 435 835 c 0
 435 862 413 884 386 884 c 0
EndSplineSet
EndChar

StartChar: Atilde
Encoding: 195 195 175
Width: 778
Flags: MW
LayerCount: 2
Fore
SplineSet
250 -3 m 1
 200.842253392 -1.36140844639 170.246670593 0 137 0 c 0
 135 0 98 -1 24 -3 c 1
 24 34 l 1
 54 37 l 2
 76 39 93 58 110 97 c 2
 291 535 l 1
 307.440954889 571.170100757 325.057295452 625.36570941 348 686 c 1
 419 686 l 1
 678 81 l 2
 691 52 705 41 733 37 c 2
 757 34 l 1
 757 -3 l 1
 667 -1 618 0 599 0 c 0
 579 0 533 -1 447 -3 c 1
 447 34 l 1
 500 37 l 2
 511 38 520 49 520 64 c 0
 520 72 518 82 514 92 c 2
 469 206 l 1
 218 206 l 1
 176 94 l 2
 173 85 171 76 171 69 c 0
 171 52 183 38 200 37 c 2
 250 34 l 1
 250 -3 l 1
342 516 m 1
 242 262 l 1
 446 262 l 1
 342 516 l 1
529 885 m 1
 572 885 l 1
 548 798 512 759 454 759 c 0
 430 759 412 764 370 784 c 0
 331 802 312 808 293 808 c 0
 273 808 257 792 247 760 c 1
 207 760 l 1
 215 833 263 885 323 885 c 0
 346 885 365 879 403 861 c 0
 441 843 459 837 478 837 c 0
 502 837 511 846 529 885 c 1
EndSplineSet
EndChar

StartChar: Ccedilla
Encoding: 199 199 176
Width: 722
Flags: MW
LayerCount: 2
Fore
SplineSet
397 -15 m 1
 373 -71 l 1
 393 -66 404 -65 419 -65 c 0
 465 -65 495 -93 495 -138 c 0
 495 -191 444 -225 362 -225 c 0
 333 -225 302 -219 268 -207 c 1
 284 -170 l 1
 318 -177 332 -179 351 -179 c 0
 384 -179 401 -166 401 -142 c 0
 401 -120 387 -107 363 -107 c 0
 354 -107 347 -108 327 -111 c 1
 317 -103 l 1
 358 -10 l 1
 294 1 251 15 210 38 c 0
 104 99 44 210 44 347 c 0
 44 561 202 695 455 695 c 0
 542 695 598 684 689 648 c 1
 695 637 l 1
 686 599 683 584 672 484 c 1
 633 484 l 1
 628 570 l 1
 574 620 526 639 450 639 c 0
 291 639 194 533 194 361 c 0
 194 172 309 48 485 48 c 0
 551 48 615 65 680 99 c 1
 692 87 l 1
 670 38 l 1
 596 -2 537 -17 446 -17 c 0
 429 -17 417 -17 397 -15 c 1
EndSplineSet
EndChar

StartChar: Eacute
Encoding: 201 201 177
Width: 611
Flags: MW
LayerCount: 2
Fore
SplineSet
227 678 m 0
 267.089287062 678 417.900661128 682 465 682 c 0
 506 682 524 681 560 678 c 1
 566 671 l 1
 552 529 l 1
 516 529 l 1
 508 604 l 2
 507 615 465 624 411 624 c 0
 350 624 319 623 265 620 c 1
 265 380 l 1
 284 378 295 378 332 378 c 2
 398 378 l 2
 441 378 452 382 455 399 c 1
 461 456 l 1
 501 456 l 1
 499 392 498 357 498 349 c 2
 501 241 l 1
 461 241 l 1
 455 291 l 2
 451 318 437 327 398 328 c 1
 332 328 l 2
 309 328 290 327 265 325 c 1
 265 58 l 1
 316 56 355 55 396 55 c 0
 453 55 479 58 512 69 c 0
 514 70 515 71 515 72 c 2
 538 166 l 1
 577 166 l 1
 566 8 l 1
 561 0 l 1
 504 -3 475 -4 420 -4 c 0
 365.702542781 -4 258.957926563 0 195 0 c 0
 169 0 141 -1 72 -3 c 1
 72 20 l 1
 104 38 l 2
 119 47 124 61 124 95 c 2
 124 543 l 1
 123 633 122 637 76 641 c 2
 39 644 l 1
 39 681 l 1
 139 679 185 678 227 678 c 0
218 730 m 1
 347 878 l 2
 370 905 388 915 412 915 c 0
 439 915 456 898 456 871 c 0
 456 848.518568317 441.878672847 830.439336424 409 814 c 1
 364.664446659 785.335553341 318.879131972 758.120868028 274 730 c 1
 218 730 l 1
EndSplineSet
EndChar

StartChar: Ecircumflex
Encoding: 202 202 178
Width: 611
Flags: MW
LayerCount: 2
Fore
SplineSet
227 678 m 0
 267.089287062 678 417.900661128 682 465 682 c 0
 506 682 524 681 560 678 c 1
 566 671 l 1
 552 529 l 1
 516 529 l 1
 508 604 l 2
 507 615 465 624 411 624 c 0
 350 624 319 623 265 620 c 1
 265 380 l 1
 284 378 295 378 332 378 c 2
 398 378 l 2
 441 378 452 382 455 399 c 1
 461 456 l 1
 501 456 l 1
 499 392 498 357 498 349 c 2
 501 241 l 1
 461 241 l 1
 455 291 l 2
 451 318 437 327 398 328 c 1
 332 328 l 2
 309 328 290 327 265 325 c 1
 265 58 l 1
 316 56 355 55 396 55 c 0
 453 55 479 58 512 69 c 0
 514 70 515 71 515 72 c 2
 538 166 l 1
 577 166 l 1
 566 8 l 1
 561 0 l 1
 504 -3 475 -4 420 -4 c 0
 365.702542781 -4 258.957926563 0 195 0 c 0
 169 0 141 -1 72 -3 c 1
 72 20 l 1
 104 38 l 2
 119 47 124 61 124 95 c 2
 124 543 l 1
 123 633 122 637 76 641 c 2
 39 644 l 1
 39 681 l 1
 139 679 185 678 227 678 c 0
269 905 m 1
 362 905 l 1
 485 730 l 1
 428 730 l 1
 316 828 l 1
 203 730 l 1
 148 730 l 1
 269 905 l 1
EndSplineSet
EndChar

StartChar: Edieresis
Encoding: 203 203 179
Width: 611
Flags: MW
LayerCount: 2
Fore
SplineSet
227 678 m 0
 267.089287062 678 417.900661128 682 465 682 c 0
 506 682 524 681 560 678 c 1
 566 671 l 1
 552 529 l 1
 516 529 l 1
 508 604 l 2
 507 615 465 624 411 624 c 0
 350 624 319 623 265 620 c 1
 265 380 l 1
 284 378 295 378 332 378 c 2
 398 378 l 2
 441 378 452 382 455 399 c 1
 461 456 l 1
 501 456 l 1
 499 392 498 357 498 349 c 2
 501 241 l 1
 461 241 l 1
 455 291 l 2
 451 318 437 327 398 328 c 1
 332 328 l 2
 309 328 290 327 265 325 c 1
 265 58 l 1
 316 56 355 55 396 55 c 0
 453 55 479 58 512 69 c 0
 514 70 515 71 515 72 c 2
 538 166 l 1
 577 166 l 1
 566 8 l 1
 561 0 l 1
 504 -3 475 -4 420 -4 c 0
 365.702542781 -4 258.957926563 0 195 0 c 0
 169 0 141 -1 72 -3 c 1
 72 20 l 1
 104 38 l 2
 119 47 124 61 124 95 c 2
 124 543 l 1
 123 633 122 637 76 641 c 2
 39 644 l 1
 39 681 l 1
 139 679 185 678 227 678 c 0
415 895 m 0
 451 895 481 864 481 828 c 0
 481 791 451 761 414 761 c 0
 377 761 347 791 347 828 c 0
 347 865 377 895 415 895 c 0
200 895 m 0
 236 895 266 864 266 828 c 0
 266 791 236 761 199 761 c 0
 162 761 132 791 132 828 c 0
 132 865 162 895 200 895 c 0
EndSplineSet
EndChar

StartChar: Egrave
Encoding: 200 200 180
Width: 611
Flags: MW
LayerCount: 2
Fore
SplineSet
227 678 m 0
 267.089287062 678 417.900661128 682 465 682 c 0
 506 682 524 681 560 678 c 1
 566 671 l 1
 552 529 l 1
 516 529 l 1
 508 604 l 2
 507 615 465 624 411 624 c 0
 350 624 319 623 265 620 c 1
 265 380 l 1
 284 378 295 378 332 378 c 2
 398 378 l 2
 441 378 452 382 455 399 c 1
 461 456 l 1
 501 456 l 1
 499 392 498 357 498 349 c 2
 501 241 l 1
 461 241 l 1
 455 291 l 2
 451 318 437 327 398 328 c 1
 332 328 l 2
 309 328 290 327 265 325 c 1
 265 58 l 1
 316 56 355 55 396 55 c 0
 453 55 479 58 512 69 c 0
 514 70 515 71 515 72 c 2
 538 166 l 1
 577 166 l 1
 566 8 l 1
 561 0 l 1
 504 -3 475 -4 420 -4 c 0
 365.702542781 -4 258.957926563 0 195 0 c 0
 169 0 141 -1 72 -3 c 1
 72 20 l 1
 104 38 l 2
 119 47 124 61 124 95 c 2
 124 543 l 1
 123 633 122 637 76 641 c 2
 39 644 l 1
 39 681 l 1
 139 679 185 678 227 678 c 0
342 730 m 1
 211 811 l 2
 206 814 203 816 200 818 c 0
 170 836 160 849 160 871 c 0
 160 898 177 915 204 915 c 0
 228 915 246 905 269 878 c 2
 398 730 l 1
 342 730 l 1
EndSplineSet
EndChar

StartChar: Iacute
Encoding: 205 205 181
Width: 389
Flags: MW
LayerCount: 2
Fore
SplineSet
350 641 m 1
 313 638 l 2
 289 636 280 633 274 627 c 0
 267 619 266 603 265 543 c 1
 265 135 l 1
 266 72 267 58 275 50 c 0
 281 44 290 42 313 40 c 2
 350 37 l 1
 350 -3 l 1
 265 -1 230 0 194 0 c 0
 159 0 123 -1 39 -3 c 1
 39 37 l 1
 76 40 l 2
 100 42 109 45 115 51 c 0
 122 58 123 74 124 135 c 1
 124 543 l 1
 123 634 123 634 76 638 c 2
 39 641 l 1
 39 681 l 1
 158 678 159 678 194 678 c 0
 230 678 230 678 350 681 c 1
 350 641 l 1
106 730 m 1
 235 878 l 2
 258 905 276 915 300 915 c 0
 327 915 344 898 344 871 c 0
 344 848.518568317 329.878672847 830.439336424 297 814 c 1
 252.664446659 785.335553341 206.879131972 758.120868028 162 730 c 1
 106 730 l 1
EndSplineSet
EndChar

StartChar: Icircumflex
Encoding: 206 206 182
Width: 389
Flags: MW
LayerCount: 2
Fore
SplineSet
350 641 m 1
 313 638 l 2
 289 636 280 633 274 627 c 0
 267 619 266 603 265 543 c 1
 265 135 l 1
 266 72 267 58 275 50 c 0
 281 44 290 42 313 40 c 2
 350 37 l 1
 350 -3 l 1
 265 -1 230 0 194 0 c 0
 159 0 123 -1 39 -3 c 1
 39 37 l 1
 76 40 l 2
 100 42 109 45 115 51 c 0
 122 58 123 74 124 135 c 1
 124 543 l 1
 123 634 123 634 76 638 c 2
 39 641 l 1
 39 681 l 1
 158 678 159 678 194 678 c 0
 230 678 230 678 350 681 c 1
 350 641 l 1
147 905 m 1
 240 905 l 1
 363 730 l 1
 306 730 l 1
 194 828 l 1
 81 730 l 1
 26 730 l 1
 147 905 l 1
EndSplineSet
EndChar

StartChar: Idieresis
Encoding: 207 207 183
Width: 389
Flags: MW
LayerCount: 2
Fore
SplineSet
350 641 m 1
 313 638 l 2
 289 636 280 633 274 627 c 0
 267 619 266 603 265 543 c 1
 265 135 l 1
 266 72 267 58 275 50 c 0
 281 44 290 42 313 40 c 2
 350 37 l 1
 350 -3 l 1
 265 -1 230 0 194 0 c 0
 159 0 123 -1 39 -3 c 1
 39 37 l 1
 76 40 l 2
 100 42 109 45 115 51 c 0
 122 58 123 74 124 135 c 1
 124 543 l 1
 123 634 123 634 76 638 c 2
 39 641 l 1
 39 681 l 1
 158 678 159 678 194 678 c 0
 230 678 230 678 350 681 c 1
 350 641 l 1
303 895 m 0
 339 895 369 864 369 828 c 0
 369 791 339 761 302 761 c 0
 265 761 235 791 235 828 c 0
 235 865 265 895 303 895 c 0
88 895 m 0
 124 895 154 864 154 828 c 0
 154 791 124 761 87 761 c 0
 50 761 20 791 20 828 c 0
 20 865 50 895 88 895 c 0
EndSplineSet
EndChar

StartChar: Igrave
Encoding: 204 204 184
Width: 389
Flags: MW
LayerCount: 2
Fore
SplineSet
221 730 m 1
 173.70064051 759.367307177 126.097431186 788.430764519 79 818 c 0
 49 836 39 849 39 871 c 0
 39 898 56 915 83 915 c 0
 107 915 125 905 148 878 c 2
 277 730 l 1
 221 730 l 1
350 641 m 1
 313 638 l 2
 289 636 280 633 274 627 c 0
 267 619 266 603 265 543 c 1
 265 135 l 1
 266 72 267 58 275 50 c 0
 281 44 290 42 313 40 c 2
 350 37 l 1
 350 -3 l 1
 265 -1 230 0 194 0 c 0
 159 0 123 -1 39 -3 c 1
 39 37 l 1
 76 40 l 2
 100 42 109 45 115 51 c 0
 122 58 123 74 124 135 c 1
 124 543 l 1
 123 634 123 634 76 638 c 2
 39 641 l 1
 39 681 l 1
 158 678 159 678 194 678 c 0
 230 678 230 678 350 681 c 1
 350 641 l 1
EndSplineSet
EndChar

StartChar: Ntilde
Encoding: 209 209 185
Width: 833
Flags: MW
LayerCount: 2
Fore
SplineSet
35 34 m 1
 72 37 l 2
 118 41 119 45 120 135 c 1
 120 543 l 1
 119 633 118 637 72 641 c 2
 35 644 l 1
 35 681 l 1
 86 679 l 1
 120 678 l 1
 155 678 l 1
 239 681 l 1
 305 594 322 572 342 548 c 2
 654 184 l 1
 654 543 l 1
 653 633 652 637 606 641 c 2
 569 644 l 1
 569 681 l 1
 647 678 672 678 684 678 c 2
 798 681 l 1
 798 644 l 1
 761 641 l 2
 715 637 714 633 713 543 c 1
 713 89 l 2
 713 66 714 46 716 -12 c 1
 709 -16 l 1
 627 -3 l 1
 557 75 532 104 505 136 c 2
 179 528 l 1
 179 135 l 2
 179 45 181 41 227 37 c 2
 264 34 l 1
 264 -3 l 1
 199 -1 174 0 151 0 c 0
 128 0 101 -1 35 -3 c 1
 35 34 l 1
557 885 m 1
 600 885 l 1
 576 798 539 759 482 759 c 0
 458 759 439 764 398 784 c 0
 359 802 340 808 321 808 c 0
 300 808 285 792 275 760 c 1
 235 760 l 1
 243 833 290 885 350 885 c 0
 374 885 392 880 430 861 c 0
 468 843 486 837 506 837 c 0
 529 837 539 846 557 885 c 1
EndSplineSet
EndChar

StartChar: Oacute
Encoding: 211 211 186
Width: 833
Flags: MW
LayerCount: 2
Fore
SplineSet
431 695 m 0
 656 695 787 567 787 346 c 0
 787 118 646 -17 407 -17 c 0
 178 -17 47 110 47 332 c 0
 47 562 188 695 431 695 c 0
421 639 m 0
 358 639 306 620 267 582 c 0
 221 537 197 458 197 355 c 0
 197 240 227 145 282 91 c 0
 318 55 359 39 415 39 c 0
 561 39 637 137 637 325 c 0
 637 439 606 533 551 588 c 0
 516 623 474 639 421 639 c 0
329 730 m 1
 458 878 l 2
 481 905 499 915 523 915 c 0
 550 915 567 898 567 871 c 0
 567 847.396370826 548.182972128 827.591486064 515 811 c 1
 385 730 l 1
 329 730 l 1
EndSplineSet
EndChar

StartChar: Ocircumflex
Encoding: 212 212 187
Width: 833
Flags: MW
LayerCount: 2
Fore
SplineSet
431 695 m 0
 656 695 787 567 787 346 c 0
 787 118 646 -17 407 -17 c 0
 178 -17 47 110 47 332 c 0
 47 562 188 695 431 695 c 0
421 639 m 0
 358 639 306 620 267 582 c 0
 221 537 197 458 197 355 c 0
 197 240 227 145 282 91 c 0
 318 55 359 39 415 39 c 0
 561 39 637 137 637 325 c 0
 637 439 606 533 551 588 c 0
 516 623 474 639 421 639 c 0
358 905 m 1
 451 905 l 1
 574 730 l 1
 517 730 l 1
 405 828 l 1
 292 730 l 1
 237 730 l 1
 358 905 l 1
EndSplineSet
EndChar

StartChar: Odieresis
Encoding: 214 214 188
Width: 833
Flags: MW
LayerCount: 2
Fore
SplineSet
431 695 m 0
 656 695 787 567 787 346 c 0
 787 118 646 -17 407 -17 c 0
 178 -17 47 110 47 332 c 0
 47 562 188 695 431 695 c 0
421 639 m 0
 358 639 306 620 267 582 c 0
 221 537 197 458 197 355 c 0
 197 240 227 145 282 91 c 0
 318 55 359 39 415 39 c 0
 561 39 637 137 637 325 c 0
 637 439 606 533 551 588 c 0
 516 623 474 639 421 639 c 0
522 895 m 0
 558 895 588 864 588 828 c 0
 588 791 558 761 521 761 c 0
 484 761 454 791 454 828 c 0
 454 865 484 895 522 895 c 0
307 895 m 0
 343 895 373 864 373 828 c 0
 373 791 343 761 306 761 c 0
 269 761 239 791 239 828 c 0
 239 865 269 895 307 895 c 0
EndSplineSet
EndChar

StartChar: Ograve
Encoding: 210 210 189
Width: 833
Flags: MW
LayerCount: 2
Fore
SplineSet
431 695 m 0
 656 695 787 567 787 346 c 0
 787 118 646 -17 407 -17 c 0
 178 -17 47 110 47 332 c 0
 47 562 188 695 431 695 c 0
421 639 m 0
 358 639 306 620 267 582 c 0
 221 537 197 458 197 355 c 0
 197 240 227 145 282 91 c 0
 318 55 359 39 415 39 c 0
 561 39 637 137 637 325 c 0
 637 439 606 533 551 588 c 0
 516 623 474 639 421 639 c 0
442 730 m 1
 312 811 l 2
 308 813 304 815 301 818 c 0
 270 836 261 849 261 871 c 0
 261 898 278 915 305 915 c 0
 328 915 346 905 370 878 c 2
 499 730 l 1
 442 730 l 1
EndSplineSet
EndChar

StartChar: Otilde
Encoding: 213 213 190
Width: 833
Flags: MW
LayerCount: 2
Fore
SplineSet
431 695 m 0
 656 695 787 567 787 346 c 0
 787 118 646 -17 407 -17 c 0
 178 -17 47 110 47 332 c 0
 47 562 188 695 431 695 c 0
421 639 m 0
 358 639 306 620 267 582 c 0
 221 537 197 458 197 355 c 0
 197 240 227 145 282 91 c 0
 318 55 359 39 415 39 c 0
 561 39 637 137 637 325 c 0
 637 439 606 533 551 588 c 0
 516 623 474 639 421 639 c 0
557 885 m 1
 600 885 l 1
 576 798 539 759 482 759 c 0
 458 759 439 765 398 784 c 0
 359 802 340 808 321 808 c 0
 300 808 285 792 275 760 c 1
 235 760 l 1
 243 833 290 885 350 885 c 0
 374 885 392 880 431 861 c 0
 468 843 486 837 506 837 c 0
 529 837 539 846 557 885 c 1
EndSplineSet
EndChar

StartChar: Scaron
Encoding: 352 352 191
Width: 611
Flags: MW
LayerCount: 2
Fore
SplineSet
72 202 m 1
 112 202 l 1
 119 114 l 1
 151 67 215 37 283 37 c 0
 369 37 433 92 433 166 c 0
 433 214 406 245 350 262 c 2
 210 304 l 2
 115 332 64 395 64 480 c 0
 64 615 162 695 329 695 c 0
 395 695 447 685 514 661 c 1
 519 649 l 1
 510 620 505 572 505 507 c 1
 464 507 l 1
 458 589 l 1
 420 626 375 644 322 644 c 0
 242 644 188 597 188 527 c 0
 188 476 220 446 294 426 c 2
 408 396 l 2
 507 370 559 309 559 220 c 0
 559 76 444 -17 265 -17 c 0
 189 -17 131 -4 57 29 c 1
 68 86 72 127 72 202 c 1
374 734 m 1
 282 734 l 1
 161 909 l 1
 216 909 l 1
 329 811 l 1
 440 909 l 1
 497 909 l 1
 374 734 l 1
EndSplineSet
EndChar

StartChar: Uacute
Encoding: 218 218 192
Width: 778
Flags: MW
LayerCount: 2
Fore
SplineSet
760 644 m 1
 723 641 l 2
 677 637 675 633 675 543 c 2
 675 251 l 2
 675 70 583 -17 391 -17 c 0
 219 -17 111 58 111 177 c 2
 111 543 l 1
 110 633 109 637 63 641 c 2
 26 644 l 1
 26 681 l 1
 145 678 146 678 181 678 c 0
 217 678 217 678 337 681 c 1
 337 644 l 1
 300 641 l 2
 254 637 252 633 252 543 c 2
 252 295 l 2
 252 192 261 145 287 114 c 0
 314 81 359 65 428 65 c 0
 495 65 541 79 569 108 c 0
 603 143 616 196 616 302 c 2
 616 543 l 1
 615 633 614 637 568 641 c 2
 531 644 l 1
 531 681 l 1
 610 678 634 678 646 678 c 2
 760 681 l 1
 760 644 l 1
327 730 m 1
 456 878 l 2
 480 905 497 915 521 915 c 0
 548 915 565 898 565 871 c 0
 565 848.518568317 550.878672847 830.439336424 518 814 c 1
 473.664446659 785.335553341 427.879131972 758.120868028 383 730 c 1
 327 730 l 1
EndSplineSet
EndChar

StartChar: Ucircumflex
Encoding: 219 219 193
Width: 778
Flags: MW
LayerCount: 2
Fore
SplineSet
760 644 m 1
 723 641 l 2
 677 637 675 633 675 543 c 2
 675 251 l 2
 675 70 583 -17 391 -17 c 0
 219 -17 111 58 111 177 c 2
 111 543 l 1
 110 633 109 637 63 641 c 2
 26 644 l 1
 26 681 l 1
 145 678 146 678 181 678 c 0
 217 678 217 678 337 681 c 1
 337 644 l 1
 300 641 l 2
 254 637 252 633 252 543 c 2
 252 295 l 2
 252 192 261 145 287 114 c 0
 314 81 359 65 428 65 c 0
 495 65 541 79 569 108 c 0
 603 143 616 196 616 302 c 2
 616 543 l 1
 615 633 614 637 568 641 c 2
 531 644 l 1
 531 681 l 1
 610 678 634 678 646 678 c 2
 760 681 l 1
 760 644 l 1
358 905 m 1
 451 905 l 1
 574 730 l 1
 517 730 l 1
 405 828 l 1
 292 730 l 1
 237 730 l 1
 358 905 l 1
EndSplineSet
EndChar

StartChar: Udieresis
Encoding: 220 220 194
Width: 778
Flags: MW
LayerCount: 2
Fore
SplineSet
760 644 m 1
 723 641 l 2
 677 637 675 633 675 543 c 2
 675 251 l 2
 675 70 583 -17 391 -17 c 0
 219 -17 111 58 111 177 c 2
 111 543 l 1
 110 633 109 637 63 641 c 2
 26 644 l 1
 26 681 l 1
 145 678 146 678 181 678 c 0
 217 678 217 678 337 681 c 1
 337 644 l 1
 300 641 l 2
 254 637 252 633 252 543 c 2
 252 295 l 2
 252 192 261 145 287 114 c 0
 314 81 359 65 428 65 c 0
 495 65 541 79 569 108 c 0
 603 143 616 196 616 302 c 2
 616 543 l 1
 615 633 614 637 568 641 c 2
 531 644 l 1
 531 681 l 1
 610 678 634 678 646 678 c 2
 760 681 l 1
 760 644 l 1
521 895 m 0
 557 895 587 864 587 828 c 0
 587 791 557 761 520 761 c 0
 483 761 453 791 453 828 c 0
 453 865 483 895 521 895 c 0
306 895 m 0
 342 895 372 864 372 828 c 0
 372 791 342 761 305 761 c 0
 268 761 238 791 238 828 c 0
 238 865 268 895 306 895 c 0
EndSplineSet
EndChar

StartChar: Ugrave
Encoding: 217 217 195
Width: 778
Flags: MW
LayerCount: 2
Fore
SplineSet
760 644 m 1
 723 641 l 2
 677 637 675 633 675 543 c 2
 675 251 l 2
 675 70 583 -17 391 -17 c 0
 219 -17 111 58 111 177 c 2
 111 543 l 1
 110 633 109 637 63 641 c 2
 26 644 l 1
 26 681 l 1
 145 678 146 678 181 678 c 0
 217 678 217 678 337 681 c 1
 337 644 l 1
 300 641 l 2
 254 637 252 633 252 543 c 2
 252 295 l 2
 252 192 261 145 287 114 c 0
 314 81 359 65 428 65 c 0
 495 65 541 79 569 108 c 0
 603 143 616 196 616 302 c 2
 616 543 l 1
 615 633 614 637 568 641 c 2
 531 644 l 1
 531 681 l 1
 610 678 634 678 646 678 c 2
 760 681 l 1
 760 644 l 1
447 730 m 1
 316 811 l 1
 272 837 265 846 265 871 c 0
 265 898 282 915 309 915 c 0
 332 915 350 905 374 878 c 2
 503 730 l 1
 447 730 l 1
EndSplineSet
EndChar

StartChar: Yacute
Encoding: 221 221 196
Width: 667
Flags: MW
LayerCount: 2
Fore
SplineSet
395 356 m 1
 583 678 l 1
 660 678 l 1
 660 659 l 1
 484 398 l 2
 465 370 449 340 431 298 c 1
 431 135 l 1
 432 72 433 58 441 50 c 0
 447 44 456 42 479 40 c 2
 516 37 l 1
 516 -3 l 1
 431 -1 396 0 360 0 c 0
 325 0 289 -1 205 -3 c 1
 205 37 l 1
 242 40 l 2
 266 42 275 45 281 51 c 0
 288 58 289 74 290 135 c 1
 290 274 l 1
 274 310 262 333 246 359 c 2
 145 522 l 1
 86 607 66 622 15 622 c 1
 15 659 l 1
 174 695 l 1
 220 668 247 635 288 559 c 2
 395 356 l 1
288 730 m 1
 417 878 l 2
 440 905 458 915 482 915 c 0
 509 915 526 898 526 871 c 0
 526 848.129559894 510.847375206 829.923687603 479 814 c 1
 434.664446659 785.335553341 388.879131972 758.120868028 344 730 c 1
 288 730 l 1
EndSplineSet
EndChar

StartChar: Ydieresis
Encoding: 376 376 197
Width: 667
Flags: MW
LayerCount: 2
Fore
SplineSet
395 356 m 1
 583 678 l 1
 660 678 l 1
 660 659 l 1
 484 398 l 2
 465 370 449 340 431 298 c 1
 431 135 l 1
 432 72 433 58 441 50 c 0
 447 44 456 42 479 40 c 2
 516 37 l 1
 516 -3 l 1
 431 -1 396 0 360 0 c 0
 325 0 289 -1 205 -3 c 1
 205 37 l 1
 242 40 l 2
 266 42 275 45 281 51 c 0
 288 58 289 74 290 135 c 1
 290 274 l 1
 274 310 262 333 246 359 c 2
 145 522 l 1
 86 607 66 622 15 622 c 1
 15 659 l 1
 174 695 l 1
 220 668 247 635 288 559 c 2
 395 356 l 1
471 895 m 0
 507 895 537 864 537 828 c 0
 537 791 507 761 470 761 c 0
 433 761 403 791 403 828 c 0
 403 865 433 895 471 895 c 0
256 895 m 0
 292 895 322 864 322 828 c 0
 322 791 292 761 255 761 c 0
 218 761 188 791 188 828 c 0
 188 865 218 895 256 895 c 0
EndSplineSet
EndChar

StartChar: Zcaron
Encoding: 381 381 198
Width: 667
Flags: MW
LayerCount: 2
Fore
SplineSet
623 681 m 1
 623 646 l 1
 591 607 568 577 540 536 c 2
 215 57 l 1
 491 57 l 2
 543 57 566 69 572 96 c 2
 587 174 l 1
 627 174 l 1
 618 124 612 60 611 -3 c 1
 485 -1 428 0 327 0 c 0
 224 0 161 -1 24 -3 c 1
 24 35 l 1
 73 97 100 133 128 174 c 2
 434 620 l 1
 212 620 l 1
 140 619 131 615 125 574 c 2
 117 519 l 1
 80 519 l 1
 80 681 l 1
 325 678 325 678 352 678 c 0
 379 678 379 678 623 681 c 1
389 734 m 1
 297 734 l 1
 176 909 l 1
 231 909 l 1
 344 811 l 1
 455 909 l 1
 512 909 l 1
 389 734 l 1
EndSplineSet
EndChar

StartChar: aacute
Encoding: 225 225 199
Width: 500
Flags: MW
LayerCount: 2
Fore
SplineSet
421 330 m 0
 421 292.31836665 418 232.834383008 418 204 c 0
 418 181 419 153 420 119 c 1
 420 98 l 1
 421 51 426 40 448 37 c 2
 478 34 l 1
 478 -3 l 1
 426 -1 404 0 390 0 c 0
 375 0 352 -1 299 -3 c 1
 294 5 l 1
 299 67 l 1
 206 -5 l 2
 196 -13 180 -17 157 -17 c 0
 81 -17 40 26 40 107 c 0
 40 192 85 231 211 257 c 2
 299 275 l 1
 296 356 264 393 197 393 c 0
 170 393 142 386 139 379 c 2
 117 329 l 1
 87 336 l 1
 87 405 l 1
 140 437 l 2
 178 460 217 471 260 471 c 0
 361 471 421 418 421 330 c 0
299 115 m 1
 299 233 l 1
 254 221 l 2
 183 202 162 182 162 133 c 0
 162 94 181 70 213 70 c 0
 243 70 280 89 299 115 c 1
162 506 m 1
 291 654 l 2
 314 681 332 691 355 691 c 0
 383 691 400 674 400 647 c 0
 400 624.320392613 387.963812043 607.481906022 353 590 c 1
 308.664446659 561.335553341 262.879131972 534.120868028 218 506 c 1
 162 506 l 1
EndSplineSet
EndChar

StartChar: acircumflex
Encoding: 226 226 200
Width: 500
Flags: MW
LayerCount: 2
Fore
SplineSet
421 330 m 0
 421 292.31836665 418 232.834383008 418 204 c 0
 418 181 419 153 420 119 c 1
 420 98 l 1
 421 51 426 40 448 37 c 2
 478 34 l 1
 478 -3 l 1
 426 -1 404 0 390 0 c 0
 375 0 352 -1 299 -3 c 1
 294 5 l 1
 299 67 l 1
 206 -5 l 2
 196 -13 180 -17 157 -17 c 0
 81 -17 40 26 40 107 c 0
 40 192 85 231 211 257 c 2
 299 275 l 1
 296 356 264 393 197 393 c 0
 170 393 142 386 139 379 c 2
 117 329 l 1
 87 336 l 1
 87 405 l 1
 140 437 l 2
 178 460 217 471 260 471 c 0
 361 471 421 418 421 330 c 0
299 115 m 1
 299 233 l 1
 254 221 l 2
 183 202 162 182 162 133 c 0
 162 94 181 70 213 70 c 0
 243 70 280 89 299 115 c 1
203 681 m 1
 296 681 l 1
 419 506 l 1
 362 506 l 1
 250 604 l 1
 137 506 l 1
 82 506 l 1
 203 681 l 1
EndSplineSet
EndChar

StartChar: adieresis
Encoding: 228 228 201
Width: 500
Flags: MW
LayerCount: 2
Fore
SplineSet
421 330 m 0
 421 292.31836665 418 232.834383008 418 204 c 0
 418 181 419 153 420 119 c 1
 420 98 l 1
 421 51 426 40 448 37 c 2
 478 34 l 1
 478 -3 l 1
 426 -1 404 0 390 0 c 0
 375 0 352 -1 299 -3 c 1
 294 5 l 1
 299 67 l 1
 206 -5 l 2
 196 -13 180 -17 157 -17 c 0
 81 -17 40 26 40 107 c 0
 40 192 85 231 211 257 c 2
 299 275 l 1
 296 356 264 393 197 393 c 0
 170 393 142 386 139 379 c 2
 117 329 l 1
 87 336 l 1
 87 405 l 1
 140 437 l 2
 178 460 217 471 260 471 c 0
 361 471 421 418 421 330 c 0
299 115 m 1
 299 233 l 1
 254 221 l 2
 183 202 162 182 162 133 c 0
 162 94 181 70 213 70 c 0
 243 70 280 89 299 115 c 1
359 671 m 0
 395 671 425 640 425 604 c 0
 425 567 395 537 358 537 c 0
 321 537 291 567 291 605 c 0
 291 641 321 671 359 671 c 0
144 671 m 0
 180 671 210 640 210 604 c 0
 210 567 180 537 143 537 c 0
 106 537 76 567 76 604 c 0
 76 641 106 671 144 671 c 0
EndSplineSet
EndChar

StartChar: agrave
Encoding: 224 224 202
Width: 500
Flags: MW
LayerCount: 2
Fore
SplineSet
421 330 m 0
 421 292.31836665 418 232.834383008 418 204 c 0
 418 181 419 153 420 119 c 1
 420 98 l 1
 421 51 426 40 448 37 c 2
 478 34 l 1
 478 -3 l 1
 426 -1 404 0 390 0 c 0
 375 0 352 -1 299 -3 c 1
 294 5 l 1
 299 67 l 1
 206 -5 l 2
 196 -13 180 -17 157 -17 c 0
 81 -17 40 26 40 107 c 0
 40 192 85 231 211 257 c 2
 299 275 l 1
 296 356 264 393 197 393 c 0
 170 393 142 386 139 379 c 2
 117 329 l 1
 87 336 l 1
 87 405 l 1
 140 437 l 2
 178 460 217 471 260 471 c 0
 361 471 421 418 421 330 c 0
299 115 m 1
 299 233 l 1
 254 221 l 2
 183 202 162 182 162 133 c 0
 162 94 181 70 213 70 c 0
 243 70 280 89 299 115 c 1
284 506 m 1
 153 587 l 2
 110 613 102 622 102 647 c 0
 102 674 119 691 146 691 c 0
 169 691 187 681 211 654 c 2
 340 506 l 1
 284 506 l 1
EndSplineSet
EndChar

StartChar: aring
Encoding: 229 229 203
Width: 500
Flags: MW
LayerCount: 2
Fore
SplineSet
421 330 m 0
 421 292.31836665 418 232.834383008 418 204 c 0
 418 181 419 153 420 119 c 1
 420 98 l 1
 421 51 426 40 448 37 c 2
 478 34 l 1
 478 -3 l 1
 426 -1 404 0 390 0 c 0
 375 0 352 -1 299 -3 c 1
 294 5 l 1
 299 67 l 1
 206 -5 l 2
 196 -13 180 -17 157 -17 c 0
 81 -17 40 26 40 107 c 0
 40 192 85 231 211 257 c 2
 299 275 l 1
 296 356 264 393 197 393 c 0
 170 393 142 386 139 379 c 2
 117 329 l 1
 87 336 l 1
 87 405 l 1
 140 437 l 2
 178 460 217 471 260 471 c 0
 361 471 421 418 421 330 c 0
299 115 m 1
 299 233 l 1
 254 221 l 2
 183 202 162 182 162 133 c 0
 162 94 181 70 213 70 c 0
 243 70 280 89 299 115 c 1
256 700 m 0
 309 700 354 654 354 600 c 0
 354 545 309 500 254 500 c 0
 198 500 154 545 154 601 c 0
 154 656 199 700 256 700 c 0
255 650 m 0
 226 650 204 628 204 600 c 0
 204 572 226 550 254 550 c 0
 282 550 304 572 304 600 c 0
 304 627 282 650 255 650 c 0
EndSplineSet
EndChar

StartChar: atilde
Encoding: 227 227 204
Width: 500
Flags: MW
LayerCount: 2
Fore
SplineSet
421 330 m 0
 421 292.31836665 418 232.834383008 418 204 c 0
 418 181 419 153 420 119 c 1
 420 98 l 1
 421 51 426 40 448 37 c 2
 478 34 l 1
 478 -3 l 1
 426 -1 404 0 390 0 c 0
 375 0 352 -1 299 -3 c 1
 294 5 l 1
 299 67 l 1
 206 -5 l 2
 196 -13 180 -17 157 -17 c 0
 81 -17 40 26 40 107 c 0
 40 192 85 231 211 257 c 2
 299 275 l 1
 296 356 264 393 197 393 c 0
 170 393 142 386 139 379 c 2
 117 329 l 1
 87 336 l 1
 87 405 l 1
 140 437 l 2
 178 460 217 471 260 471 c 0
 361 471 421 418 421 330 c 0
299 115 m 1
 299 233 l 1
 254 221 l 2
 183 202 162 182 162 133 c 0
 162 94 181 70 213 70 c 0
 243 70 280 89 299 115 c 1
390 661 m 1
 433 661 l 1
 409 574 372 535 315 535 c 0
 291 535 272 541 231 560 c 0
 192 578 173 584 154 584 c 0
 133 584 118 568 108 536 c 1
 68 536 l 1
 76 610 123 661 183 661 c 0
 207 661 225 656 264 637 c 0
 301 619 319 613 339 613 c 0
 362 613 372 622 390 661 c 1
EndSplineSet
EndChar

StartChar: ccedilla
Encoding: 231 231 205
Width: 444
Flags: MW
LayerCount: 2
Fore
SplineSet
258 -17 m 1
 234 -71 l 1
 253 -66 265 -65 280 -65 c 0
 326 -65 356 -93 356 -138 c 0
 356 -191 305 -225 223 -225 c 0
 194 -225 163 -219 129 -207 c 1
 145 -170 l 1
 179 -177 193 -179 212 -179 c 0
 245 -179 262 -166 262 -142 c 0
 262 -120 248 -107 224 -107 c 0
 215 -107 208 -108 188 -111 c 1
 178 -103 l 1
 218 -14 l 1
 99 2 37 86 37 229 c 0
 37 316 69 366 158 419 c 2
 210 450 l 2
 234 465 262 471 300 471 c 0
 336 471 357 467 403 451 c 1
 410 438 l 1
 401 394 396 361 390 297 c 1
 354 297 l 1
 347 357 l 2
 344 380 304 400 259 400 c 0
 195 400 161 352 161 261 c 0
 161 133 221 54 320 54 c 0
 349 54 371 59 405 73 c 1
 414 63 l 1
 393 17 l 1
 351 -6 308 -17 258 -17 c 1
EndSplineSet
EndChar

StartChar: eacute
Encoding: 233 233 206
Width: 500
Flags: MW
LayerCount: 2
Fore
SplineSet
461 295 m 2
 461 243 l 1
 412 230 361 223 303 223 c 2
 172 223 l 1
 174 176 180 153 196 125 c 0
 221 82 270 54 322 54 c 0
 362 54 392 63 439 89 c 1
 451 74 l 1
 429 26 l 1
 364 -7 329 -17 271 -17 c 0
 121 -17 42 67 42 226 c 0
 42 322 71 380 137 420 c 2
 184 448 l 2
 211 464 237 471 271 471 c 0
 386 471 461 402 461 295 c 2
250 273 m 1
 334 276 l 1
 332 375 308 415 251 415 c 0
 193 415 169 375 166 276 c 1
 184 275 193 275 198 275 c 0
 220 274 237 273 246 273 c 2
 250 273 l 1
167 506 m 1
 296 654 l 2
 319 681 337 691 361 691 c 0
 388 691 405 674 405 647 c 0
 405 624.907576739 391.909970488 606.954985244 358 590 c 1
 313.664446659 561.335553341 267.879131972 534.120868028 223 506 c 1
 167 506 l 1
EndSplineSet
EndChar

StartChar: ecircumflex
Encoding: 234 234 207
Width: 500
Flags: MW
LayerCount: 2
Fore
SplineSet
461 295 m 2
 461 243 l 1
 412 230 361 223 303 223 c 2
 172 223 l 1
 174 176 180 153 196 125 c 0
 221 82 270 54 322 54 c 0
 362 54 392 63 439 89 c 1
 451 74 l 1
 429 26 l 1
 364 -7 329 -17 271 -17 c 0
 121 -17 42 67 42 226 c 0
 42 322 71 380 137 420 c 2
 184 448 l 2
 211 464 237 471 271 471 c 0
 386 471 461 402 461 295 c 2
250 273 m 1
 334 276 l 1
 332 375 308 415 251 415 c 0
 193 415 169 375 166 276 c 1
 184 275 193 275 198 275 c 0
 220 274 237 273 246 273 c 2
 250 273 l 1
210 681 m 1
 303 681 l 1
 426 506 l 1
 369 506 l 1
 257 604 l 1
 144 506 l 1
 89 506 l 1
 210 681 l 1
EndSplineSet
EndChar

StartChar: edieresis
Encoding: 235 235 208
Width: 500
Flags: MW
LayerCount: 2
Fore
SplineSet
461 295 m 2
 461 243 l 1
 412 230 361 223 303 223 c 2
 172 223 l 1
 174 176 180 153 196 125 c 0
 221 82 270 54 322 54 c 0
 362 54 392 63 439 89 c 1
 451 74 l 1
 429 26 l 1
 364 -7 329 -17 271 -17 c 0
 121 -17 42 67 42 226 c 0
 42 322 71 380 137 420 c 2
 184 448 l 2
 211 464 237 471 271 471 c 0
 386 471 461 402 461 295 c 2
250 273 m 1
 334 276 l 1
 332 375 308 415 251 415 c 0
 193 415 169 375 166 276 c 1
 184 275 193 275 198 275 c 0
 220 274 237 273 246 273 c 2
 250 273 l 1
359 671 m 0
 395 671 425 641 425 604 c 0
 425 567 395 537 358 537 c 0
 321 537 291 567 291 605 c 0
 291 641 321 671 359 671 c 0
144 671 m 0
 180 671 210 640 210 604 c 0
 210 567 180 537 143 537 c 0
 106 537 76 567 76 604 c 0
 76 641 106 671 144 671 c 0
EndSplineSet
EndChar

StartChar: egrave
Encoding: 232 232 209
Width: 500
Flags: MW
LayerCount: 2
Fore
SplineSet
461 295 m 2
 461 243 l 1
 412 230 361 223 303 223 c 2
 172 223 l 1
 174 176 180 153 196 125 c 0
 221 82 270 54 322 54 c 0
 362 54 392 63 439 89 c 1
 451 74 l 1
 429 26 l 1
 364 -7 329 -17 271 -17 c 0
 121 -17 42 67 42 226 c 0
 42 322 71 380 137 420 c 2
 184 448 l 2
 211 464 237 471 271 471 c 0
 386 471 461 402 461 295 c 2
250 273 m 1
 334 276 l 1
 332 375 308 415 251 415 c 0
 193 415 169 375 166 276 c 1
 184 275 193 275 198 275 c 0
 220 274 237 273 246 273 c 2
 250 273 l 1
291 506 m 1
 160 587 l 2
 117 613 109 622 109 647 c 0
 109 674 126 691 153 691 c 0
 176 691 194 681 218 654 c 2
 346 506 l 1
 291 506 l 1
EndSplineSet
EndChar

StartChar: iacute
Encoding: 237 237 210
Width: 333
Flags: MW
LayerCount: 2
Fore
SplineSet
34 34 m 1
 69 36 l 1
 102 39 105 45 105 100 c 2
 105 319 l 2
 105 380 102 387 79 389 c 2
 34 392 l 1
 34 428 l 1
 41 429 47 430 49 430 c 0
 89 435 113 439 147 449 c 2
 217 471 l 1
 227 465 l 1
 227 100 l 2
 227 45 230 39 263 36 c 1
 298 34 l 1
 298 -3 l 1
 231 -1 183 0 163 0 c 2
 34 -3 l 1
 34 34 l 1
78 506 m 1
 207 654 l 2
 230 681 248 691 272 691 c 0
 299 691 316 674 316 647 c 0
 316 625.231006927 302.047513288 606.523756644 269 590 c 1
 224.664446659 561.335553341 178.879131972 534.120868028 134 506 c 1
 78 506 l 1
EndSplineSet
EndChar

StartChar: icircumflex
Encoding: 238 238 211
Width: 333
Flags: MW
LayerCount: 2
Fore
SplineSet
34 34 m 1
 69 36 l 1
 102 39 105 45 105 100 c 2
 105 319 l 2
 105 380 102 387 79 389 c 2
 34 392 l 1
 34 428 l 1
 41 429 47 430 49 430 c 0
 89 435 113 439 147 449 c 2
 217 471 l 1
 227 465 l 1
 227 100 l 2
 227 45 230 39 263 36 c 1
 298 34 l 1
 298 -3 l 1
 231 -1 183 0 163 0 c 2
 34 -3 l 1
 34 34 l 1
119 681 m 1
 212 681 l 1
 335 506 l 1
 278 506 l 1
 166 604 l 1
 53 506 l 1
 -2 506 l 1
 119 681 l 1
EndSplineSet
EndChar

StartChar: idieresis
Encoding: 239 239 212
Width: 333
Flags: MW
LayerCount: 2
Fore
SplineSet
34 34 m 1
 69 36 l 1
 102 39 105 45 105 100 c 2
 105 319 l 2
 105 380 102 387 79 389 c 2
 34 392 l 1
 34 428 l 1
 41 429 47 430 49 430 c 0
 89 435 113 439 147 449 c 2
 217 471 l 1
 227 465 l 1
 227 100 l 2
 227 45 230 39 263 36 c 1
 298 34 l 1
 298 -3 l 1
 231 -1 183 0 163 0 c 2
 34 -3 l 1
 34 34 l 1
275 691 m 0
 311 691 341 661 341 624 c 0
 341 587 311 557 274 557 c 0
 237 557 207 587 207 625 c 0
 207 662 237 691 275 691 c 0
60 691 m 0
 96 691 126 661 126 624 c 0
 126 587 96 557 59 557 c 0
 22 557 -8 587 -8 624 c 0
 -8 661 22 691 60 691 c 0
EndSplineSet
EndChar

StartChar: igrave
Encoding: 236 236 213
Width: 333
Flags: MW
LayerCount: 2
Fore
SplineSet
34 34 m 1
 69 36 l 1
 102 39 105 45 105 100 c 2
 105 319 l 2
 105 380 102 387 79 389 c 2
 34 392 l 1
 34 428 l 1
 41 429 47 430 49 430 c 0
 89 435 113 439 147 449 c 2
 217 471 l 1
 227 465 l 1
 227 100 l 2
 227 45 230 39 263 36 c 1
 298 34 l 1
 298 -3 l 1
 231 -1 183 0 163 0 c 2
 34 -3 l 1
 34 34 l 1
200 506 m 1
 152.70064051 535.367307177 105.097431186 564.430764519 58 594 c 0
 28 612 18 625 18 647 c 0
 18 674 35 691 62 691 c 0
 86 691 104 681 127 654 c 2
 256 506 l 1
 200 506 l 1
EndSplineSet
EndChar

StartChar: ntilde
Encoding: 241 241 214
Width: 611
Flags: MW
LayerCount: 2
Fore
SplineSet
24 34 m 1
 59 36 l 1
 92 39 95 45 95 100 c 2
 95 319 l 2
 95 380 92 387 69 389 c 2
 24 392 l 1
 24 428 l 1
 79 431 107 437 211 471 c 1
 217 465 l 1
 217 390 l 1
 297 452 l 2
 314 465 336 471 367 471 c 0
 417 471 457 456 483 429 c 0
 509 401 518 363 518 286 c 2
 518 100 l 2
 518 45 521 39 554 36 c 2
 587 34 l 1
 587 -3 l 1
 523 -1 502 0 486 0 c 0
 468 0 448 -1 396 -3 c 1
 396 270 l 2
 396 351 368 385 303 385 c 0
 258 385 217 352 217 317 c 2
 217 100 l 2
 217 45 220 39 253 36 c 1
 288 34 l 1
 288 -3 l 1
 221 -1 173 0 153 0 c 2
 24 -3 l 1
 24 34 l 1
445 661 m 1
 488 661 l 1
 464 574 428 535 370 535 c 0
 346 535 327 541 286 560 c 0
 247 578 228 584 209 584 c 0
 189 584 173 568 163 536 c 1
 123 536 l 1
 131 610 179 661 239 661 c 0
 262 661 281 656 319 637 c 0
 357 619 375 613 394 613 c 0
 418 613 427 622 445 661 c 1
EndSplineSet
EndChar

StartChar: oacute
Encoding: 243 243 215
Width: 556
Flags: MW
LayerCount: 2
Fore
SplineSet
287 471 m 0
 436 471 517 388 517 236 c 0
 517 74 427 -17 267 -17 c 0
 122 -17 40 70 40 224 c 0
 40 384 127 471 287 471 c 0
275 423 m 0
 206 423 176 370 176 248 c 0
 176 104 213 31 285 31 c 0
 353 31 381 82 381 204 c 0
 381 353 347 423 275 423 c 0
190 506 m 1
 319 654 l 2
 342 681 360 691 384 691 c 0
 411 691 428 674 428 647 c 0
 428 624.907576739 414.909970488 606.954985244 381 590 c 1
 336.664446659 561.335553341 290.879131972 534.120868028 246 506 c 1
 190 506 l 1
EndSplineSet
EndChar

StartChar: ocircumflex
Encoding: 244 244 216
Width: 556
Flags: MW
LayerCount: 2
Fore
SplineSet
287 471 m 0
 436 471 517 388 517 236 c 0
 517 74 427 -17 267 -17 c 0
 122 -17 40 70 40 224 c 0
 40 384 127 471 287 471 c 0
275 423 m 0
 206 423 176 370 176 248 c 0
 176 104 213 31 285 31 c 0
 353 31 381 82 381 204 c 0
 381 353 347 423 275 423 c 0
231 681 m 1
 324 681 l 1
 447 506 l 1
 390 506 l 1
 278 604 l 1
 165 506 l 1
 110 506 l 1
 231 681 l 1
EndSplineSet
EndChar

StartChar: odieresis
Encoding: 246 246 217
Width: 556
Flags: MW
LayerCount: 2
Fore
SplineSet
287 471 m 0
 436 471 517 388 517 236 c 0
 517 74 427 -17 267 -17 c 0
 122 -17 40 70 40 224 c 0
 40 384 127 471 287 471 c 0
275 423 m 0
 206 423 176 370 176 248 c 0
 176 104 213 31 285 31 c 0
 353 31 381 82 381 204 c 0
 381 353 347 423 275 423 c 0
387 671 m 0
 423 671 453 640 453 604 c 0
 453 567 423 537 386 537 c 0
 349 537 319 567 319 605 c 0
 319 641 349 671 387 671 c 0
172 671 m 0
 208 671 238 640 238 604 c 0
 238 567 208 537 171 537 c 0
 134 537 104 567 104 604 c 0
 104 641 134 671 172 671 c 0
EndSplineSet
EndChar

StartChar: ograve
Encoding: 242 242 218
Width: 556
Flags: MW
LayerCount: 2
Fore
SplineSet
287 471 m 0
 436 471 517 388 517 236 c 0
 517 74 427 -17 267 -17 c 0
 122 -17 40 70 40 224 c 0
 40 384 127 471 287 471 c 0
275 423 m 0
 206 423 176 370 176 248 c 0
 176 104 213 31 285 31 c 0
 353 31 381 82 381 204 c 0
 381 353 347 423 275 423 c 0
312 506 m 1
 181 587 l 2
 138 613 130 622 130 647 c 0
 130 674 147 691 174 691 c 0
 197 691 215 681 239 654 c 2
 368 506 l 1
 312 506 l 1
EndSplineSet
EndChar

StartChar: otilde
Encoding: 245 245 219
Width: 556
Flags: MW
LayerCount: 2
Fore
SplineSet
287 471 m 0
 436 471 517 388 517 236 c 0
 517 74 427 -17 267 -17 c 0
 122 -17 40 70 40 224 c 0
 40 384 127 471 287 471 c 0
275 423 m 0
 206 423 176 370 176 248 c 0
 176 104 213 31 285 31 c 0
 353 31 381 82 381 204 c 0
 381 353 347 423 275 423 c 0
418 661 m 1
 461 661 l 1
 437 574 400 535 343 535 c 0
 319 535 300 541 259 560 c 0
 220 578 201 584 182 584 c 0
 161 584 146 568 136 536 c 1
 96 536 l 1
 104 610 151 661 211 661 c 0
 235 661 253 656 292 637 c 0
 329 619 347 613 367 613 c 0
 390 613 400 622 418 661 c 1
EndSplineSet
EndChar

StartChar: scaron
Encoding: 353 353 220
Width: 444
Flags: MW
LayerCount: 2
Fore
SplineSet
362 326 m 1
 326 326 l 1
 316 384 l 2
 313 404 270 423 229 423 c 0
 174 423 141 398 141 358 c 0
 141 326 157 311 196 302 c 2
 278 284 l 2
 368 264 405 227 405 155 c 0
 405 52 320 -17 194 -17 c 0
 141 -17 97 -9 39 11 c 1
 46 152 l 1
 85 152 l 1
 90 83 l 1
 121 46 155 31 202 31 c 0
 259 31 294 61 294 108 c 0
 294 143 277 160 231 171 c 2
 145 192 l 2
 75 209 39 251 39 317 c 0
 39 417 112 471 247 471 c 0
 300 471 331 465 370 448 c 1
 362 326 l 1
268 510 m 1
 175 510 l 1
 54 685 l 1
 109 685 l 1
 222 587 l 1
 334 685 l 1
 391 685 l 1
 268 510 l 1
EndSplineSet
EndChar

StartChar: uacute
Encoding: 250 250 221
Width: 611
Flags: MW
LayerCount: 2
Fore
SplineSet
392 80 m 1
 316 6 l 2
 301 -9 276 -17 247 -17 c 0
 150 -17 96 39 96 140 c 2
 96 319 l 2
 96 380 93 387 70 389 c 2
 25 392 l 1
 25 428 l 1
 88 436 106 439 138 449 c 2
 208 471 l 1
 218 465 l 1
 218 204 l 2
 218 108 239 73 296 73 c 0
 349 73 392 113 392 163 c 2
 392 319 l 2
 392 380 389 387 366 389 c 2
 321 392 l 1
 321 428 l 1
 382 436 402 439 434 449 c 2
 504 471 l 1
 514 465 l 1
 514 100 l 2
 514 45 517 39 550 36 c 2
 583 34 l 1
 583 -3 l 1
 562 -2 542 -2 536 -2 c 0
 509 -1 490 0 481 0 c 0
 468 0 445 -1 387 -3 c 1
 392 80 l 1
217 506 m 1
 346 654 l 2
 369 681 387 691 411 691 c 0
 438 691 455 674 455 647 c 0
 455 625.231006927 441.047513288 606.523756644 408 590 c 1
 363.664446659 561.335553341 317.879131972 534.120868028 273 506 c 1
 217 506 l 1
EndSplineSet
EndChar

StartChar: ucircumflex
Encoding: 251 251 222
Width: 611
Flags: MW
LayerCount: 2
Fore
SplineSet
392 80 m 1
 316 6 l 2
 301 -9 276 -17 247 -17 c 0
 150 -17 96 39 96 140 c 2
 96 319 l 2
 96 380 93 387 70 389 c 2
 25 392 l 1
 25 428 l 1
 88 436 106 439 138 449 c 2
 208 471 l 1
 218 465 l 1
 218 204 l 2
 218 108 239 73 296 73 c 0
 349 73 392 113 392 163 c 2
 392 319 l 2
 392 380 389 387 366 389 c 2
 321 392 l 1
 321 428 l 1
 382 436 402 439 434 449 c 2
 504 471 l 1
 514 465 l 1
 514 100 l 2
 514 45 517 39 550 36 c 2
 583 34 l 1
 583 -3 l 1
 562 -2 542 -2 536 -2 c 0
 509 -1 490 0 481 0 c 0
 468 0 445 -1 387 -3 c 1
 392 80 l 1
242 681 m 1
 335 681 l 1
 458 506 l 1
 401 506 l 1
 289 604 l 1
 176 506 l 1
 121 506 l 1
 242 681 l 1
EndSplineSet
EndChar

StartChar: udieresis
Encoding: 252 252 223
Width: 611
Flags: MW
LayerCount: 2
Fore
SplineSet
392 80 m 1
 316 6 l 2
 301 -9 276 -17 247 -17 c 0
 150 -17 96 39 96 140 c 2
 96 319 l 2
 96 380 93 387 70 389 c 2
 25 392 l 1
 25 428 l 1
 88 436 106 439 138 449 c 2
 208 471 l 1
 218 465 l 1
 218 204 l 2
 218 108 239 73 296 73 c 0
 349 73 392 113 392 163 c 2
 392 319 l 2
 392 380 389 387 366 389 c 2
 321 392 l 1
 321 428 l 1
 382 436 402 439 434 449 c 2
 504 471 l 1
 514 465 l 1
 514 100 l 2
 514 45 517 39 550 36 c 2
 583 34 l 1
 583 -3 l 1
 562 -2 542 -2 536 -2 c 0
 509 -1 490 0 481 0 c 0
 468 0 445 -1 387 -3 c 1
 392 80 l 1
402 671 m 0
 438 671 468 640 468 604 c 0
 468 567 438 537 401 537 c 0
 364 537 334 567 334 605 c 0
 334 641 364 671 402 671 c 0
187 671 m 0
 223 671 253 640 253 604 c 0
 253 567 223 537 186 537 c 0
 149 537 119 567 119 604 c 0
 119 641 149 671 187 671 c 0
EndSplineSet
EndChar

StartChar: ugrave
Encoding: 249 249 224
Width: 611
Flags: MW
LayerCount: 2
Fore
SplineSet
392 80 m 1
 316 6 l 2
 301 -9 276 -17 247 -17 c 0
 150 -17 96 39 96 140 c 2
 96 319 l 2
 96 380 93 387 70 389 c 2
 25 392 l 1
 25 428 l 1
 88 436 106 439 138 449 c 2
 208 471 l 1
 218 465 l 1
 218 204 l 2
 218 108 239 73 296 73 c 0
 349 73 392 113 392 163 c 2
 392 319 l 2
 392 380 389 387 366 389 c 2
 321 392 l 1
 321 428 l 1
 382 436 402 439 434 449 c 2
 504 471 l 1
 514 465 l 1
 514 100 l 2
 514 45 517 39 550 36 c 2
 583 34 l 1
 583 -3 l 1
 562 -2 542 -2 536 -2 c 0
 509 -1 490 0 481 0 c 0
 468 0 445 -1 387 -3 c 1
 392 80 l 1
339 506 m 1
 291.70064051 535.367307177 244.097431186 564.430764519 197 594 c 0
 167 612 157 625 157 647 c 0
 157 674 174 691 201 691 c 0
 225 691 243 681 266 654 c 2
 395 506 l 1
 339 506 l 1
EndSplineSet
EndChar

StartChar: yacute
Encoding: 253 253 225
Width: 556
Flags: MW
LayerCount: 2
Fore
SplineSet
275 421 m 1
 240 419 l 2
 224 418 214 409 214 396 c 0
 214 380.520967123 225.4482359 359.655292299 231 343 c 2
 315 125 l 1
 416 377 l 2
 418 383 420 392 420 399 c 0
 420 410 410 418 393 419 c 2
 360 421 l 1
 360 459 l 1
 377 458 394 458 399 458 c 0
 430 456 443 456 449 456 c 2
 453 456 l 1
 546 459 l 1
 546 421 l 1
 520 416 l 2
 506 413 491 396 479 369 c 2
 280 -94 l 2
 229 -212 174 -266 104 -266 c 0
 81 -266 58 -261 31 -249 c 1
 49 -154 l 1
 60 -150 l 1
 83 -176 104 -187 130 -187 c 0
 165 -187 199 -153 222 -96 c 2
 245 -40 l 1
 87 364 l 2
 72 402 60 418 45 419 c 2
 10 421 l 1
 10 459 l 1
 109 456 117 456 130 456 c 2
 143 456 l 1
 275 459 l 1
 275 421 l 1
230 506 m 1
 359 654 l 2
 382 681 400 691 424 691 c 0
 451 691 468 674 468 647 c 0
 468 624.907576739 454.909970488 606.954985244 421 590 c 1
 376.664446659 561.335553341 330.879131972 534.120868028 286 506 c 1
 230 506 l 1
EndSplineSet
EndChar

StartChar: ydieresis
Encoding: 255 255 226
Width: 556
Flags: MW
LayerCount: 2
Fore
SplineSet
275 421 m 1
 240 419 l 2
 224 418 214 409 214 396 c 0
 214 380.520967123 225.4482359 359.655292299 231 343 c 2
 315 125 l 1
 416 377 l 2
 418 383 420 392 420 399 c 0
 420 410 410 418 393 419 c 2
 360 421 l 1
 360 459 l 1
 377 458 394 458 399 458 c 0
 430 456 443 456 449 456 c 2
 453 456 l 1
 546 459 l 1
 546 421 l 1
 520 416 l 2
 506 413 491 396 479 369 c 2
 280 -94 l 2
 229 -212 174 -266 104 -266 c 0
 81 -266 58 -261 31 -249 c 1
 49 -154 l 1
 60 -150 l 1
 83 -176 104 -187 130 -187 c 0
 165 -187 199 -153 222 -96 c 2
 245 -40 l 1
 87 364 l 2
 72 402 60 418 45 419 c 2
 10 421 l 1
 10 459 l 1
 109 456 117 456 130 456 c 2
 143 456 l 1
 275 459 l 1
 275 421 l 1
402 671 m 0
 438 671 468 640 468 604 c 0
 468 567 438 537 401 537 c 0
 364 537 334 567 334 605 c 0
 334 641 364 671 402 671 c 0
187 671 m 0
 223 671 253 640 253 604 c 0
 253 567 223 537 186 537 c 0
 149 537 119 567 119 604 c 0
 119 641 149 671 187 671 c 0
EndSplineSet
EndChar

StartChar: zcaron
Encoding: 382 382 227
Width: 500
Flags: MW
LayerCount: 2
Fore
SplineSet
454 424 m 1
 186 55 l 1
 349 55 l 1
 399 56 409 66 419 124 c 2
 424 155 l 1
 464 155 l 1
 457 107 452 48 452 2 c 1
 447 -3 l 1
 307 -1 209 0 174 0 c 0
 134 0 99 -1 16 -3 c 1
 16 30 l 1
 81 113 99 137 120 166 c 2
 290 404 l 1
 172 404 l 1
 114 403 103 394 96 345 c 1
 93 320 l 1
 55 320 l 1
 58 454 l 1
 65 459 l 1
 204 455 268 454 301 454 c 0
 347 454 382 455 454 459 c 1
 454 424 l 1
301 510 m 1
 208 510 l 1
 87 685 l 1
 142 685 l 1
 255 587 l 1
 367 685 l 1
 424 685 l 1
 301 510 l 1
EndSplineSet
EndChar

StartChar: nsuperior
Encoding: 8319 8319 228
Width: 507
Flags: MW
LayerCount: 2
Fore
SplineSet
99 288 m 1
 110 289 l 2
 127 291 128 292 128 323 c 2
 128 453 l 2
 128 487 127 489 116 491 c 2
 99 493 l 1
 99 520 l 1
 106 521 l 1
 125 521 148 527 179 538 c 2
 191 542 l 1
 196 544 l 1
 202 546 l 1
 208 540 l 1
 208 501 l 1
 239 529 l 2
 252 540 266 546 283 546 c 0
 306 546 333 535 347 520 c 0
 363 503 369 480 369 433 c 0
 369 391 369 349 369 307 c 1
 371 292 371 291 387 289 c 2
 397 288 l 1
 397 259 l 1
 382 260 l 1
 363 261 l 1
 346 261 l 2
 339 261 308 260 289 259 c 1
 289 424 l 2
 289 469 277 488 249 488 c 0
 230 488 208 468 208 451 c 2
 208 323 l 1
 209 302 l 1
 211 292 212 291 227 289 c 2
 237 288 l 1
 237 259 l 1
 204 260 l 2
 180 261 174 261 166 261 c 2
 99 259 l 1
 99 288 l 1
EndSplineSet
EndChar

StartChar: ff
Encoding: 64256 64256 229
Width: 703
Flags: MW
LayerCount: 2
Fore
SplineSet
382 714 m 1
 382 617 l 1
 366 610 l 1
 336 628 320 634 299 634 c 0
 253 634 240 613 240 542 c 2
 240 434 l 1
 281 434 306 435 371 438 c 1
 375 430 l 1
 364 372 l 1
 240 372 l 1
 240 100 l 2
 240 43 241 41 290 36 c 1
 335 34 l 1
 335 -3 l 1
 249 -1 198 0 176 0 c 0
 153 0 121 -1 35 -3 c 1
 35 34 l 1
 76 36 l 1
 115 40 118 44 118 100 c 2
 118 372 l 1
 39 367 l 1
 39 391 l 1
 72 406 91 417 118 436 c 1
 118 479 l 1
 120 566 124 573 173 616 c 1
 247 678 l 2
 285 710 308 720 340 720 c 0
 355 720 365 718 382 714 c 1
691 714 m 1
 691 617 l 1
 675 610 l 1
 645 628 629 634 608 634 c 0
 562 634 549 613 549 542 c 2
 549 434 l 1
 590 434 615 435 680 438 c 1
 684 430 l 1
 673 372 l 1
 549 372 l 1
 549 100 l 2
 549 43 550 41 599 36 c 1
 644 34 l 1
 644 -3 l 1
 558 -1 507 0 485 0 c 0
 462 0 430 -1 344 -3 c 1
 344 34 l 1
 385 36 l 1
 424 40 427 44 427 100 c 2
 427 372 l 1
 348 367 l 1
 348 391 l 1
 381 406 400 417 427 436 c 1
 427 479 l 1
 429 566 433 573 482 616 c 1
 556 678 l 2
 594 710 617 720 649 720 c 0
 664 720 674 718 691 714 c 1
EndSplineSet
Ligature2: "'liga' Standard Ligatures in Latin lookup 16 subtable" f f
EndChar

StartChar: ffi
Encoding: 64259 64259 230
Width: 924
Flags: MW
LayerCount: 2
Fore
SplineSet
406 437 m 1
 406 479 l 1
 408 566 411 573 461 616 c 2
 535 678 l 2
 573 710 596 720 628 720 c 0
 643 720 653 718 670 714 c 1
 670 617 l 1
 654 610 l 1
 624 628 608 634 587 634 c 0
 564 634 546 625 538 611 c 0
 531 598 528 580 528 542 c 2
 528 434 l 1
 639 434 l 2
 686 434 724 439 757 449 c 2
 829 471 l 1
 837 470 l 1
 837 100 l 2
 837 45 841 39 873 36 c 1
 908 34 l 1
 908 -3 l 1
 841 -1 793 0 773 0 c 2
 644 -3 l 1
 644 34 l 1
 679 36 l 1
 711 39 715 44 715 100 c 2
 715 326 l 2
 715 373 704 391 677 391 c 2
 646 391 l 1
 639 372 l 1
 528 372 l 1
 528 100 l 2
 528 44 531 39 568 36 c 2
 603 34 l 1
 603 -3 l 1
 521 -1 493 0 466 0 c 2
 179 0 l 2
 152 0 123 -1 36 -3 c 1
 36 34 l 1
 77 36 l 1
 116 40 119 43 119 100 c 2
 119 372 l 1
 40 367 l 1
 40 391 l 1
 73 406 92 417 119 436 c 1
 119 479 l 1
 121 566 125 573 174 616 c 1
 248 678 l 2
 286 710 309 720 341 720 c 0
 356 720 366 718 383 714 c 1
 383 617 l 1
 367 610 l 1
 337 628 321 634 300 634 c 0
 254 634 241 613 241 542 c 2
 241 434 l 1
 266 434 l 1
 325 436 l 1
 365 437 l 1
 406 437 l 1
406 372 m 1
 241 372 l 1
 241 100 l 2
 241 71 242 57 246 51 c 0
 251 40 283 34 328 34 c 0
 366 34 391 38 398 46 c 0
 404 53 405 55 406 100 c 1
 406 372 l 1
786 706 m 0
 827 706 860 673 860 631 c 0
 860 590 827 556 785 556 c 0
 743 556 710 589 710 632 c 0
 710 674 743 706 786 706 c 0
EndSplineSet
Ligature2: "'liga' Standard Ligatures in Latin lookup 15 subtable" f f i
EndChar

StartChar: ffl
Encoding: 64260 64260 231
Width: 924
Flags: MW
LayerCount: 2
Fore
SplineSet
629 720 m 0
 637.830505142 720 649.310500674 719.172374831 658 717 c 1
 660 717 l 1
 660 680 l 1
 717 688 742 692 766 700 c 2
 827 720 l 1
 835 714 l 1
 835 100 l 2
 835 45 838 39 871 36 c 1
 906 34 l 1
 906 -3 l 1
 839 -1 792 0 771 0 c 2
 642 -3 l 1
 642 34 l 1
 677 36 l 1
 710 39 713 45 713 100 c 2
 713 568 l 2
 713 628 710 635 687 638 c 2
 660 641 l 1
 660 608 l 1
 645 604 l 1
 627 625 609 634 587 634 c 0
 551 634 535 606 535 542 c 2
 535 434 l 1
 569 434 595 435 656 438 c 1
 660 430 l 1
 649 372 l 1
 535 372 l 1
 535 100 l 2
 535 43 535 42 585 36 c 1
 610 34 l 1
 610 -3 l 1
 528 -1 500 0 473 0 c 2
 177 0 l 2
 150 0 121 -1 34 -3 c 1
 34 34 l 1
 75 36 l 1
 114 40 117 44 117 100 c 2
 117 372 l 1
 38 367 l 1
 38 391 l 1
 71 406 90 417 117 436 c 1
 117 479 l 1
 119 566 123 573 172 616 c 1
 246 678 l 2
 284 710 307 720 339 720 c 0
 354 720 364 718 381 714 c 1
 381 617 l 1
 365 610 l 1
 335 628 319 634 298 634 c 0
 252 634 239 613 239 542 c 2
 239 434 l 1
 280 434 305 435 370 438 c 1
 374 430 l 1
 370 409 l 1
 385 417 394 423 413 436 c 1
 413 479 l 1
 415 566 418 573 468 616 c 2
 542 678 l 2
 578 708 602 720 629 720 c 0
239 372 m 1
 239 100 l 2
 239 43 241 40 289 36 c 1
 371 36 l 1
 409 39 413 44 413 100 c 2
 413 372 l 1
 334 367 l 1
 334 372 l 1
 239 372 l 1
EndSplineSet
Ligature2: "'liga' Standard Ligatures in Latin lookup 16 subtable" f f l
EndChar

StartChar: oneeighth
Encoding: 8539 8539 232
Width: 760
Flags: MW
LayerCount: 2
Fore
SplineSet
224 0 m 1
 155 0 l 1
 558 660 l 1
 627 660 l 1
 224 0 l 1
215 660 m 1
 211.935419383 626.289613214 208 596.970473911 208 570 c 2
 208 338 l 2
 208 310 221 295 245 293 c 2
 282 291 l 1
 282 261 l 1
 220 262 183 263 166 263 c 0
 157 263 140 263 116 262 c 0
 98 262 70 262 35 261 c 1
 35 291 l 1
 77 293 l 2
 102 295 114 310 115 338 c 1
 115 573 l 2
 115 590 113 596 109 596 c 0
 108 596 106 596 105 595 c 2
 18 556 l 1
 11 580 9 590 9 599 c 2
 9 604 l 1
 62 617 91 626 207 665 c 1
 215 660 l 1
541 192 m 1
 501 215 484 243 484 284 c 0
 484 352 535 396 613 396 c 0
 679 396 722 362 722 308 c 0
 722 275 707 252 670 226 c 1
 716 206 740 171 740 123 c 0
 740 47 679 -10 597 -10 c 0
 525 -10 474 33 474 95 c 0
 474 136 497 170 541 192 c 1
607 163 m 2
 573 178 l 1
 544 152 534 134 534 104 c 0
 534 60 564 27 605 27 c 0
 641 27 667 54 667 92 c 0
 667 124 650 144 607 163 c 2
608 249 m 1
 633 239 l 1
 656 259 665 275 665 299 c 0
 665 335 641 359 606 359 c 0
 573 359 552 340 552 310 c 0
 552 283 567 267 608 249 c 1
EndSplineSet
Ligature2: "'frac' Diagonal Fractions lookup 10 subtable" onesuperior fraction eightsuperior
Ligature2: "'frac' Diagonal Fractions lookup 10 subtable" onesuperior slash eightsuperior
Ligature2: "'frac' Diagonal Fractions lookup 10 subtable" one fraction eight
Ligature2: "'frac' Diagonal Fractions lookup 10 subtable" one slash eight
EndChar

StartChar: threeeighths
Encoding: 8540 8540 233
Width: 760
Flags: MW
LayerCount: 2
Fore
SplineSet
224 0 m 1
 155 0 l 1
 558 660 l 1
 627 660 l 1
 224 0 l 1
540 192 m 1
 501 216 484 243 484 284 c 0
 484 352 535 396 612 396 c 0
 679 396 722 362 722 308 c 0
 722 276 707 252 669 226 c 1
 716 206 740 171 740 123 c 0
 740 47 679 -10 597 -10 c 0
 525 -10 474 33 474 95 c 0
 474 136 496 170 540 192 c 1
607 163 m 2
 572 178 l 1
 543 152 534 134 534 104 c 0
 534 60 564 27 605 27 c 0
 641 27 667 54 667 92 c 0
 667 124 650 144 607 163 c 2
608 249 m 2
 632 239 l 1
 656 259 665 275 665 299 c 0
 665 335 641 359 606 359 c 0
 573 359 552 340 552 310 c 0
 552 283 567 267 608 249 c 2
9 359 m 1
 35 366 l 1
 61 311 84 291 125 291 c 0
 168 291 197 322 197 366 c 0
 197 409 169 436 125 436 c 0
 110 436 102 435 87 431 c 1
 80 436 l 1
 92 484 l 1
 116 484 l 2
 156 484 181 507 181 543 c 0
 181 574 159 593 123 593 c 0
 86 593 67 576 55 533 c 1
 27 533 l 1
 47 629 l 1
 85 650 107 657 142 657 c 0
 207 657 254 621 254 571 c 0
 254 536 234 508 194 487 c 1
 248 479 278 447 278 397 c 0
 278 316 200 251 103 251 c 0
 71 251 52 255 25 266 c 1
 16 319 14 331 9 359 c 1
EndSplineSet
Ligature2: "'frac' Diagonal Fractions lookup 12 subtable" threesuperior fraction eightsuperior
Ligature2: "'frac' Diagonal Fractions lookup 12 subtable" threesuperior slash eightsuperior
Ligature2: "'frac' Diagonal Fractions lookup 12 subtable" three fraction eight
Ligature2: "'frac' Diagonal Fractions lookup 12 subtable" three slash eight
EndChar

StartChar: fiveeighths
Encoding: 8541 8541 234
Width: 760
Flags: MW
LayerCount: 2
Fore
SplineSet
224 0 m 1
 155 0 l 1
 558 660 l 1
 627 660 l 1
 224 0 l 1
540 192 m 1
 501 216 484 243 484 284 c 0
 484 352 535 396 612 396 c 0
 679 396 722 362 722 308 c 0
 722 276 707 252 669 226 c 1
 716 206 740 171 740 123 c 0
 740 47 679 -10 597 -10 c 0
 525 -10 474 33 474 95 c 0
 474 136 497 170 540 192 c 1
607 163 m 2
 572 178 l 1
 543 152 534 134 534 104 c 0
 534 60 564 27 605 27 c 0
 641 27 667 54 667 92 c 0
 667 124 650 144 607 163 c 2
608 249 m 2
 632 239 l 1
 656 259 665 276 665 299 c 0
 665 335 641 359 606 359 c 0
 573 359 552 340 552 310 c 0
 552 283 567 267 608 249 c 2
92 579 m 1
 90 496 l 1
 122 510 139 514 164 514 c 0
 239 514 286 471 286 404 c 0
 286 319 209 251 112 251 c 0
 82 251 64 255 41 265 c 1
 37 284 35 292 24 334 c 1
 21 348 l 1
 44 362 l 1
 66 314 94 292 136 292 c 0
 180 292 209 322 209 369 c 0
 209 417 179 447 133 447 c 0
 105 447 87 441 65 423 c 1
 50 431 l 1
 53 475 54 496 54 506 c 2
 54 566 l 2
 54 584 53 613 50 648 c 1
 56 655 l 1
 66 654 l 1
 99 653 107 652 160 651 c 1
 268 655 l 1
 272 647 l 1
 269 633 268 626 268 613 c 2
 268 588 l 1
 263 579 l 1
 232 580 l 2
 205 581 192 581 183 581 c 2
 176 581 l 1
 92 579 l 1
EndSplineSet
Ligature2: "'frac' Diagonal Fractions lookup 13 subtable" fivesuperior fraction eightsuperior
Ligature2: "'frac' Diagonal Fractions lookup 13 subtable" fivesuperior slash eightsuperior
Ligature2: "'frac' Diagonal Fractions lookup 13 subtable" five fraction eight
Ligature2: "'frac' Diagonal Fractions lookup 13 subtable" five slash eight
EndChar

StartChar: seveneighths
Encoding: 8542 8542 235
Width: 760
Flags: MW
LayerCount: 2
Fore
SplineSet
164 0 m 1
 95 0 l 1
 498 660 l 1
 567 660 l 1
 164 0 l 1
540 192 m 1
 501 215 484 243 484 284 c 0
 484 352 535 396 613 396 c 0
 679 396 722 362 722 308 c 0
 722 275 707 252 669 226 c 1
 716 206 740 171 740 123 c 0
 740 47 679 -10 597 -10 c 0
 525 -10 474 33 474 95 c 0
 474 136 497 170 540 192 c 1
607 163 m 2
 572 178 l 1
 543 152 534 134 534 104 c 0
 534 60 564 27 605 27 c 0
 641 27 667 54 667 92 c 0
 667 124 650 144 607 163 c 2
608 249 m 2
 632 239 l 1
 656 259 665 275 665 299 c 0
 665 335 641 359 606 359 c 0
 573 359 552 340 552 310 c 0
 552 283 567 267 608 249 c 2
299 653 m 1
 299 622 l 1
 279 591 266 568 243 520 c 2
 177 388 l 2
 160 353 135 291 125 259 c 1
 108 260 93 261 89 261 c 0
 83 261 74 260 54 259 c 1
 49 269 l 1
 229 575 l 1
 95 575 l 1
 68 574 64 572 61 547 c 2
 56 506 l 1
 26 506 l 1
 26 520 l 2
 26 584 26 600 24 639 c 1
 24 648 l 1
 32 655 l 1
 51 654 l 1
 142 652 190 651 196 651 c 2
 211 651 l 1
 299 653 l 1
EndSplineSet
Ligature2: "'frac' Diagonal Fractions lookup 14 subtable" sevensuperior fraction eightsuperior
Ligature2: "'frac' Diagonal Fractions lookup 14 subtable" sevensuperior slash eightsuperior
Ligature2: "'frac' Diagonal Fractions lookup 14 subtable" seven fraction eight
Ligature2: "'frac' Diagonal Fractions lookup 14 subtable" seven slash eight
EndChar

StartChar: zerosuperior
Encoding: 8304 8304 236
Width: 360
Flags: MW
LayerCount: 2
Fore
SplineSet
190 657 m 0
 278 657 315 600 315 467 c 0
 315 319 271 251 176 251 c 0
 86 251 47 309 47 443 c 0
 47 592 90 657 190 657 c 0
178 621 m 0
 139 621 126 585 126 483 c 0
 126 343 143 287 184 287 c 0
 218 287 236 332 236 413 c 0
 236 559 219 621 178 621 c 0
EndSplineSet
EndChar

StartChar: foursuperior
Encoding: 8308 8308 237
Width: 360
Flags: MW
LayerCount: 2
Fore
SplineSet
22 358 m 1
 17 385 l 1
 53 472 94 545 165 648 c 1
 242 665 l 1
 248 655 l 1
 248 632 l 1
 245 551 245 538 245 484 c 2
 245 413 l 1
 296 413 l 1
 298 409 l 1
 298 358 l 1
 245 358 l 1
 245 329 l 2
 245 303 255 290 276 289 c 2
 300 287 l 1
 300 259 l 1
 276 259 l 1
 214 261 214 261 204 261 c 0
 197 261 184 261 166 260 c 0
 144 260 137 260 95 259 c 1
 95 287 l 1
 137 289 l 2
 157 290 167 304 168 329 c 1
 168 358 l 1
 22 358 l 1
68 413 m 1
 168 413 l 1
 168 594 l 1
 149 564 136 543 129 532 c 2
 92 463 l 2
 86 452 78 436 68 413 c 1
EndSplineSet
EndChar

StartChar: fivesuperior
Encoding: 8309 8309 238
Width: 360
Flags: MW
LayerCount: 2
Fore
SplineSet
129 579 m 1
 127 496 l 1
 159 510 176 514 201 514 c 0
 276 514 323 471 323 404 c 0
 323 319 246 251 149 251 c 0
 119 251 101 255 78 265 c 1
 74 284 72 292 61 334 c 1
 58 348 l 1
 81 362 l 1
 103 314 131 292 173 292 c 0
 217 292 246 322 246 369 c 0
 246 417 216 447 170 447 c 0
 142 447 124 441 102 423 c 1
 87 431 l 1
 90 475 91 496 91 506 c 2
 91 566 l 2
 91 584 90 613 87 648 c 1
 93 655 l 1
 103 654 l 1
 136 653 144 652 197 651 c 1
 305 655 l 1
 309 647 l 1
 306 633 305 626 305 613 c 2
 305 588 l 1
 300 579 l 1
 269 580 l 2
 242 581 229 581 220 581 c 2
 213 581 l 1
 129 579 l 1
EndSplineSet
EndChar

StartChar: sixsuperior
Encoding: 8310 8310 239
Width: 360
Flags: MW
LayerCount: 2
Fore
SplineSet
287 625 m 1
 282.333333333 625 277.666666667 625 273 625 c 0
 192 623 145 568 138 467 c 1
 163 497 188 509 222 509 c 0
 281 509 318 465 318 395 c 0
 318 309 264 251 184 251 c 0
 99 251 52 311 52 420 c 0
 52 514 92 587 166 631 c 0
 198 650 225 656 272 657 c 1
 299 638 l 1
 287 625 l 1
186 452 m 0
 152 452 136 429 136 381 c 0
 136 323 157 287 192 287 c 0
 223 287 241 316 241 365 c 0
 241 417 219 452 186 452 c 0
EndSplineSet
EndChar

StartChar: sevensuperior
Encoding: 8311 8311 240
Width: 360
Flags: MW
LayerCount: 2
Fore
SplineSet
357 653 m 1
 357 622 l 1
 337 591 324 568 301 520 c 2
 235 388 l 2
 218 353 193 291 183 259 c 1
 166 260 151 261 147 261 c 0
 141 261 132 260 112 259 c 1
 107 269 l 1
 287 575 l 1
 153 575 l 1
 126 574 122 572 119 547 c 2
 114 506 l 1
 84 506 l 1
 84 520 l 2
 84 584 84 600 82 639 c 1
 82 648 l 1
 90 655 l 1
 109 654 l 1
 200 652 248 651 254 651 c 2
 269 651 l 1
 357 653 l 1
EndSplineSet
EndChar

StartChar: eightsuperior
Encoding: 8312 8312 241
Width: 360
Flags: MW
LayerCount: 2
Fore
SplineSet
115 453 m 1
 75 477 58 504 58 545 c 0
 58 613 109 657 187 657 c 0
 254 657 297 623 297 569 c 0
 297 537 282 513 244 487 c 1
 290 466 314 432 314 384 c 0
 314 308 253 251 171 251 c 0
 99 251 48 294 48 356 c 0
 48 397 71 431 115 453 c 1
181 424 m 2
 147 439 l 1
 118 413 108 395 108 365 c 0
 108 321 138 288 179 288 c 0
 215 288 241 315 241 353 c 0
 241 385 224 405 181 424 c 2
182 510 m 1
 207 500 l 1
 231 520 240 536 240 560 c 0
 240 596 216 620 180 620 c 0
 147 620 126 601 126 571 c 0
 126 544 141 528 182 510 c 1
EndSplineSet
EndChar

StartChar: ninesuperior
Encoding: 8313 8313 242
Width: 360
Flags: MW
LayerCount: 2
Fore
SplineSet
89 251 m 1
 63 270 l 1
 70 286 l 1
 83 284 86 284 90 284 c 0
 128 284 168 305 188 335 c 0
 207 362 216 391 221 442 c 1
 190 415 l 2
 177 405 164 400 145 400 c 0
 79 400 42 441 42 516 c 0
 42 603 93 657 175 657 c 0
 262 657 308 600 308 494 c 0
 308 352 218 252 89 251 c 1
171 620 m 0
 138 620 119 593 119 546 c 0
 119 490 140 458 176 458 c 0
 210 458 225 479 225 526 c 0
 225 586 206 620 171 620 c 0
EndSplineSet
EndChar

StartChar: IJ
Encoding: 306 306 243
Width: 778
Flags: MW
LayerCount: 2
Fore
SplineSet
350 641 m 1
 313 638 l 2
 289 636 280 633 274 627 c 0
 267 619 266 603 265 543 c 1
 265 135 l 1
 266 72 267 58 275 50 c 0
 281 44 290 42 313 40 c 2
 350 37 l 1
 350 -3 l 1
 265 -1 230 0 194 0 c 0
 159 0 123 -1 39 -3 c 1
 39 37 l 1
 76 40 l 2
 100 42 109 45 115 51 c 0
 122 58 123 74 124 135 c 1
 124 543 l 1
 123 634 123 634 76 638 c 2
 39 641 l 1
 39 681 l 1
 158 678 159 678 194 678 c 0
 230 678 230 678 350 681 c 1
 350 641 l 1
739 641 m 1
 702 638 l 2
 678 636 669 633 663 627 c 0
 656 619 655 603 654 543 c 1
 654 137 l 2
 654 32 648 -7 626 -55 c 0
 584 -145 489 -213 408 -213 c 0
 399 -213 391 -212 378 -208 c 1
 378 -119 l 1
 389 -113 l 1
 393 -116 394 -117 400 -121 c 0
 426 -142 440 -148 458 -148 c 0
 499 -148 513 -114 513 -18 c 2
 513 543 l 1
 512 633 512 634 465 638 c 2
 428 641 l 1
 428 681 l 1
 547 678 548 678 583 678 c 0
 619 678 619 678 739 681 c 1
 739 641 l 1
EndSplineSet
EndChar

StartChar: Abreve
Encoding: 258 258 244
Width: 778
Flags: MW
LayerCount: 2
Fore
SplineSet
250 -3 m 1
 200.842253392 -1.36140844639 170.246670593 0 137 0 c 0
 135 0 98 -1 24 -3 c 1
 24 34 l 1
 54 37 l 2
 76 39 93 58 110 97 c 2
 291 535 l 1
 307.440954889 571.170100757 325.057295452 625.36570941 348 686 c 1
 419 686 l 1
 678 81 l 2
 691 52 705 41 733 37 c 2
 757 34 l 1
 757 -3 l 1
 667 -1 618 0 599 0 c 0
 579 0 533 -1 447 -3 c 1
 447 34 l 1
 500 37 l 2
 511 38 520 49 520 64 c 0
 520 72 518 82 514 92 c 2
 469 206 l 1
 218 206 l 1
 176 94 l 2
 173 85 171 76 171 69 c 0
 171 52 183 38 200 37 c 2
 250 34 l 1
 250 -3 l 1
342 516 m 1
 242 262 l 1
 446 262 l 1
 342 516 l 1
238 893 m 1
 282 893 l 1
 293 834 326 806 386 806 c 0
 423 806 452 818 473 842 c 0
 486 857 497 878 497 891 c 2
 497 893 l 1
 541 893 l 1
 537 845 531 821 514 794 c 0
 488 752 446 730 390 730 c 0
 328 730 282 756 257 804 c 0
 243 830 239 850 238 893 c 1
EndSplineSet
EndChar

StartChar: Aogonek
Encoding: 260 260 245
Width: 778
Flags: MW
LayerCount: 2
Fore
SplineSet
250 -3 m 1
 200.842253392 -1.36140844639 170.246670593 0 137 0 c 0
 135 0 98 -1 24 -3 c 1
 24 34 l 1
 54 37 l 2
 76 39 93 58 110 97 c 2
 291 535 l 1
 307.440954889 571.170100757 325.057295452 625.36570941 348 686 c 1
 419 686 l 1
 678 81 l 2
 691 52 705 41 733 37 c 2
 757 34 l 1
 757 -3 l 1
 756.656434537 -2.99119062916 756.312946679 -2.98680474415 755.969561722 -2.98680474415 c 0
 717.333436807 -2.98680474415 680 -58.5109435087 680 -116 c 0
 680 -159 705 -187 744 -187 c 0
 766 -187 782 -183 812 -172 c 1
 818 -198 l 1
 788 -219 752 -229 706 -229 c 0
 641 -229 604 -192 604 -127 c 0
 604 -82 622 -45 655 -21 c 0
 665 -14 671 -11 694 -2 c 1
 662 -1 l 2
 614 0 614 0 600 0 c 0
 578 0 532 -1 447 -3 c 1
 447 34 l 1
 500 37 l 2
 511 38 520 49 520 64 c 0
 520 72 518 82 514 92 c 2
 469 206 l 1
 218 206 l 1
 176 94 l 2
 173 85 171 76 171 69 c 0
 171 52 183 38 200 37 c 2
 250 34 l 1
 250 -3 l 1
342 516 m 1
 242 262 l 1
 446 262 l 1
 342 516 l 1
EndSplineSet
EndChar

StartChar: Cacute
Encoding: 262 262 246
Width: 722
Flags: MW
LayerCount: 2
Fore
SplineSet
692 87 m 1
 670 38 l 1
 596 -3 537 -17 445 -17 c 0
 198 -17 44 123 44 347 c 0
 44 561 202 695 455 695 c 0
 542 695 598 684 689 648 c 1
 695 637 l 1
 686 599 683 584 672 484 c 1
 633 484 l 1
 628 570 l 1
 574 620 526 639 450 639 c 0
 291 639 194 533 194 361 c 0
 194 172 309 48 485 48 c 0
 551 48 615 65 680 99 c 1
 692 87 l 1
353 730 m 1
 482 878 l 2
 505 905 523 915 546 915 c 0
 573 915 590 898 590 871 c 0
 590 848.400585657 575.019366794 829.509683397 544 814 c 1
 499.664446659 785.335553341 453.879131972 758.120868028 409 730 c 1
 353 730 l 1
EndSplineSet
EndChar

StartChar: Ccaron
Encoding: 268 268 247
Width: 722
Flags: MW
LayerCount: 2
Fore
SplineSet
692 87 m 1
 670 38 l 1
 596 -3 537 -17 445 -17 c 0
 198 -17 44 123 44 347 c 0
 44 561 202 695 455 695 c 0
 542 695 598 684 689 648 c 1
 695 637 l 1
 686 599 683 584 672 484 c 1
 633 484 l 1
 628 570 l 1
 574 620 526 639 450 639 c 0
 291 639 194 533 194 361 c 0
 194 172 309 48 485 48 c 0
 551 48 615 65 680 99 c 1
 692 87 l 1
486 734 m 1
 394 734 l 1
 273 909 l 1
 328 909 l 1
 441 811 l 1
 553 909 l 1
 610 909 l 1
 486 734 l 1
EndSplineSet
EndChar

StartChar: Cdotaccent
Encoding: 266 266 248
Width: 722
Flags: MW
LayerCount: 2
Fore
SplineSet
692 87 m 1
 670 38 l 1
 596 -3 537 -17 445 -17 c 0
 198 -17 44 123 44 347 c 0
 44 561 202 695 455 695 c 0
 542 695 598 684 689 648 c 1
 695 637 l 1
 686 599 683 584 672 484 c 1
 633 484 l 1
 628 570 l 1
 574 620 526 639 450 639 c 0
 291 639 194 533 194 361 c 0
 194 172 309 48 485 48 c 0
 551 48 615 65 680 99 c 1
 692 87 l 1
419 895 m 0
 455 895 485 864 485 828 c 0
 485 791 455 761 418 761 c 0
 381 761 351 791 351 828 c 0
 351 865 381 895 419 895 c 0
EndSplineSet
EndChar

StartChar: Dcaron
Encoding: 270 270 249
Width: 833
Flags: MW
LayerCount: 2
Fore
SplineSet
379 -3 m 0
 336.650099561 -3 265.3531035 0 224 0 c 0
 195 0 155 -1 68 -3 c 1
 68 20 l 1
 100 38 l 2
 115 47 119 59 120 95 c 1
 120 543 l 1
 119 633 118 637 72 641 c 2
 35 644 l 1
 35 681 l 1
 183 678 183 678 196 678 c 0
 203 678 203 678 301 679 c 2
 437 681 l 1
 567 681 651 655 709 598 c 0
 759 549 786 471 786 376 c 0
 786 268 751 180 683 113 c 0
 608 39 498 -3 379 -3 c 0
261 627 m 1
 261 57 l 1
 286 53 302 52 329 52 c 0
 442 52 513 74 563 123 c 0
 612 171 636 246 636 348 c 0
 636 481.540807319 597.687861821 557.15606909 514 599 c 0
 472 618 393 631 323 631 c 0
 299 631 284 630 261 627 c 1
388 734 m 1
 295 734 l 1
 174 909 l 1
 229 909 l 1
 342 811 l 1
 454 909 l 1
 511 909 l 1
 388 734 l 1
EndSplineSet
EndChar

StartChar: Dcroat
Encoding: 272 272 250
Width: 833
Flags: MW
LayerCount: 2
Fore
SplineSet
379 -3 m 0
 336.650099561 -3 265.3531035 0 224 0 c 0
 195 0 155 -1 68 -3 c 1
 68 20 l 1
 100 38 l 2
 115 47 119 59 120 95 c 1
 120 338 l 1
 10 338 l 1
 10 380 l 1
 120 380 l 1
 120 543 l 1
 119 633 118 637 72 641 c 2
 35 644 l 1
 35 681 l 1
 183 678 183 678 196 678 c 0
 203 678 203 678 301 679 c 2
 437 681 l 1
 567 681 651 655 709 598 c 0
 759 549 786 471 786 376 c 0
 786 268 751 180 683 113 c 0
 607 39 498 -3 379 -3 c 0
261 380 m 1
 412 380 l 1
 412 338 l 1
 261 338 l 1
 261 57 l 1
 286 53 302 52 329 52 c 0
 442 52 513 74 563 123 c 0
 612 171 636 246 636 348 c 0
 636 481.540807319 597.687861821 557.15606909 514 599 c 0
 472 618 393 631 323 631 c 0
 299 631 284 630 261 627 c 1
 261 380 l 1
EndSplineSet
EndChar

StartChar: Ecaron
Encoding: 282 282 251
Width: 611
Flags: MW
LayerCount: 2
Fore
SplineSet
227 678 m 0
 267.089287062 678 417.900661128 682 465 682 c 0
 506 682 524 681 560 678 c 1
 566 671 l 1
 552 529 l 1
 516 529 l 1
 508 604 l 2
 507 615 465 624 411 624 c 0
 350 624 319 623 265 620 c 1
 265 380 l 1
 284 378 295 378 332 378 c 2
 398 378 l 2
 441 378 452 382 455 399 c 1
 461 456 l 1
 501 456 l 1
 499 392 498 357 498 349 c 2
 501 241 l 1
 461 241 l 1
 455 291 l 2
 451 318 437 327 398 328 c 1
 332 328 l 2
 309 328 290 327 265 325 c 1
 265 58 l 1
 316 56 355 55 396 55 c 0
 453 55 479 58 512 69 c 0
 514 70 515 71 515 72 c 2
 538 166 l 1
 577 166 l 1
 566 8 l 1
 561 0 l 1
 504 -3 475 -4 420 -4 c 0
 365.702542781 -4 258.957926563 0 195 0 c 0
 169 0 141 -1 72 -3 c 1
 72 20 l 1
 104 38 l 2
 119 47 124 61 124 95 c 2
 124 543 l 1
 123 633 122 637 76 641 c 2
 39 644 l 1
 39 681 l 1
 139 679 185 678 227 678 c 0
351 734 m 1
 258 734 l 1
 137 909 l 1
 192 909 l 1
 305 811 l 1
 417 909 l 1
 474 909 l 1
 351 734 l 1
EndSplineSet
EndChar

StartChar: Edotaccent
Encoding: 278 278 252
Width: 611
Flags: MW
LayerCount: 2
Fore
SplineSet
227 678 m 0
 267.089287062 678 417.900661128 682 465 682 c 0
 506 682 524 681 560 678 c 1
 566 671 l 1
 552 529 l 1
 516 529 l 1
 508 604 l 2
 507 615 465 624 411 624 c 0
 350 624 319 623 265 620 c 1
 265 380 l 1
 284 378 295 378 332 378 c 2
 398 378 l 2
 441 378 452 382 455 399 c 1
 461 456 l 1
 501 456 l 1
 499 392 498 357 498 349 c 2
 501 241 l 1
 461 241 l 1
 455 291 l 2
 451 318 437 327 398 328 c 1
 332 328 l 2
 309 328 290 327 265 325 c 1
 265 58 l 1
 316 56 355 55 396 55 c 0
 453 55 479 58 512 69 c 0
 514 70 515 71 515 72 c 2
 538 166 l 1
 577 166 l 1
 566 8 l 1
 561 0 l 1
 504 -3 475 -4 420 -4 c 0
 365.702542781 -4 258.957926563 0 195 0 c 0
 169 0 141 -1 72 -3 c 1
 72 20 l 1
 104 38 l 2
 119 47 124 61 124 95 c 2
 124 543 l 1
 123 633 122 637 76 641 c 2
 39 644 l 1
 39 681 l 1
 139 679 185 678 227 678 c 0
307 895 m 0
 343 895 373 864 373 828 c 0
 373 791 343 761 306 761 c 0
 269 761 239 791 239 828 c 0
 239 865 269 895 307 895 c 0
EndSplineSet
EndChar

StartChar: Eogonek
Encoding: 280 280 253
Width: 611
Flags: MW
LayerCount: 2
Fore
SplineSet
227 678 m 0
 267.089287062 678 417.900661128 682 465 682 c 0
 506 682 524 681 560 678 c 1
 566 671 l 1
 552 529 l 1
 516 529 l 1
 508 604 l 2
 507 615 465 624 411 624 c 0
 350 624 319 623 265 620 c 1
 265 380 l 1
 284 378 295 378 332 378 c 2
 398 378 l 2
 441 378 452 382 455 399 c 1
 461 456 l 1
 501 456 l 1
 499 392 498 357 498 349 c 2
 501 241 l 1
 461 241 l 1
 455 291 l 2
 451 318 437 327 398 328 c 1
 332 328 l 2
 309 328 290 327 265 325 c 1
 265 58 l 1
 316 56 355 55 396 55 c 0
 453 55 479 58 512 69 c 0
 514 70 515 71 515 72 c 2
 538 166 l 1
 577 166 l 1
 566 8 l 1
 561 0 l 1
 557 0 l 1
 526.945526274 -3.7568092158 511.936512118 -12.2901153271 491 -53 c 0
 481 -74 475 -95 475 -115 c 0
 475 -159 500 -187 539 -187 c 0
 561 -187 577 -183 607 -172 c 1
 613 -198 l 1
 583 -219 547 -229 501 -229 c 0
 436 -229 399 -192 399 -126 c 0
 399 -67 426 -27 484 -4 c 1
 414 -4 l 2
 365.548693978 -4 255.797235962 0 195 0 c 0
 169 0 141 -1 72 -3 c 1
 72 20 l 1
 104 38 l 2
 119 47 124 61 124 95 c 2
 124 543 l 1
 123 633 122 637 76 641 c 2
 39 644 l 1
 39 681 l 1
 139 679 185 678 227 678 c 0
EndSplineSet
EndChar

StartChar: Gbreve
Encoding: 286 286 254
Width: 833
Flags: MW
LayerCount: 2
Fore
SplineSet
776 276 m 1
 776 242 l 1
 740 234 736 231 735 206 c 1
 735 43 l 1
 615 -2 539 -17 438 -17 c 0
 201 -17 47 126 47 346 c 0
 47 562 205 695 461 695 c 0
 559 695 631 682 722 648 c 1
 728 637 l 1
 719 599 716 580 705 484 c 1
 666 484 l 1
 661 570 l 1
 637 593 628 600 603 610 c 0
 560 629 507 639 456 639 c 0
 293 639 197 535 197 358 c 0
 197 167 305 39 466 39 c 0
 509 39 542 45 593 64 c 1
 593 196 l 1
 592 222 578 232 536 233 c 2
 483 235 l 1
 483 276 l 1
 568 274 598 273 626 273 c 0
 655 273 689 274 776 276 c 1
285 893 m 1
 329 893 l 1
 340 834 373 806 433 806 c 0
 471 806 500 818 520 842 c 0
 534 857 544 878 544 891 c 2
 544 893 l 1
 588 893 l 1
 584 845 578 821 562 794 c 0
 535 752 493 730 437 730 c 0
 376 730 329 756 304 804 c 0
 291 830 287 850 285 893 c 1
EndSplineSet
EndChar

StartChar: Gdotaccent
Encoding: 288 288 255
Width: 833
Flags: MW
LayerCount: 2
Fore
SplineSet
776 276 m 1
 776 242 l 1
 740 234 736 231 735 206 c 1
 735 43 l 1
 615 -2 539 -17 438 -17 c 0
 201 -17 47 126 47 346 c 0
 47 562 205 695 461 695 c 0
 559 695 631 682 722 648 c 1
 728 637 l 1
 719 599 716 580 705 484 c 1
 666 484 l 1
 661 570 l 1
 637 593 628 600 603 610 c 0
 560 629 507 639 456 639 c 0
 293 639 197 535 197 358 c 0
 197 167 305 39 466 39 c 0
 509 39 542 45 593 64 c 1
 593 196 l 1
 592 222 578 232 536 233 c 2
 483 235 l 1
 483 276 l 1
 568 274 598 273 626 273 c 0
 655 273 689 274 776 276 c 1
418 895 m 0
 454 895 484 864 484 828 c 0
 484 791 454 761 417 761 c 0
 380 761 350 791 350 828 c 0
 350 865 380 895 418 895 c 0
EndSplineSet
EndChar

StartChar: Idotaccent
Encoding: 304 304 256
Width: 389
Flags: MW
LayerCount: 2
Fore
SplineSet
350 641 m 1
 313 638 l 2
 289 636 280 633 274 627 c 0
 267 619 266 603 265 543 c 1
 265 135 l 1
 266 72 267 58 275 50 c 0
 281 44 290 42 313 40 c 2
 350 37 l 1
 350 -3 l 1
 265 -1 230 0 194 0 c 0
 159 0 123 -1 39 -3 c 1
 39 37 l 1
 76 40 l 2
 100 42 109 45 115 51 c 0
 122 58 123 74 124 135 c 1
 124 543 l 1
 123 634 123 634 76 638 c 2
 39 641 l 1
 39 681 l 1
 158 678 159 678 194 678 c 0
 230 678 230 678 350 681 c 1
 350 641 l 1
196 895 m 0
 232 895 262 864 262 828 c 0
 262 791 232 761 195 761 c 0
 158 761 128 791 128 828 c 0
 128 865 158 895 196 895 c 0
EndSplineSet
EndChar

StartChar: Lacute
Encoding: 313 313 257
Width: 611
Flags: MW
LayerCount: 2
Fore
SplineSet
420 -4 m 0
 365.702542781 -4 258.957926563 0 195 0 c 0
 169 0 141 -1 72 -3 c 1
 72 20 l 1
 104 38 l 2
 119 47 124 61 124 95 c 2
 124 543 l 1
 123 634 123 634 76 638 c 2
 39 641 l 1
 39 681 l 1
 158 678 159 678 194 678 c 0
 230 678 230 678 350 681 c 1
 350 641 l 1
 313 638 l 2
 289 636 280 633 274 627 c 0
 267 619 266 603 265 543 c 1
 265 58 l 1
 316 56 355 55 396 55 c 0
 453 55 480 58 512 69 c 0
 514 70 515 71 515 72 c 2
 538 174 l 1
 577 174 l 1
 566 8 l 1
 561 0 l 1
 504 -3 475 -4 420 -4 c 0
217 730 m 1
 346 878 l 2
 369 905 387 915 411 915 c 0
 438 915 455 898 455 871 c 0
 455 848.841998505 440.016215646 830.008107823 408 814 c 1
 363.664446659 785.335553341 317.879131972 758.120868028 273 730 c 1
 217 730 l 1
EndSplineSet
EndChar

StartChar: Lcaron
Encoding: 317 317 258
Width: 611
Flags: MW
LayerCount: 2
Fore
SplineSet
420 -4 m 0
 365.702542781 -4 258.957926563 0 195 0 c 0
 169 0 141 -1 72 -3 c 1
 72 20 l 1
 104 38 l 2
 119 47 124 61 124 95 c 2
 124 543 l 1
 123 634 123 634 76 638 c 2
 39 641 l 1
 39 681 l 1
 158 678 159 678 194 678 c 0
 230 678 230 678 350 681 c 1
 350 641 l 1
 313 638 l 2
 289 636 280 633 274 627 c 0
 267 619 266 603 265 543 c 1
 265 58 l 1
 316 56 355 55 396 55 c 0
 453 55 480 58 512 69 c 0
 514 70 515 71 515 72 c 2
 538 174 l 1
 577 174 l 1
 566 8 l 1
 561 0 l 1
 504 -3 475 -4 420 -4 c 0
479 458 m 1
 420 434 l 1
 407 449 l 1
 438 519 463 600 474 665 c 1
 518 671 556 680 592 695 c 1
 605 683 l 1
 579 625 530 537 479 458 c 1
EndSplineSet
EndChar

StartChar: Nacute
Encoding: 323 323 259
Width: 833
Flags: MW
LayerCount: 2
Fore
SplineSet
35 34 m 1
 72 37 l 2
 118 41 119 45 120 135 c 1
 120 543 l 1
 119 633 118 637 72 641 c 2
 35 644 l 1
 35 681 l 1
 86 679 l 1
 120 678 l 1
 155 678 l 1
 239 681 l 1
 305 594 322 572 342 548 c 2
 654 184 l 1
 654 543 l 1
 653 633 652 637 606 641 c 2
 569 644 l 1
 569 681 l 1
 647 678 672 678 684 678 c 2
 798 681 l 1
 798 644 l 1
 761 641 l 2
 715 637 714 633 713 543 c 1
 713 89 l 2
 713 66 714 46 716 -12 c 1
 709 -16 l 1
 627 -3 l 1
 557 75 532 104 505 136 c 2
 179 528 l 1
 179 135 l 2
 179 45 181 41 227 37 c 2
 264 34 l 1
 264 -3 l 1
 199 -1 174 0 151 0 c 0
 128 0 101 -1 35 -3 c 1
 35 34 l 1
328 730 m 1
 457 878 l 2
 480 905 498 915 522 915 c 0
 549 915 566 898 566 871 c 0
 566 848.518568317 551.878672847 830.439336424 519 814 c 1
 474.664446659 785.335553341 428.879131972 758.120868028 384 730 c 1
 328 730 l 1
EndSplineSet
EndChar

StartChar: Ncaron
Encoding: 327 327 260
Width: 833
Flags: MW
LayerCount: 2
Fore
SplineSet
35 34 m 1
 72 37 l 2
 118 41 119 45 120 135 c 1
 120 543 l 1
 119 633 118 637 72 641 c 2
 35 644 l 1
 35 681 l 1
 86 679 l 1
 120 678 l 1
 155 678 l 1
 239 681 l 1
 305 594 322 572 342 548 c 2
 654 184 l 1
 654 543 l 1
 653 633 652 637 606 641 c 2
 569 644 l 1
 569 681 l 1
 647 678 672 678 684 678 c 2
 798 681 l 1
 798 644 l 1
 761 641 l 2
 715 637 714 633 713 543 c 1
 713 89 l 2
 713 66 714 46 716 -12 c 1
 709 -16 l 1
 627 -3 l 1
 557 75 532 104 505 136 c 2
 179 528 l 1
 179 135 l 2
 179 45 181 41 227 37 c 2
 264 34 l 1
 264 -3 l 1
 199 -1 174 0 151 0 c 0
 128 0 101 -1 35 -3 c 1
 35 34 l 1
462 734 m 1
 369 734 l 1
 248 909 l 1
 303 909 l 1
 416 811 l 1
 528 909 l 1
 585 909 l 1
 462 734 l 1
EndSplineSet
EndChar

StartChar: Ohungarumlaut
Encoding: 336 336 261
Width: 833
Flags: MW
LayerCount: 2
Fore
SplineSet
431 695 m 0
 656 695 787 567 787 346 c 0
 787 118 646 -17 407 -17 c 0
 178 -17 47 110 47 332 c 0
 47 562 188 695 431 695 c 0
421 639 m 0
 358 639 306 620 267 582 c 0
 221 537 197 458 197 355 c 0
 197 240 227 145 282 91 c 0
 318 55 359 39 415 39 c 0
 561 39 637 137 637 325 c 0
 637 439 606 533 551 588 c 0
 516 623 474 639 421 639 c 0
481 730 m 1
 609 878 l 2
 634 907 648 915 672 915 c 0
 700 915 719 897 719 869 c 0
 719 851 713 839 700 831 c 2
 535 730 l 1
 481 730 l 1
273 730 m 1
 401 878 l 2
 427 907 440 915 464 915 c 0
 492 915 511 897 511 868 c 0
 511 851 505 839 492 831 c 2
 327 730 l 1
 273 730 l 1
EndSplineSet
EndChar

StartChar: Racute
Encoding: 340 340 262
Width: 722
Flags: MW
LayerCount: 2
Fore
SplineSet
216 678 m 0
 265.468782954 678 371.760703548 681 416 681 c 0
 542 681 606 632 606 534 c 0
 606 492 592 456 564 424 c 0
 537 394 513 379 457 356 c 1
 638 82 l 1
 662 50 672 44 708 37 c 1
 708 -3 l 1
 671 -1 662 -1 611 0 c 1
 521 -3 l 1
 297 344 l 1
 304 362 l 1
 322 362 l 2
 406 362 464 419 464 503 c 0
 464 585 413 631 323 631 c 0
 297 631 279 628 265 622 c 1
 265 135 l 1
 266 72 267 58 275 50 c 0
 281 44 290 42 313 40 c 2
 350 37 l 1
 350 -3 l 1
 265 -1 230 0 194 0 c 0
 159 0 123 -1 39 -3 c 1
 39 37 l 1
 76 40 l 2
 100 42 109 45 115 51 c 0
 122 58 123 75 124 135 c 1
 124 543 l 1
 123 633 122 637 76 641 c 2
 39 644 l 1
 39 681 l 1
 188 678 188 678 216 678 c 0
273 730 m 1
 402 878 l 2
 425 905 443 915 466 915 c 0
 494 915 511 898 511 871 c 0
 511 849.231006927 497.047513288 830.523756644 464 814 c 1
 419.664446659 785.335553341 373.879131972 758.120868028 329 730 c 1
 273 730 l 1
EndSplineSet
EndChar

StartChar: Rcaron
Encoding: 344 344 263
Width: 722
Flags: MW
LayerCount: 2
Fore
SplineSet
216 678 m 0
 265.468782954 678 371.760703548 681 416 681 c 0
 542 681 606 632 606 534 c 0
 606 492 592 456 564 424 c 0
 537 394 513 379 457 356 c 1
 638 82 l 1
 662 50 672 44 708 37 c 1
 708 -3 l 1
 671 -1 662 -1 611 0 c 1
 521 -3 l 1
 297 344 l 1
 304 362 l 1
 322 362 l 2
 406 362 464 419 464 503 c 0
 464 585 413 631 323 631 c 0
 297 631 279 628 265 622 c 1
 265 135 l 1
 266 72 267 58 275 50 c 0
 281 44 290 42 313 40 c 2
 350 37 l 1
 350 -3 l 1
 265 -1 230 0 194 0 c 0
 159 0 123 -1 39 -3 c 1
 39 37 l 1
 76 40 l 2
 100 42 109 45 115 51 c 0
 122 58 123 75 124 135 c 1
 124 543 l 1
 123 633 122 637 76 641 c 2
 39 644 l 1
 39 681 l 1
 188 678 188 678 216 678 c 0
407 734 m 1
 314 734 l 1
 193 909 l 1
 248 909 l 1
 361 811 l 1
 473 909 l 1
 530 909 l 1
 407 734 l 1
EndSplineSet
EndChar

StartChar: Sacute
Encoding: 346 346 264
Width: 611
Flags: MW
LayerCount: 2
Fore
SplineSet
72 202 m 1
 112 202 l 1
 119 114 l 1
 151 67 215 37 283 37 c 0
 369 37 433 92 433 166 c 0
 433 214 406 245 350 262 c 2
 210 304 l 2
 115 332 64 395 64 480 c 0
 64 615 162 695 329 695 c 0
 395 695 447 685 514 661 c 1
 519 649 l 1
 510 620 505 572 505 507 c 1
 464 507 l 1
 458 589 l 1
 420 626 375 644 322 644 c 0
 242 644 188 597 188 527 c 0
 188 476 220 446 294 426 c 2
 408 396 l 2
 507 370 559 309 559 220 c 0
 559 76 444 -17 265 -17 c 0
 189 -17 131 -4 57 29 c 1
 68 86 72 127 72 202 c 1
257 730 m 1
 386 878 l 2
 409 905 427 915 451 915 c 0
 478 915 495 898 495 871 c 0
 495 848.518568317 480.878672847 830.439336424 448 814 c 1
 403.664446659 785.335553341 357.879131972 758.120868028 313 730 c 1
 257 730 l 1
EndSplineSet
EndChar

StartChar: Scedilla
Encoding: 350 350 265
Width: 611
Flags: MW
LayerCount: 2
Fore
SplineSet
514 661 m 1
 519 649 l 1
 510 620 505 572 505 507 c 1
 464 507 l 1
 458 589 l 1
 420 626 375 644 322 644 c 0
 242 644 188 597 188 527 c 0
 188 476 220 446 294 426 c 2
 408 396 l 2
 507 370 559 309 559 220 c 0
 559 85 464 -1 301 -15 c 1
 277 -71 l 1
 297 -66 308 -65 323 -65 c 0
 369 -65 399 -93 399 -138 c 0
 399 -191 348 -225 266 -225 c 0
 237 -225 206 -219 172 -207 c 1
 188 -170 l 1
 222 -177 236 -179 255 -179 c 0
 288 -179 305 -166 305 -142 c 0
 305 -120 291 -107 267 -107 c 0
 259 -107 253 -108 231 -111 c 1
 221 -103 l 1
 260 -17 l 1
 186 -16 119 -1 57 29 c 1
 68 86 72 127 72 202 c 1
 112 202 l 1
 119 114 l 1
 151 67 215 37 283 37 c 0
 369 37 433 92 433 166 c 0
 433 214 406 245 350 262 c 2
 210 304 l 2
 115 332 64 395 64 480 c 0
 64 615 162 695 329 695 c 0
 395 695 447 685 514 661 c 1
EndSplineSet
Substitution2: "'locl' Localized Forms in Latin lookup 2 subtable" Scommaaccent
Substitution2: "'aalt' Access All Alternates lookup 0 subtable" Scommaaccent
EndChar

StartChar: Tcaron
Encoding: 356 356 266
Width: 667
Flags: MW
LayerCount: 2
Fore
SplineSet
404 619 m 1
 404 135 l 1
 405 72 406 58 414 50 c 0
 420 44 429 42 452 40 c 2
 489 37 l 1
 489 -3 l 1
 404 -1 369 0 333 0 c 0
 298 0 262 -1 178 -3 c 1
 178 37 l 1
 215 40 l 2
 240 42 248 45 254 51 c 0
 261 59 262 74 263 135 c 1
 263 619 l 1
 146 619 l 1
 84 618 82 617 75 586 c 1
 70 517 l 1
 30 517 l 1
 27 593 25 628 17 676 c 1
 23 681 l 1
 298 678 298 678 334 678 c 0
 369 678 369 678 644 681 c 1
 650 676 l 1
 642 628 639 593 637 517 c 1
 597 517 l 1
 592 586 l 1
 583 610 l 1
 576 617 566 618 521 619 c 1
 404 619 l 1
379 734 m 1
 286 734 l 1
 165 909 l 1
 220 909 l 1
 333 811 l 1
 445 909 l 1
 502 909 l 1
 379 734 l 1
EndSplineSet
EndChar

StartChar: Uring
Encoding: 366 366 267
Width: 778
Flags: MW
LayerCount: 2
Fore
SplineSet
760 644 m 1
 723 641 l 2
 677 637 675 633 675 543 c 2
 675 251 l 2
 675 70 583 -17 391 -17 c 0
 219 -17 111 58 111 177 c 2
 111 543 l 1
 110 633 109 637 63 641 c 2
 26 644 l 1
 26 681 l 1
 145 678 146 678 181 678 c 0
 217 678 217 678 337 681 c 1
 337 644 l 1
 300 641 l 2
 254 637 252 633 252 543 c 2
 252 295 l 2
 252 192 261 145 287 114 c 0
 314 81 359 65 428 65 c 0
 495 65 541 79 569 108 c 0
 603 143 616 196 616 302 c 2
 616 543 l 1
 615 633 614 637 568 641 c 2
 531 644 l 1
 531 681 l 1
 610 678 634 678 646 678 c 2
 760 681 l 1
 760 644 l 1
429 924 m 0
 482 924 527 878 527 824 c 0
 527 769 482 724 427 724 c 0
 371 724 327 769 327 825 c 0
 327 880 372 924 429 924 c 0
428 874 m 0
 399 874 377 852 377 824 c 0
 377 796 399 774 427 774 c 0
 455 774 477 796 477 824 c 0
 477 851 455 874 428 874 c 0
EndSplineSet
EndChar

StartChar: Uhungarumlaut
Encoding: 368 368 268
Width: 778
Flags: MW
LayerCount: 2
Fore
SplineSet
760 644 m 1
 723 641 l 2
 677 637 675 633 675 543 c 2
 675 251 l 2
 675 70 583 -17 391 -17 c 0
 219 -17 111 58 111 177 c 2
 111 543 l 1
 110 633 109 637 63 641 c 2
 26 644 l 1
 26 681 l 1
 145 678 146 678 181 678 c 0
 217 678 217 678 337 681 c 1
 337 644 l 1
 300 641 l 2
 254 637 252 633 252 543 c 2
 252 295 l 2
 252 192 261 145 287 114 c 0
 314 81 359 65 428 65 c 0
 495 65 541 79 569 108 c 0
 603 143 616 196 616 302 c 2
 616 543 l 1
 615 633 614 637 568 641 c 2
 531 644 l 1
 531 681 l 1
 610 678 634 678 646 678 c 2
 760 681 l 1
 760 644 l 1
396 730 m 1
 524 878 l 2
 549 907 562 915 586 915 c 0
 615 915 634 897 634 869 c 0
 634 851 628 839 615 831 c 2
 450 730 l 1
 396 730 l 1
188 730 m 1
 316 878 l 2
 341 907 354 915 379 915 c 0
 407 915 426 897 426 869 c 0
 426 851 420 839 407 831 c 2
 242 730 l 1
 188 730 l 1
EndSplineSet
EndChar

StartChar: Zacute
Encoding: 377 377 269
Width: 667
Flags: MW
LayerCount: 2
Fore
SplineSet
623 681 m 1
 623 646 l 1
 591 607 568 577 540 536 c 2
 215 57 l 1
 491 57 l 2
 543 57 566 69 572 96 c 2
 587 174 l 1
 627 174 l 1
 618 124 612 60 611 -3 c 1
 485 -1 428 0 327 0 c 0
 224 0 161 -1 24 -3 c 1
 24 35 l 1
 73 97 100 133 128 174 c 2
 434 620 l 1
 212 620 l 1
 140 619 131 615 125 574 c 2
 117 519 l 1
 80 519 l 1
 80 681 l 1
 325 678 325 678 352 678 c 0
 379 678 379 678 623 681 c 1
245 730 m 1
 374 878 l 2
 397 905 415 915 439 915 c 0
 466 915 483 898 483 871 c 0
 483 848.518568317 468.878672847 830.439336424 436 814 c 1
 391.664446659 785.335553341 345.879131972 758.120868028 301 730 c 1
 245 730 l 1
EndSplineSet
EndChar

StartChar: Zdotaccent
Encoding: 379 379 270
Width: 667
Flags: MW
LayerCount: 2
Fore
SplineSet
623 681 m 1
 623 646 l 1
 591 607 568 577 540 536 c 2
 215 57 l 1
 491 57 l 2
 543 57 566 69 572 96 c 2
 587 174 l 1
 627 174 l 1
 618 124 612 60 611 -3 c 1
 485 -1 428 0 327 0 c 0
 224 0 161 -1 24 -3 c 1
 24 35 l 1
 73 97 100 133 128 174 c 2
 434 620 l 1
 212 620 l 1
 140 619 131 615 125 574 c 2
 117 519 l 1
 80 519 l 1
 80 681 l 1
 325 678 325 678 352 678 c 0
 379 678 379 678 623 681 c 1
335 895 m 0
 371 895 401 864 401 828 c 0
 401 791 371 761 334 761 c 0
 297 761 267 791 267 828 c 0
 267 865 297 895 335 895 c 0
EndSplineSet
EndChar

StartChar: Amacron
Encoding: 256 256 271
Width: 778
Flags: MW
LayerCount: 2
Fore
SplineSet
250 -3 m 1
 200.842253392 -1.36140844639 170.246670593 0 137 0 c 0
 135 0 98 -1 24 -3 c 1
 24 34 l 1
 54 37 l 2
 76 39 93 58 110 97 c 2
 291 535 l 1
 307.440954889 571.170100757 325.057295452 625.36570941 348 686 c 1
 419 686 l 1
 678 81 l 2
 691 52 705 41 733 37 c 2
 757 34 l 1
 757 -3 l 1
 667 -1 618 0 599 0 c 0
 579 0 533 -1 447 -3 c 1
 447 34 l 1
 500 37 l 2
 511 38 520 49 520 64 c 0
 520 72 518 82 514 92 c 2
 469 206 l 1
 218 206 l 1
 176 94 l 2
 173 85 171 76 171 69 c 0
 171 52 183 38 200 37 c 2
 250 34 l 1
 250 -3 l 1
342 516 m 1
 242 262 l 1
 446 262 l 1
 342 516 l 1
555 762 m 1
 224 762 l 1
 224 833 l 1
 555 833 l 1
 555 762 l 1
EndSplineSet
EndChar

StartChar: uni021A
Encoding: 538 538 272
Width: 667
Flags: MW
LayerCount: 2
Fore
SplineSet
404 619 m 1
 404 135 l 1
 405 72 406 58 414 50 c 0
 420 44 429 42 452 40 c 2
 489 37 l 1
 489 -3 l 1
 404 -1 369 0 333 0 c 0
 298 0 262 -1 178 -3 c 1
 178 37 l 1
 215 40 l 2
 240 42 248 45 254 51 c 0
 261 59 262 74 263 135 c 1
 263 619 l 1
 146 619 l 1
 84 618 82 617 75 586 c 1
 70 517 l 1
 30 517 l 1
 27 593 25 628 17 676 c 1
 23 681 l 1
 298 678 298 678 334 678 c 0
 369 678 369 678 644 681 c 1
 650 676 l 1
 642 628 639 593 637 517 c 1
 597 517 l 1
 592 586 l 1
 583 610 l 1
 576 617 566 618 521 619 c 1
 404 619 l 1
287 -277 m 1
 227 -301 l 1
 215 -287 l 1
 246 -217 271 -134 281 -70 c 1
 324 -65 365 -55 400 -40 c 1
 412 -52 l 1
 387 -110 337 -198 287 -277 c 1
EndSplineSet
EndChar

StartChar: Ccircumflex
Encoding: 264 264 273
Width: 722
Flags: MW
LayerCount: 2
Fore
SplineSet
692 87 m 1
 670 38 l 1
 596 -3 537 -17 445 -17 c 0
 198 -17 44 123 44 347 c 0
 44 561 202 695 455 695 c 0
 542 695 598 684 689 648 c 1
 695 637 l 1
 686 599 683 584 672 484 c 1
 633 484 l 1
 628 570 l 1
 574 620 526 639 450 639 c 0
 291 639 194 533 194 361 c 0
 194 172 309 48 485 48 c 0
 551 48 615 65 680 99 c 1
 692 87 l 1
363 905 m 1
 456 905 l 1
 579 730 l 1
 522 730 l 1
 410 828 l 1
 297 730 l 1
 242 730 l 1
 363 905 l 1
EndSplineSet
EndChar

StartChar: Wcircumflex
Encoding: 372 372 274
Width: 1000
Flags: MW
LayerCount: 2
Fore
SplineSet
772 681 m 1
 813.144469526 679.211110021 849.463526378 678 877 678 c 0
 889 678 918 679 988 681 c 1
 988 644 l 1
 955 641 l 2
 938 639 925 618 912 572 c 2
 790 140 l 2
 783 114 777 88 757 -3 c 1
 684 -3 l 1
 672.595492008 26.9368334801 656.768575697 72.7710088238 646 102 c 2
 497 477 l 1
 342 122 l 2
 333 100 325 80 295 -3 c 1
 225 -3 l 1
 86 599 l 2
 79 627 68 639 49 641 c 2
 17 644 l 1
 17 681 l 1
 161 678 161 678 174 678 c 0
 189 678 189 678 307 681 c 1
 307 644 l 1
 265 641 l 2
 249 640 235 628 235 616 c 0
 235 608 236 599 238 590 c 2
 320 207 l 1
 470 562 l 2
 483 595 514 669 521 686 c 1
 566 686 l 1
 587 626 599 592 615 553 c 2
 752 210 l 1
 849 588 l 2
 852 599 853 609 853 618 c 0
 853 632 841 640 818 641 c 2
 772 644 l 1
 772 681 l 1
486 905 m 1
 579 905 l 1
 702 730 l 1
 645 730 l 1
 533 828 l 1
 420 730 l 1
 365 730 l 1
 486 905 l 1
EndSplineSet
EndChar

StartChar: Wdieresis
Encoding: 7812 7812 275
Width: 1000
Flags: MW
LayerCount: 2
Fore
SplineSet
772 681 m 1
 813.144469526 679.211110021 849.463526378 678 877 678 c 0
 889 678 918 679 988 681 c 1
 988 644 l 1
 955 641 l 2
 938 639 925 618 912 572 c 2
 790 140 l 2
 783 114 777 88 757 -3 c 1
 684 -3 l 1
 672.595492008 26.9368334801 656.768575697 72.7710088238 646 102 c 2
 497 477 l 1
 342 122 l 2
 333 100 325 80 295 -3 c 1
 225 -3 l 1
 86 599 l 2
 79 627 68 639 49 641 c 2
 17 644 l 1
 17 681 l 1
 161 678 161 678 174 678 c 0
 189 678 189 678 307 681 c 1
 307 644 l 1
 265 641 l 2
 249 640 235 628 235 616 c 0
 235 608 236 599 238 590 c 2
 320 207 l 1
 470 562 l 2
 483 595 514 669 521 686 c 1
 566 686 l 1
 587 626 599 592 615 553 c 2
 752 210 l 1
 849 588 l 2
 852 599 853 609 853 618 c 0
 853 632 841 640 818 641 c 2
 772 644 l 1
 772 681 l 1
639 895 m 0
 675 895 705 864 705 828 c 0
 705 791 675 761 638 761 c 0
 601 761 571 791 571 828 c 0
 571 865 601 895 639 895 c 0
424 895 m 0
 460 895 490 864 490 828 c 0
 490 791 460 761 423 761 c 0
 386 761 356 791 356 828 c 0
 356 865 386 895 424 895 c 0
EndSplineSet
EndChar

StartChar: Ycircumflex
Encoding: 374 374 276
Width: 667
Flags: MW
LayerCount: 2
Fore
SplineSet
395 356 m 1
 583 678 l 1
 660 678 l 1
 660 659 l 1
 484 398 l 2
 465 370 449 340 431 298 c 1
 431 135 l 1
 432 72 433 58 441 50 c 0
 447 44 456 42 479 40 c 2
 516 37 l 1
 516 -3 l 1
 431 -1 396 0 360 0 c 0
 325 0 289 -1 205 -3 c 1
 205 37 l 1
 242 40 l 2
 266 42 275 45 281 51 c 0
 288 58 289 74 290 135 c 1
 290 274 l 1
 274 310 262 333 246 359 c 2
 145 522 l 1
 86 607 66 622 15 622 c 1
 15 659 l 1
 174 695 l 1
 220 668 247 635 288 559 c 2
 395 356 l 1
325 905 m 1
 418 905 l 1
 541 730 l 1
 484 730 l 1
 372 828 l 1
 259 730 l 1
 204 730 l 1
 325 905 l 1
EndSplineSet
EndChar

StartChar: Hbar
Encoding: 294 294 277
Width: 833
Flags: MW
LayerCount: 2
Fore
SplineSet
262 565 m 1
 570 565 l 1
 568 632 567 634 522 638 c 2
 485 641 l 1
 485 681 l 1
 604 678 605 678 640 678 c 0
 676 678 676 678 796 681 c 1
 796 641 l 1
 759 638 l 2
 714 634 713 632 711 565 c 1
 785 565 l 1
 785 494 l 1
 711 494 l 1
 711 135 l 1
 712 72 713 57 721 50 c 0
 727 44 736 42 759 40 c 2
 796 37 l 1
 796 -3 l 1
 711 -1 675 0 640 0 c 0
 605 0 569 -1 485 -3 c 1
 485 37 l 1
 522 40 l 2
 546 42 555 45 561 51 c 0
 568 58 569 74 570 135 c 1
 570 325 l 1
 546 326 525 327 489 327 c 2
 343 327 l 2
 306 327 286 326 262 325 c 1
 262 135 l 1
 263 72 264 58 272 50 c 0
 278 44 287 42 310 40 c 2
 347 37 l 1
 347 -3 l 1
 262 -1 227 0 191 0 c 0
 156 0 120 -1 36 -3 c 1
 36 37 l 1
 73 40 l 2
 97 42 106 45 112 51 c 0
 119 59 120 74 121 135 c 1
 121 494 l 1
 48 494 l 1
 48 565 l 1
 121 565 l 1
 119 632 118 634 73 638 c 2
 36 641 l 1
 36 681 l 1
 155 678 156 678 191 678 c 0
 227 678 227 678 347 681 c 1
 347 641 l 1
 310 638 l 2
 265 634 264 633 262 565 c 1
262 494 m 1
 262 385 l 1
 284 384 301 383 343 383 c 2
 489 383 l 2
 531 383 548 384 570 385 c 1
 570 494 l 1
 262 494 l 1
EndSplineSet
EndChar

StartChar: Emacron
Encoding: 274 274 278
Width: 611
Flags: MW
LayerCount: 2
Fore
SplineSet
227 678 m 0
 267.089287062 678 417.900661128 682 465 682 c 0
 506 682 524 681 560 678 c 1
 566 671 l 1
 552 529 l 1
 516 529 l 1
 508 604 l 2
 507 615 465 624 411 624 c 0
 350 624 319 623 265 620 c 1
 265 380 l 1
 284 378 295 378 332 378 c 2
 398 378 l 2
 441 378 452 382 455 399 c 1
 461 456 l 1
 501 456 l 1
 499 392 498 357 498 349 c 2
 501 241 l 1
 461 241 l 1
 455 291 l 2
 451 318 437 327 398 328 c 1
 332 328 l 2
 309 328 290 327 265 325 c 1
 265 58 l 1
 316 56 355 55 396 55 c 0
 453 55 479 58 512 69 c 0
 514 70 515 71 515 72 c 2
 538 166 l 1
 577 166 l 1
 566 8 l 1
 561 0 l 1
 504 -3 475 -4 420 -4 c 0
 365.702542781 -4 258.957926563 0 195 0 c 0
 169 0 141 -1 72 -3 c 1
 72 20 l 1
 104 38 l 2
 119 47 124 61 124 95 c 2
 124 543 l 1
 123 633 122 637 76 641 c 2
 39 644 l 1
 39 681 l 1
 139 679 185 678 227 678 c 0
471 762 m 1
 140 762 l 1
 140 833 l 1
 471 833 l 1
 471 762 l 1
EndSplineSet
EndChar

StartChar: Gcircumflex
Encoding: 284 284 279
Width: 833
Flags: MW
LayerCount: 2
Fore
SplineSet
776 276 m 1
 776 242 l 1
 740 234 736 231 735 206 c 1
 735 43 l 1
 615 -2 539 -17 438 -17 c 0
 201 -17 47 126 47 346 c 0
 47 562 205 695 461 695 c 0
 559 695 631 682 722 648 c 1
 728 637 l 1
 719 599 716 580 705 484 c 1
 666 484 l 1
 661 570 l 1
 637 593 628 600 603 610 c 0
 560 629 507 639 456 639 c 0
 293 639 197 535 197 358 c 0
 197 167 305 39 466 39 c 0
 509 39 542 45 593 64 c 1
 593 196 l 1
 592 222 578 232 536 233 c 2
 483 235 l 1
 483 276 l 1
 568 274 598 273 626 273 c 0
 655 273 689 274 776 276 c 1
413 905 m 1
 506 905 l 1
 629 730 l 1
 572 730 l 1
 460 828 l 1
 347 730 l 1
 292 730 l 1
 413 905 l 1
EndSplineSet
EndChar

StartChar: Hcircumflex
Encoding: 292 292 280
Width: 833
Flags: MW
LayerCount: 2
Fore
SplineSet
347 641 m 1
 310 638 l 2
 286 636 277 633 271 627 c 0
 264 619 263 603 262 543 c 1
 262 385 l 1
 284 384 301 383 343 383 c 2
 489 383 l 2
 531 383 548 384 570 385 c 1
 570 543 l 1
 569 633 569 634 522 638 c 2
 485 641 l 1
 485 681 l 1
 604 678 605 678 640 678 c 0
 676 678 676 678 796 681 c 1
 796 641 l 1
 759 638 l 2
 735 636 726 633 720 627 c 0
 713 619 712 604 711 543 c 1
 711 135 l 1
 712 72 713 57 721 50 c 0
 727 44 736 42 759 40 c 2
 796 37 l 1
 796 -3 l 1
 711 -1 675 0 640 0 c 0
 605 0 569 -1 485 -3 c 1
 485 37 l 1
 522 40 l 2
 546 42 555 45 561 51 c 0
 568 58 569 74 570 135 c 1
 570 325 l 1
 546 326 525 327 489 327 c 2
 343 327 l 2
 306 327 286 326 262 325 c 1
 262 135 l 1
 263 72 264 58 272 50 c 0
 278 44 287 42 310 40 c 2
 347 37 l 1
 347 -3 l 1
 262 -1 227 0 191 0 c 0
 156 0 120 -1 36 -3 c 1
 36 37 l 1
 73 40 l 2
 97 42 106 45 112 51 c 0
 119 58 120 74 121 135 c 1
 121 543 l 1
 120 634 120 634 73 638 c 2
 36 641 l 1
 36 681 l 1
 155 678 156 678 191 678 c 0
 227 678 227 678 347 681 c 1
 347 641 l 1
369 905 m 1
 462 905 l 1
 585 730 l 1
 528 730 l 1
 416 828 l 1
 303 730 l 1
 248 730 l 1
 369 905 l 1
EndSplineSet
EndChar

StartChar: Imacron
Encoding: 298 298 281
Width: 389
Flags: MW
LayerCount: 2
Fore
SplineSet
350 641 m 1
 313 638 l 2
 289 636 280 633 274 627 c 0
 267 619 266 603 265 543 c 1
 265 135 l 1
 266 72 267 58 275 50 c 0
 281 44 290 42 313 40 c 2
 350 37 l 1
 350 -3 l 1
 265 -1 230 0 194 0 c 0
 159 0 123 -1 39 -3 c 1
 39 37 l 1
 76 40 l 2
 100 42 109 45 115 51 c 0
 122 58 123 74 124 135 c 1
 124 543 l 1
 123 634 123 634 76 638 c 2
 39 641 l 1
 39 681 l 1
 158 678 159 678 194 678 c 0
 230 678 230 678 350 681 c 1
 350 641 l 1
360 762 m 1
 29 762 l 1
 29 833 l 1
 360 833 l 1
 360 762 l 1
EndSplineSet
EndChar

StartChar: Iogonek
Encoding: 302 302 282
Width: 389
Flags: MW
LayerCount: 2
Fore
SplineSet
350 681 m 1
 350 641 l 1
 313 638 l 2
 289 636 280 633 274 627 c 0
 267 619 266 603 265 543 c 1
 265 135 l 1
 266 72 267 58 275 50 c 0
 281 44 290 42 313 40 c 2
 350 37 l 1
 350 -3 l 1
 330 -3 326 -4 316 -13 c 0
 291 -35 271 -80 271 -115 c 0
 271 -159 296 -187 335 -187 c 0
 357 -187 373 -183 403 -172 c 1
 409 -198 l 1
 379 -219 343 -229 297 -229 c 0
 232 -229 195 -192 195 -127 c 0
 195 -82 213 -45 246 -21 c 0
 256 -14 262 -11 286 -1 c 1
 242 0 222 0 195 0 c 0
 159 0 123 -1 39 -3 c 1
 39 37 l 1
 76 40 l 2
 100 42 109 45 115 51 c 0
 122 58 123 74 124 135 c 1
 124 543 l 1
 123 634 123 634 76 638 c 2
 39 641 l 1
 39 681 l 1
 158 678 159 678 194 678 c 0
 230 678 230 678 350 681 c 1
EndSplineSet
EndChar

